STARTFONT 2.1
COMMENT
COMMENT Converted from OpenType font "montserrat.ttf" by "otf2bdf 3.0".
COMMENT
FONT -FreeType-Montserrat Thin-Medium-R-Normal--77-560-100-100-P-384-ISO10646-1
SIZE 56 100 100
FONTBOUNDINGBOX 132 99 -13 -20
STARTPROPERTIES 19
FOUNDRY "FreeType"
FAMILY_NAME "Montserrat Thin"
WEIGHT_NAME "Medium"
SLANT "R"
SETWIDTH_NAME "Normal"
ADD_STYLE_NAME ""
PIXEL_SIZE 77
POINT_SIZE 560
RESOLUTION_X 100
RESOLUTION_Y 100
SPACING "P"
AVERAGE_WIDTH 384
CHARSET_REGISTRY "ISO10646"
CHARSET_ENCODING "1"
FONT_ASCENT 75
FONT_DESCENT 19
COPYRIGHT "Copyright 2011 The Montserrat Project Authors (https://github.com/JulietaUla/Montserrat)"
_OTF_FONTFILE "montserrat.ttf"
_OTF_PSNAME "Montserrat-Thin"
ENDPROPERTIES
CHARS 969
STARTCHAR 0000
ENCODING 0
SWIDTH 0 0
DWIDTH 0 0
BBX 0 0 0 0
BITMAP
ENDCHAR
STARTCHAR 000D
ENCODING 13
SWIDTH 244 0
DWIDTH 19 0
BBX 0 0 0 0
BITMAP
ENDCHAR
STARTCHAR 0020
ENCODING 32
SWIDTH 244 0
DWIDTH 19 0
BBX 0 0 0 0
BITMAP
ENDCHAR
STARTCHAR 0021
ENCODING 33
SWIDTH 231 0
DWIDTH 18 0
BBX 4 54 7 0
BITMAP
20
20
20
20
20
20
20
20
20
20
20
20
20
20
20
20
20
20
20
20
20
20
20
20
20
20
20
20
20
20
20
20
20
20
20
20
20
20
20
00
00
00
00
00
00
00
00
00
00
00
70
70
F0
70
ENDCHAR
STARTCHAR 0022
ENCODING 34
SWIDTH 321 0
DWIDTH 25 0
BBX 14 19 6 35
BITMAP
C00C
C00C
C00C
C00C
C00C
C00C
C00C
C00C
C00C
C00C
C00C
C00C
C00C
C00C
C00C
C00C
C00C
C00C
C00C
ENDCHAR
STARTCHAR 0023
ENCODING 35
SWIDTH 681 0
DWIDTH 53 0
BBX 47 54 3 0
BITMAP
000080000C00
000080000C00
000080000800
000180000800
000180000800
000180001800
000180001800
000180001800
000100001800
000100001800
000100001000
000100001000
000300001000
000300003000
000300003000
000300003000
3FFFFFFFFFFE
000200003000
000200002000
000200002000
000600002000
000600006000
000600006000
000600006000
000400006000
000400006000
000400004000
000400004000
000C00004000
000C00004000
000C0000C000
000C0000C000
000C0000C000
00080000C000
000800008000
000800008000
FFFFFFFFFFF8
FFFFFFFFFFF8
001800018000
001800018000
001800018000
001000018000
001000010000
001000010000
003000010000
003000010000
003000030000
003000030000
003000030000
002000030000
002000030000
002000020000
006000020000
006000020000
ENDCHAR
STARTCHAR 0024
ENCODING 36
SWIDTH 591 0
DWIDTH 46 0
BBX 37 73 5 -9
BITMAP
0000200000
0000200000
0000200000
0000200000
0000200000
0000200000
0000200000
0000200000
0000200000
0000FC0000
001FFFE000
00F8207C00
01C0200F00
07002001C0
0E00200060
0C00200000
1800200000
3000200000
3000200000
2000200000
6000200000
6000200000
6000200000
6000200000
6000200000
6000200000
6000200000
2000200000
3000200000
1800200000
1800200000
0E00200000
0700200000
01C0200000
0078200000
001FA00000
0003F80000
00003F0000
000023E000
0000203C00
0000200F00
0000200380
00002000C0
0000200060
0000200030
0000200010
0000200018
0000200018
0000200018
0000200008
0000200008
0000200008
0000200018
0000200018
0000200018
0000200010
C000200030
E000200060
70002000C0
1C002001C0
0F00200300
03C0201E00
007E23F800
000FFFC000
0000200000
0000200000
0000200000
0000200000
0000200000
0000200000
0000200000
0000200000
0000200000
ENDCHAR
STARTCHAR 0025
ENCODING 37
SWIDTH 797 0
DWIDTH 62 0
BBX 54 55 4 0
BITMAP
003C0000000000
01FF0000000C00
0701C000001800
0C006000001800
18003000003000
30001800006000
20000800006000
60000C0000C000
40000C00018000
40000400010000
C0000600030000
C0000600060000
C0000600040000
800006000C0000
80000600180000
80000600100000
80000600300000
C0000600600000
C0000600400000
C0000600C00000
40000401800000
40000C01000000
60000C03000000
20001806000000
3000180C000000
1800300C000000
0C00601801FC00
0701C03007DF00
01FF00200C01C0
00100060180060
000000C0300020
00000080600030
00000180400018
00000300C00018
00000200C00008
0000060080000C
00000C0180000C
00000801800004
00001801800004
00003001800004
00002001800004
00006001800004
0000C001800004
00008001800004
0001800180000C
0003000080000C
00060000C0000C
00060000C00008
000C0000400018
00180000600010
00100000300030
00300000180060
006000000C01C0
00400000078780
00C0000001FE00
ENDCHAR
STARTCHAR 0026
ENCODING 38
SWIDTH 630 0
DWIDTH 49 0
BBX 45 56 4 -1
BITMAP
000078000000
0007FF800000
000E00E00000
003800300000
003000180000
006000080000
00C0000C0000
00C0000C0000
008000040000
008000040000
008000040000
008000040000
008000040000
0080000C0000
00C000080000
00C000180000
006000300000
006000600000
003000C00000
001801800000
000C07000000
000C0C000000
000638000000
000360000000
0001C0000000
0007C0000000
000E60000000
003830000000
007018000000
00C00C000000
01800E000000
070006000000
0C0003000100
080001800180
180000C00100
300000600100
200000300300
600000180300
4000000C0200
400000060600
C00000030600
C00000018400
C0000001CC00
C0000000C800
400000007800
400000003000
600000003800
200000006C00
30000000C600
180000018300
0C0000070180
0600000C00C0
038000780060
00F803E00030
001FFF000038
000000000010
ENDCHAR
STARTCHAR 0027
ENCODING 39
SWIDTH 180 0
DWIDTH 14 0
BBX 2 19 6 35
BITMAP
C0
C0
C0
C0
C0
C0
C0
C0
C0
C0
C0
C0
C0
C0
C0
C0
C0
C0
C0
ENDCHAR
STARTCHAR 0028
ENCODING 40
SWIDTH 308 0
DWIDTH 24 0
BBX 10 73 10 -15
BITMAP
00C0
0180
0100
0300
0200
0600
0600
0400
0C00
0800
0800
1800
1000
1000
3000
2000
2000
2000
6000
6000
4000
4000
4000
C000
C000
C000
C000
C000
8000
8000
8000
8000
8000
8000
8000
8000
8000
8000
8000
8000
8000
8000
8000
8000
8000
8000
C000
C000
C000
C000
4000
4000
4000
6000
6000
2000
2000
2000
3000
1000
1000
1800
1800
0800
0C00
0400
0400
0600
0200
0300
0100
0180
0080
ENDCHAR
STARTCHAR 0029
ENCODING 41
SWIDTH 308 0
DWIDTH 24 0
BBX 10 73 5 -15
BITMAP
8000
C000
4000
6000
2000
3000
1000
1800
1800
0800
0C00
0400
0400
0600
0600
0200
0200
0300
0300
0100
0100
0100
0180
0180
0180
0180
0080
0080
0080
0080
0080
0080
00C0
00C0
00C0
00C0
00C0
00C0
00C0
00C0
00C0
00C0
0080
0080
0080
0080
0080
0180
0180
0180
0180
0100
0100
0100
0300
0300
0200
0200
0600
0600
0400
0400
0C00
0800
0800
1800
1000
3000
2000
6000
4000
C000
8000
ENDCHAR
STARTCHAR 002A
ENCODING 42
SWIDTH 347 0
DWIDTH 27 0
BBX 24 27 2 31
BITMAP
001800
001800
001800
001800
001800
001800
001800
E01807
38181C
0C1870
0718E0
01DB80
007E00
001800
007E00
01DB80
0718E0
0C1870
38181C
E01807
001800
001800
001800
001800
001800
001800
001800
ENDCHAR
STARTCHAR 002B
ENCODING 43
SWIDTH 552 0
DWIDTH 43 0
BBX 32 31 6 12
BITMAP
00018000
00018000
00018000
00018000
00018000
00018000
00018000
00018000
00018000
00018000
00018000
00018000
00018000
00018000
00018000
FFFFFFFF
FFFFFFFF
00018000
00018000
00018000
00018000
00018000
00018000
00018000
00018000
00018000
00018000
00018000
00018000
00018000
00018000
ENDCHAR
STARTCHAR 002C
ENCODING 44
SWIDTH 180 0
DWIDTH 14 0
BBX 4 15 5 -11
BITMAP
60
F0
F0
70
30
30
20
60
60
60
40
40
C0
C0
80
ENDCHAR
STARTCHAR 002D
ENCODING 45
SWIDTH 372 0
DWIDTH 29 0
BBX 20 1 5 20
BITMAP
FFFFF0
ENDCHAR
STARTCHAR 002E
ENCODING 46
SWIDTH 180 0
DWIDTH 14 0
BBX 4 4 5 0
BITMAP
60
F0
F0
70
ENDCHAR
STARTCHAR 002F
ENCODING 47
SWIDTH 295 0
DWIDTH 23 0
BBX 26 73 -1 -8
BITMAP
00000040
000000C0
000000C0
00000080
00000180
00000180
00000100
00000300
00000300
00000200
00000600
00000400
00000400
00000C00
00000800
00001800
00001800
00001000
00003000
00003000
00002000
00006000
00006000
00004000
0000C000
0000C000
00008000
00018000
00018000
00010000
00030000
00020000
00020000
00060000
00040000
000C0000
000C0000
00080000
00180000
00180000
00100000
00300000
00300000
00200000
00600000
00600000
00400000
00C00000
00C00000
00800000
01800000
01000000
01000000
03000000
02000000
06000000
06000000
04000000
0C000000
0C000000
08000000
18000000
18000000
10000000
30000000
30000000
20000000
60000000
60000000
40000000
C0000000
80000000
80000000
ENDCHAR
STARTCHAR 0030
ENCODING 48
SWIDTH 642 0
DWIDTH 50 0
BBX 41 55 5 0
BITMAP
00003E000000
0003FFE00000
001E00780000
0038000E0000
00E000030000
01C000018000
03000000C000
030000006000
060000003000
0C0000001800
080000001800
180000000C00
300000000C00
300000000600
200000000600
600000000200
600000000300
400000000300
400000000100
C00000000100
C00000000180
C00000000180
800000000180
800000000180
800000000180
800000000180
800000000080
800000000080
800000000080
800000000080
800000000180
800000000180
800000000180
800000000180
C00000000180
C00000000100
C00000000100
400000000300
400000000300
600000000300
600000000200
300000000600
300000000400
100000000C00
180000000800
0C0000001800
0C0000003000
060000003000
030000006000
01800000C000
00C000038000
007000070000
003C001C0000
000F81F80000
0001FFC00000
ENDCHAR
STARTCHAR 0031
ENCODING 49
SWIDTH 334 0
DWIDTH 26 0
BBX 15 54 1 0
BITMAP
FFFE
0002
0002
0002
0002
0002
0002
0002
0002
0002
0002
0002
0002
0002
0002
0002
0002
0002
0002
0002
0002
0002
0002
0002
0002
0002
0002
0002
0002
0002
0002
0002
0002
0002
0002
0002
0002
0002
0002
0002
0002
0002
0002
0002
0002
0002
0002
0002
0002
0002
0002
0002
0002
0002
ENDCHAR
STARTCHAR 0032
ENCODING 50
SWIDTH 552 0
DWIDTH 43 0
BBX 38 55 2 0
BITMAP
0000F00000
007FFFC000
01E000F000
0700001C00
1C00000E00
3800000300
6000000180
C000000180
00000000C0
00000000C0
0000000040
0000000060
0000000060
0000000060
0000000060
0000000060
0000000060
0000000040
0000000040
00000000C0
00000000C0
0000000080
0000000180
0000000300
0000000300
0000000600
0000000C00
0000001800
0000003000
0000006000
000000C000
0000018000
0000030000
0000070000
00000E0000
00001C0000
0000380000
0000700000
0000E00000
0001C00000
0003800000
0007000000
0006000000
000C000000
0018000000
0030000000
0060000000
00C0000000
0180000000
0300000000
0600000000
0C00000000
1800000000
3000000000
7FFFFFFFFC
ENDCHAR
STARTCHAR 0033
ENCODING 51
SWIDTH 540 0
DWIDTH 42 0
BBX 36 54 2 0
BITMAP
7FFFFFFFC0
00000000C0
0000000180
0000000300
0000000600
0000000400
0000000C00
0000001800
0000003000
0000006000
0000006000
000000C000
0000018000
0000030000
0000030000
0000060000
00000C0000
0000180000
0000180000
0000300000
0000600000
0000C00000
0000C00000
0001800000
0003FF0000
00001FE000
0000007800
0000000E00
0000000300
0000000180
00000000C0
00000000C0
0000000060
0000000020
0000000020
0000000030
0000000030
0000000030
0000000010
0000000010
0000000030
0000000030
0000000030
0000000030
0000000020
0000000060
8000000040
C0000000C0
7000000180
3800000300
0E00000E00
03C0003800
00FC03F000
001FFF8000
ENDCHAR
STARTCHAR 0034
ENCODING 52
SWIDTH 642 0
DWIDTH 50 0
BBX 45 54 4 0
BITMAP
000000070000
000000060000
0000000C0000
000000180000
000000300000
000000600000
000000C00000
000000C00000
000001800000
000003000000
000006000000
00000C000000
000008000000
000018000000
000030000000
000060000000
0000C0000000
000180000000
000100000000
000300000000
000600000000
000C00000000
001800018000
003000018000
003000018000
006000018000
00C000018000
018000018000
030000018000
060000018000
060000018000
0C0000018000
180000018000
300000018000
600000018000
400000018000
FFFFFFFFFFF8
FFFFFFFFFFF8
000000018000
000000018000
000000018000
000000018000
000000018000
000000018000
000000018000
000000018000
000000018000
000000018000
000000018000
000000018000
000000018000
000000018000
000000018000
000000018000
ENDCHAR
STARTCHAR 0035
ENCODING 53
SWIDTH 540 0
DWIDTH 42 0
BBX 36 54 3 0
BITMAP
03FFFFFF80
0200000000
0600000000
0600000000
0600000000
0600000000
0400000000
0400000000
0400000000
0400000000
0400000000
0C00000000
0C00000000
0C00000000
0C00000000
0800000000
0800000000
0800000000
0800000000
1800000000
1800000000
1800000000
1800000000
1FFFF00000
1FFFFF8000
000001F000
0000003C00
0000000600
0000000300
0000000180
00000000C0
0000000060
0000000060
0000000020
0000000030
0000000030
0000000030
0000000010
0000000010
0000000010
0000000030
0000000030
0000000030
0000000020
0000000060
0000000060
80000000C0
C0000000C0
7000000180
3800000300
0E00000E00
03C0003800
00FC03F000
001FFF8000
ENDCHAR
STARTCHAR 0036
ENCODING 54
SWIDTH 591 0
DWIDTH 46 0
BBX 38 55 5 0
BITMAP
00000FC000
0001FFFE00
000F8007C0
003C0000C0
0070000000
00C0000000
0180000000
0300000000
0600000000
0C00000000
0800000000
1800000000
3000000000
3000000000
2000000000
6000000000
6000000000
4000000000
C000000000
C000000000
C000000000
C000000000
8000000000
8000380000
8007FFF000
801E003C00
8070000700
80C0000380
81800000C0
8300000060
8600000030
8C00000030
8800000018
9800000008
D00000000C
D00000000C
F00000000C
7000000004
7000000004
7000000004
7000000004
300000000C
300000000C
300000000C
1800000008
1800000018
0C00000018
0400000030
0600000060
03000000E0
01C00001C0
00E0000380
0038000E00
000F81F800
0001FFE000
ENDCHAR
STARTCHAR 0037
ENCODING 55
SWIDTH 565 0
DWIDTH 44 0
BBX 38 54 3 0
BITMAP
FFFFFFFFFC
8000000018
8000000018
8000000010
8000000030
8000000020
8000000060
8000000060
80000000C0
80000000C0
8000000180
8000000180
0000000300
0000000300
0000000200
0000000600
0000000400
0000000C00
0000000800
0000001800
0000001800
0000003000
0000003000
0000006000
0000006000
0000004000
000000C000
0000008000
0000018000
0000010000
0000030000
0000030000
0000060000
0000060000
00000C0000
00000C0000
0000180000
0000180000
0000100000
0000300000
0000200000
0000600000
0000600000
0000C00000
0000C00000
0001800000
0001800000
0003000000
0003000000
0002000000
0006000000
0004000000
000C000000
0008000000
ENDCHAR
STARTCHAR 0038
ENCODING 56
SWIDTH 617 0
DWIDTH 48 0
BBX 40 55 4 0
BITMAP
00003F0000
000FFFF800
003C003E00
00E0000780
03800001C0
0700000060
0600000030
0C00000018
1800000018
180000000C
100000000C
300000000C
3000000004
3000000004
3000000004
3000000004
300000000C
100000000C
1800000008
1800000018
0C00000018
0600000030
0300000060
01C00001C0
00F0000700
003F007C00
0003FFC000
003F81FC00
00F0000780
03800001C0
0600000070
0C00000018
180000000C
300000000C
2000000006
6000000002
4000000003
4000000003
C000000001
C000000001
C000000001
C000000001
C000000001
4000000003
4000000003
6000000002
2000000006
3000000004
180000000C
0C00000018
0600000070
03800000E0
01E0000780
003F007E00
0007FFE000
ENDCHAR
STARTCHAR 0039
ENCODING 57
SWIDTH 591 0
DWIDTH 46 0
BBX 38 55 3 0
BITMAP
0003F00000
003FFF8000
00F001E000
0380003800
0600000C00
0C00000600
1800000300
3000000180
30000000C0
6000000040
6000000060
C000000020
C000000030
C000000030
C000000038
8000000038
8000000038
8000000038
C00000003C
C00000003C
C00000002C
400000006C
6000000064
60000000C4
3000000084
1800000184
1C00000304
0E00000604
0300001C04
01E0007004
007F1FC004
000FFE0004
0000000004
0000000004
000000000C
000000000C
000000000C
0000000008
0000000008
0000000018
0000000018
0000000010
0000000030
0000000020
0000000060
00000000C0
0000000080
0000000180
0000000300
0000000600
0000001C00
0800003000
0E0001E000
07F03F8000
00FFFC0000
ENDCHAR
STARTCHAR 003A
ENCODING 58
SWIDTH 180 0
DWIDTH 14 0
BBX 4 40 5 0
BITMAP
F0
F0
F0
60
00
00
00
00
00
00
00
00
00
00
00
00
00
00
00
00
00
00
00
00
00
00
00
00
00
00
00
00
00
00
00
00
60
F0
F0
70
ENDCHAR
STARTCHAR 003B
ENCODING 59
SWIDTH 180 0
DWIDTH 14 0
BBX 4 51 5 -11
BITMAP
F0
F0
F0
60
00
00
00
00
00
00
00
00
00
00
00
00
00
00
00
00
00
00
00
00
00
00
00
00
00
00
00
00
00
00
00
00
60
F0
F0
70
30
30
20
60
60
60
40
40
C0
C0
80
ENDCHAR
STARTCHAR 003C
ENCODING 60
SWIDTH 552 0
DWIDTH 43 0
BBX 32 28 6 13
BITMAP
00000003
0000001E
00000078
000003C0
00000F00
00003C00
0001E000
00078000
003C0000
00F00000
03C00000
1E000000
78000000
C0000000
E0000000
3C000000
0F000000
01E00000
00780000
001E0000
0003C000
0000F000
00001E00
00000780
000001F0
0000003C
0000000F
00000001
ENDCHAR
STARTCHAR 003D
ENCODING 61
SWIDTH 552 0
DWIDTH 43 0
BBX 32 18 6 18
BITMAP
FFFFFFFF
00000000
00000000
00000000
00000000
00000000
00000000
00000000
00000000
00000000
00000000
00000000
00000000
00000000
00000000
00000000
00000000
FFFFFFFF
ENDCHAR
STARTCHAR 003E
ENCODING 62
SWIDTH 552 0
DWIDTH 43 0
BBX 32 28 6 13
BITMAP
C0000000
F0000000
1E000000
07800000
01F00000
003C0000
000F0000
0001E000
00007800
00000F00
000003C0
000000F0
0000001E
00000007
0000000F
0000003C
000001E0
00000780
00001C00
0000F000
0003C000
001E0000
00780000
03C00000
0F000000
3C000000
E0000000
80000000
ENDCHAR
STARTCHAR 003F
ENCODING 63
SWIDTH 552 0
DWIDTH 43 0
BBX 34 55 2 0
BITMAP
0001F80000
007FFF8000
03E001E000
0F00003800
1C00000C00
7000000600
E000000300
8000000180
0000000180
00000000C0
00000000C0
00000000C0
0000000040
0000000040
0000000040
00000000C0
00000000C0
00000000C0
0000000080
0000000180
0000000100
0000000300
0000000600
0000000C00
0000001800
0000003000
0000006000
000000C000
0000018000
0000030000
0000060000
00000C0000
0000180000
0000180000
0000300000
0000300000
0000200000
0000200000
0000600000
0000600000
0000000000
0000000000
0000000000
0000000000
0000000000
0000000000
0000000000
0000000000
0000000000
0000000000
0000000000
0000600000
0000F00000
0000F00000
0000700000
ENDCHAR
STARTCHAR 0040
ENCODING 64
SWIDTH 1028 0
DWIDTH 80 0
BBX 71 70 5 -15
BITMAP
00000001FE00000000
0000007FFFF8000000
000003E0001F800000
00001E000001E00000
000078000000380000
0001E00000000E0000
000380000000038000
000E0000000001C000
001C00000000006000
003000000000003000
006000000000001800
00C000000000000C00
018000000000000600
030000000000000300
030000000000000180
0600000FFF80040180
0C00003E01E00400C0
0C0000E00038040060
18000180000E040060
180003000003040030
300006000001840030
30000C000000C40010
200018000000440018
600030000000640018
600020000000340008
40006000000014000C
C000400000001C000C
C000C00000001C000C
C000C00000000C0004
C000800000000C0004
8000800000000C0004
8001800000000C0006
800180000000040006
800180000000040006
800180000000040006
800180000000040006
800180000000040006
800180000000040006
8001800000000C0006
8000800000000C0004
8000800000000C0004
C000C00000000C0004
C000C00000001C000C
C0006000000014000C
40006000000034000C
400030000000240008
600030000000640018
600018000000C40018
20000C000000840010
300006000003840030
100003000006060060
180001C0000C060060
0800007000380300C0
0C00003F03E001C380
06000007FF0000FE00
060000000000000000
030000000000000000
018000000000000000
00C000000000000000
00E000000000000000
007000000000000000
003800000000000000
000C00000000000000
000700000000000000
000380000000000000
0000E0000000400000
00003C000001C00000
00000F80000F800000
000001FC01FC000000
0000003FFFC0000000
ENDCHAR
STARTCHAR 0041
ENCODING 65
SWIDTH 681 0
DWIDTH 53 0
BBX 52 54 1 0
BITMAP
00000060000000
000000E0000000
000000B0000000
00000190000000
00000118000000
00000308000000
0000030C000000
0000060C000000
00000606000000
00000C06000000
00000C03000000
00001803000000
00001801800000
00003001800000
00003000800000
00002000C00000
00006000400000
00004000600000
0000C000200000
00008000300000
00018000300000
00018000180000
00030000180000
000300000C0000
000600000C0000
00060000060000
000C0000060000
000C0000030000
00080000030000
00180000010000
00100000018000
00300000008000
0020000000C000
00600000004000
00600000006000
00C00000006000
00FFFFFFFFF000
01FFFFFFFFF000
01800000001800
03000000001800
03000000000C00
06000000000C00
06000000000400
04000000000600
0C000000000200
08000000000300
18000000000100
18000000000180
30000000000180
300000000000C0
600000000000C0
60000000000060
C0000000000060
C0000000000030
ENDCHAR
STARTCHAR 0042
ENCODING 66
SWIDTH 745 0
DWIDTH 58 0
BBX 43 54 10 0
BITMAP
FFFFFFFC0000
C000000F8000
C0000001C000
C00000007000
C00000001800
C00000000C00
C00000000400
C00000000600
C00000000200
C00000000300
C00000000300
C00000000300
C00000000100
C00000000100
C00000000100
C00000000300
C00000000300
C00000000300
C00000000200
C00000000600
C00000000C00
C00000001800
C00000003000
C00000006000
C0000003C000
C00000FE0000
FFFFFFFF0000
C0000007E000
C00000003800
C00000000E00
C00000000300
C00000000180
C00000000180
C000000000C0
C00000000040
C00000000060
C00000000060
C00000000060
C00000000060
C00000000020
C00000000020
C00000000060
C00000000060
C00000000060
C00000000040
C000000000C0
C000000000C0
C00000000180
C00000000300
C00000000600
C00000001C00
C0000000F000
C00000FFC000
FFFFFFFC0000
ENDCHAR
STARTCHAR 0043
ENCODING 67
SWIDTH 707 0
DWIDTH 55 0
BBX 46 55 5 0
BITMAP
000000FC0000
00001FFFF000
0000F8003E00
0003C0000780
000F000000E0
001C00000070
007000000018
00E00000000C
01C000000000
038000000000
070000000000
060000000000
0C0000000000
180000000000
180000000000
300000000000
300000000000
600000000000
600000000000
400000000000
C00000000000
C00000000000
C00000000000
800000000000
800000000000
800000000000
800000000000
800000000000
800000000000
800000000000
800000000000
800000000000
C00000000000
C00000000000
C00000000000
400000000000
600000000000
600000000000
200000000000
300000000000
100000000000
180000000000
0C0000000000
0C0000000000
060000000000
030000000000
018000000000
00C000000000
00600000000C
003800000038
001C00000060
0007000001C0
0001E0000F00
00007F01FC00
000007FFC000
ENDCHAR
STARTCHAR 0044
ENCODING 68
SWIDTH 822 0
DWIDTH 64 0
BBX 50 54 10 0
BITMAP
FFFFFFF8000000
C000001F800000
C0000001E00000
C0000000780000
C00000001C0000
C0000000070000
C0000000018000
C000000000C000
C0000000006000
C0000000003000
C0000000001800
C0000000001800
C0000000000C00
C0000000000400
C0000000000600
C0000000000200
C0000000000300
C0000000000100
C0000000000180
C0000000000180
C0000000000180
C0000000000080
C0000000000080
C0000000000080
C00000000000C0
C00000000000C0
C00000000000C0
C00000000000C0
C00000000000C0
C00000000000C0
C0000000000080
C0000000000080
C0000000000080
C0000000000180
C0000000000180
C0000000000100
C0000000000300
C0000000000300
C0000000000200
C0000000000600
C0000000000C00
C0000000000C00
C0000000001800
C0000000003000
C0000000006000
C000000000E000
C000000001C000
C0000000030000
C00000000E0000
C00000001C0000
C0000000F00000
C0000007C00000
C00007FE000000
FFFFFFE0000000
ENDCHAR
STARTCHAR 0045
ENCODING 69
SWIDTH 655 0
DWIDTH 51 0
BBX 37 54 10 0
BITMAP
FFFFFFFFE0
C000000000
C000000000
C000000000
C000000000
C000000000
C000000000
C000000000
C000000000
C000000000
C000000000
C000000000
C000000000
C000000000
C000000000
C000000000
C000000000
C000000000
C000000000
C000000000
C000000000
C000000000
C000000000
C000000000
C000000000
C000000000
FFFFFFFF00
C000000000
C000000000
C000000000
C000000000
C000000000
C000000000
C000000000
C000000000
C000000000
C000000000
C000000000
C000000000
C000000000
C000000000
C000000000
C000000000
C000000000
C000000000
C000000000
C000000000
C000000000
C000000000
C000000000
C000000000
C000000000
C000000000
FFFFFFFFF8
ENDCHAR
STARTCHAR 0046
ENCODING 70
SWIDTH 617 0
DWIDTH 48 0
BBX 35 54 10 0
BITMAP
FFFFFFFFE0
C000000000
C000000000
C000000000
C000000000
C000000000
C000000000
C000000000
C000000000
C000000000
C000000000
C000000000
C000000000
C000000000
C000000000
C000000000
C000000000
C000000000
C000000000
C000000000
C000000000
C000000000
C000000000
C000000000
C000000000
C000000000
C000000000
FFFFFFFF00
FFFFFFFF00
C000000000
C000000000
C000000000
C000000000
C000000000
C000000000
C000000000
C000000000
C000000000
C000000000
C000000000
C000000000
C000000000
C000000000
C000000000
C000000000
C000000000
C000000000
C000000000
C000000000
C000000000
C000000000
C000000000
C000000000
C000000000
ENDCHAR
STARTCHAR 0047
ENCODING 71
SWIDTH 771 0
DWIDTH 60 0
BBX 46 55 5 0
BITMAP
000000FC0000
00001FFFF000
0000F8003E00
0003C0000380
000F000000E0
001C00000038
00700000001C
00E000000004
01C000000000
038000000000
070000000000
060000000000
0C0000000000
180000000000
180000000000
300000000000
300000000000
600000000000
600000000000
400000000000
C00000000000
C00000000000
C00000000000
800000000000
800000000000
800000000000
800000000000
800000000000
800000000004
800000000004
800000000004
800000000004
C00000000004
C00000000004
C00000000004
400000000004
600000000004
600000000004
200000000004
300000000004
100000000004
180000000004
0C0000000004
0C0000000004
060000000004
030000000004
018000000004
00C000000004
00600000000C
003800000018
001E00000070
0007800001C0
0001E0000F00
00007F01FC00
000007FFE000
ENDCHAR
STARTCHAR 0048
ENCODING 72
SWIDTH 810 0
DWIDTH 63 0
BBX 43 54 10 0
BITMAP
C00000000020
C00000000020
C00000000020
C00000000020
C00000000020
C00000000020
C00000000020
C00000000020
C00000000020
C00000000020
C00000000020
C00000000020
C00000000020
C00000000020
C00000000020
C00000000020
C00000000020
C00000000020
C00000000020
C00000000020
C00000000020
C00000000020
C00000000020
C00000000020
C00000000020
C00000000020
FFFFFFFFFFE0
C00000000020
C00000000020
C00000000020
C00000000020
C00000000020
C00000000020
C00000000020
C00000000020
C00000000020
C00000000020
C00000000020
C00000000020
C00000000020
C00000000020
C00000000020
C00000000020
C00000000020
C00000000020
C00000000020
C00000000020
C00000000020
C00000000020
C00000000020
C00000000020
C00000000020
C00000000020
C00000000020
ENDCHAR
STARTCHAR 0049
ENCODING 73
SWIDTH 282 0
DWIDTH 22 0
BBX 2 54 10 0
BITMAP
C0
C0
C0
C0
C0
C0
C0
C0
C0
C0
C0
C0
C0
C0
C0
C0
C0
C0
C0
C0
C0
C0
C0
C0
C0
C0
C0
C0
C0
C0
C0
C0
C0
C0
C0
C0
C0
C0
C0
C0
C0
C0
C0
C0
C0
C0
C0
C0
C0
C0
C0
C0
C0
C0
ENDCHAR
STARTCHAR 004A
ENCODING 74
SWIDTH 475 0
DWIDTH 37 0
BBX 27 54 0 0
BITMAP
07FFFFE0
00000020
00000020
00000020
00000020
00000020
00000020
00000020
00000020
00000020
00000020
00000020
00000020
00000020
00000020
00000020
00000020
00000020
00000020
00000020
00000020
00000020
00000020
00000020
00000020
00000020
00000020
00000020
00000020
00000020
00000020
00000020
00000020
00000020
00000020
00000020
00000020
00000020
00000020
00000020
00000020
00000020
00000060
00000060
00000060
00000040
C00000C0
600000C0
30000180
18000380
0C000700
07000E00
01F07800
007FE000
ENDCHAR
STARTCHAR 004B
ENCODING 75
SWIDTH 681 0
DWIDTH 53 0
BBX 42 54 10 0
BITMAP
C00000000300
C00000000600
C00000000C00
C00000001800
C00000003000
C00000006000
C0000000C000
C00000018000
C00000030000
C00000060000
C000000C0000
C00000180000
C00000300000
C00000600000
C00000C00000
C00001800000
C00003000000
C00006000000
C0000C000000
C0001C000000
C00038000000
C00070000000
C000E0000000
C001C0000000
C00380000000
C00380000000
C006C0000000
C00C60000000
C01830000000
C03018000000
C0600C000000
C0C006000000
C18003000000
C30003800000
C60001800000
CC0000C00000
D80000600000
F00000300000
E00000180000
C000000C0000
C00000060000
C00000030000
C00000030000
C00000018000
C0000000C000
C00000006000
C00000003000
C00000001800
C00000000C00
C00000000600
C00000000700
C00000000300
C00000000180
C000000000C0
ENDCHAR
STARTCHAR 004C
ENCODING 76
SWIDTH 578 0
DWIDTH 45 0
BBX 34 54 10 0
BITMAP
C000000000
C000000000
C000000000
C000000000
C000000000
C000000000
C000000000
C000000000
C000000000
C000000000
C000000000
C000000000
C000000000
C000000000
C000000000
C000000000
C000000000
C000000000
C000000000
C000000000
C000000000
C000000000
C000000000
C000000000
C000000000
C000000000
C000000000
C000000000
C000000000
C000000000
C000000000
C000000000
C000000000
C000000000
C000000000
C000000000
C000000000
C000000000
C000000000
C000000000
C000000000
C000000000
C000000000
C000000000
C000000000
C000000000
C000000000
C000000000
C000000000
C000000000
C000000000
C000000000
C000000000
FFFFFFFFC0
ENDCHAR
STARTCHAR 004D
ENCODING 77
SWIDTH 951 0
DWIDTH 74 0
BBX 54 54 10 0
BITMAP
C000000000000C
E000000000000C
E000000000001C
F000000000003C
D800000000003C
D800000000006C
CC00000000004C
CC0000000000CC
C600000000008C
C200000000018C
C300000000030C
C180000000030C
C180000000060C
C0C0000000040C
C0C00000000C0C
C060000000080C
C020000000180C
C030000000300C
C018000000300C
C018000000600C
C00C000000400C
C00C000000C00C
C006000000800C
C002000001800C
C003000003000C
C001800003000C
C001800006000C
C000C00004000C
C000C0000C000C
C000600008000C
C000200018000C
C000300030000C
C000180030000C
C000180060000C
C0000C0040000C
C0000400C0000C
C000060080000C
C000020180000C
C000030300000C
C000018300000C
C000018600000C
C00000C400000C
C000004C00000C
C000006800000C
C000003800000C
C000003000000C
C000000000000C
C000000000000C
C000000000000C
C000000000000C
C000000000000C
C000000000000C
C000000000000C
C000000000000C
ENDCHAR
STARTCHAR 004E
ENCODING 78
SWIDTH 810 0
DWIDTH 63 0
BBX 43 54 10 0
BITMAP
C00000000020
E00000000020
F00000000020
D80000000020
DC0000000020
CC0000000020
C60000000020
C30000000020
C18000000020
C18000000020
C0C000000020
C06000000020
C03000000020
C03000000020
C01800000020
C00C00000020
C00600000020
C00300000020
C00300000020
C00180000020
C000C0000020
C00060000020
C00060000020
C00030000020
C00018000020
C0000C000020
C00006000020
C00006000020
C00003000020
C00001800020
C00000C00020
C00000C00020
C00000600020
C00000300020
C00000180020
C00000180020
C000000C0020
C00000060020
C00000030020
C00000018020
C00000018020
C0000000C020
C00000006020
C00000003020
C00000003020
C00000001820
C00000000C20
C00000000620
C00000000320
C00000000320
C000000001A0
C000000000E0
C00000000060
C00000000060
ENDCHAR
STARTCHAR 004F
ENCODING 79
SWIDTH 835 0
DWIDTH 65 0
BBX 55 55 5 0
BITMAP
000000FE000000
00001FFFF00000
0000F8003E0000
0003C000078000
000E000000E000
00180000007000
00700000001C00
00E00000000E00
01800000000300
03000000000180
060000000001C0
060000000000C0
0C000000000060
18000000000030
18000000000030
30000000000018
30000000000018
6000000000000C
6000000000000C
40000000000004
C0000000000006
C0000000000006
C0000000000006
80000000000002
80000000000002
80000000000002
80000000000002
80000000000002
80000000000002
80000000000002
80000000000002
80000000000002
C0000000000006
C0000000000006
C0000000000006
40000000000004
6000000000000C
6000000000000C
20000000000008
30000000000018
10000000000010
18000000000030
0C000000000060
0C000000000060
060000000000C0
03000000000180
01800000000300
00C00000000600
00600000000C00
00380000003800
001C0000007000
0007000001C000
0001E0000F0000
00007F83FC0000
000007FFC00000
ENDCHAR
STARTCHAR 0050
ENCODING 80
SWIDTH 707 0
DWIDTH 55 0
BBX 40 54 10 0
BITMAP
FFFFFFE000
C000007C00
C000000700
C000000180
C0000000E0
C000000030
C000000018
C000000008
C00000000C
C000000006
C000000006
C000000002
C000000003
C000000003
C000000003
C000000001
C000000001
C000000001
C000000001
C000000003
C000000003
C000000003
C000000003
C000000002
C000000006
C000000006
C00000000C
C000000018
C000000018
C000000030
C0000000E0
C000000180
C000000F00
C00000F800
FFFFFFC000
C000000000
C000000000
C000000000
C000000000
C000000000
C000000000
C000000000
C000000000
C000000000
C000000000
C000000000
C000000000
C000000000
C000000000
C000000000
C000000000
C000000000
C000000000
C000000000
ENDCHAR
STARTCHAR 0051
ENCODING 81
SWIDTH 835 0
DWIDTH 65 0
BBX 58 65 5 -10
BITMAP
000000FE00000000
00001FFFF0000000
0000F8003E000000
0003C00007800000
000F000001E00000
001C000000700000
00700000001C0000
00E00000000E0000
01C0000000070000
0380000000018000
070000000001C000
060000000000C000
0C00000000006000
1800000000003000
1800000000003000
3000000000001800
3000000000001800
6000000000000C00
6000000000000C00
4000000000000400
C000000000000600
C000000000000600
C000000000000600
8000000000000200
8000000000000200
8000000000000200
8000000000000200
8000000000000200
8000000000000200
8000000000000200
8000000000000200
8000000000000200
C000000000000600
C000000000000600
C000000000000600
4000000000000400
6000000000000C00
6000000000000C00
2000000000000800
3000000000001800
1000000000001000
1800000000003000
0C00000000006000
0C00000000006000
060000000000C000
0300000000018000
0180000000030000
00C0000000060000
00600000000C0000
0038000000380000
001C000000700000
0007000001C00000
0001E0000F000000
00007F03FC000000
000007FFC0000000
0000000600000000
0000000300000000
0000000180000000
00000000C00000C0
0000000070000180
0000000038000300
000000000E000E00
0000000007803800
0000000000FFE000
00000000001E0000
ENDCHAR
STARTCHAR 0052
ENCODING 82
SWIDTH 707 0
DWIDTH 55 0
BBX 41 54 10 0
BITMAP
FFFFFFE00000
C000007C0000
C00000070000
C00000018000
C0000000E000
C00000003000
C00000001800
C00000000800
C00000000C00
C00000000600
C00000000600
C00000000200
C00000000300
C00000000300
C00000000300
C00000000100
C00000000100
C00000000100
C00000000100
C00000000300
C00000000300
C00000000300
C00000000300
C00000000200
C00000000600
C00000000600
C00000000C00
C00000001800
C00000001800
C00000003000
C0000000E000
C00000018000
C000000F0000
C00000F80000
FFFFFFE00000
C00000300000
C00000300000
C00000180000
C000000C0000
C00000060000
C00000060000
C00000030000
C00000018000
C00000018000
C0000000C000
C00000006000
C00000003000
C00000003000
C00000001800
C00000000C00
C00000000C00
C00000000600
C00000000300
C00000000180
ENDCHAR
STARTCHAR 0053
ENCODING 83
SWIDTH 591 0
DWIDTH 46 0
BBX 37 55 5 0
BITMAP
0000FC0000
001FFFE000
00F8007C00
01C0000F00
07000001C0
0E00000060
0C00000000
1800000000
3000000000
3000000000
2000000000
6000000000
6000000000
6000000000
6000000000
6000000000
6000000000
6000000000
2000000000
3000000000
1800000000
1800000000
0E00000000
0700000000
01C0000000
0078000000
001F800000
0003F80000
00003F0000
000003E000
0000003C00
0000000F00
0000000380
00000000C0
0000000060
0000000030
0000000010
0000000018
0000000018
0000000018
0000000008
0000000008
0000000008
0000000018
0000000018
0000000018
0000000010
C000000030
E000000060
70000000C0
1C000001C0
0F00000300
03C0001E00
007E03F800
000FFFC000
ENDCHAR
STARTCHAR 0054
ENCODING 84
SWIDTH 540 0
DWIDTH 42 0
BBX 42 54 0 0
BITMAP
FFFFFFFFFFC0
000004000000
000004000000
000004000000
000004000000
000004000000
000004000000
000004000000
000004000000
000004000000
000004000000
000004000000
000004000000
000004000000
000004000000
000004000000
000004000000
000004000000
000004000000
000004000000
000004000000
000004000000
000004000000
000004000000
000004000000
000004000000
000004000000
000004000000
000004000000
000004000000
000004000000
000004000000
000004000000
000004000000
000004000000
000004000000
000004000000
000004000000
000004000000
000004000000
000004000000
000004000000
000004000000
000004000000
000004000000
000004000000
000004000000
000004000000
000004000000
000004000000
000004000000
000004000000
000004000000
000004000000
ENDCHAR
STARTCHAR 0055
ENCODING 85
SWIDTH 784 0
DWIDTH 61 0
BBX 42 54 10 0
BITMAP
8000000000C0
8000000000C0
8000000000C0
8000000000C0
8000000000C0
8000000000C0
8000000000C0
8000000000C0
8000000000C0
8000000000C0
8000000000C0
8000000000C0
8000000000C0
8000000000C0
8000000000C0
8000000000C0
8000000000C0
8000000000C0
8000000000C0
8000000000C0
8000000000C0
8000000000C0
8000000000C0
8000000000C0
8000000000C0
8000000000C0
8000000000C0
8000000000C0
8000000000C0
8000000000C0
8000000000C0
8000000000C0
8000000000C0
8000000000C0
C000000000C0
C000000000C0
C000000000C0
C00000000080
400000000080
400000000180
600000000180
600000000100
200000000300
300000000300
100000000600
180000000600
0C0000000C00
060000001800
030000003000
018000006000
00E00001C000
007800070000
001FC0FC0000
0003FFE00000
ENDCHAR
STARTCHAR 0056
ENCODING 86
SWIDTH 668 0
DWIDTH 52 0
BBX 50 54 1 0
BITMAP
C00000000000C0
40000000000080
60000000000180
20000000000180
30000000000300
30000000000300
18000000000600
18000000000600
0C000000000400
0C000000000C00
04000000000800
06000000001800
02000000001800
03000000003000
01000000003000
01800000006000
01800000006000
00C0000000C000
00C0000000C000
00600000008000
00600000018000
00200000010000
00300000030000
00100000030000
00180000060000
00180000060000
000C00000C0000
000C00000C0000
00060000080000
00060000180000
00020000100000
00030000300000
00010000300000
00018000600000
00018000600000
0000C000C00000
0000C000C00000
00006001800000
00006001800000
00002001000000
00003003000000
00001002000000
00001806000000
00000806000000
00000C0C000000
00000C0C000000
00000618000000
00000618000000
00000310000000
00000330000000
00000120000000
000001E0000000
000000E0000000
000000C0000000
ENDCHAR
STARTCHAR 0057
ENCODING 87
SWIDTH 1080 0
DWIDTH 84 0
BBX 76 54 4 0
BITMAP
C0000000060000000010
C0000000060000000030
400000000F0000000030
60000000090000000060
60000000198000000060
20000000198000000040
300000001080000000C0
3000000030C0000000C0
1000000030C000000080
18000000204000000180
18000000606000000180
08000000606000000100
0C000000402000000300
0C000000C03000000300
04000000C03000000200
06000000801000000600
06000001801800000600
02000001000800000400
03000001000800000C00
03000003000C00000C00
01000002000400000800
01800002000400001800
01800006000600001800
00800004000200001000
00C0000C000300003000
00C0000C000300003000
00400008000100002000
00600018000180006000
00600018000180006000
00200010000080004000
003000300000C000C000
003000300000C000C000
00100020000040008000
00180060000060018000
00180060000060018000
000C0040000020010000
000C00C0000030030000
000400C0000010030000
00060080000010020000
00060180000018060000
00020100000008040000
000303000000080C0000
0003030000000C0C0000
00010200000004080000
00018600000006180000
00018600000006180000
00008400000002100000
0000CC00000003300000
0000CC00000003300000
00004800000001200000
00007800000001E00000
00007800000001E00000
00003000000000C00000
00003000000000C00000
ENDCHAR
STARTCHAR 0058
ENCODING 88
SWIDTH 617 0
DWIDTH 48 0
BBX 44 54 2 0
BITMAP
3000000000C0
180000000180
0C0000000180
0C0000000300
060000000600
030000000C00
018000000C00
018000001800
00C000003000
006000006000
003000006000
00300000C000
001800018000
000C00010000
000600030000
000600060000
0003000C0000
000180080000
0000C0180000
0000C0300000
000060600000
000030400000
000018C00000
000019800000
00000F000000
000006000000
000007000000
00000F000000
000019800000
000030C00000
000030600000
000060600000
0000C0300000
000180180000
0001800C0000
0003000C0000
000600060000
000C00030000
000800018000
001800008000
00300000C000
006000006000
004000003000
00C000003000
018000001800
030000000C00
020000000600
060000000200
0C0000000300
180000000180
1000000000C0
300000000040
600000000060
C00000000030
ENDCHAR
STARTCHAR 0059
ENCODING 89
SWIDTH 604 0
DWIDTH 47 0
BBX 45 54 1 0
BITMAP
C00000000018
600000000010
200000000030
300000000060
180000000060
1800000000C0
0C0000000080
040000000180
060000000300
030000000300
010000000600
018000000C00
00C000000C00
00C000001800
006000001000
002000003000
003000006000
001800006000
00180000C000
000C00008000
000600018000
000600030000
000300030000
000100060000
0001800C0000
0000C00C0000
0000C0180000
000060100000
000020300000
000030600000
000018600000
000018C00000
00000C800000
000007800000
000007000000
000003000000
000003000000
000003000000
000003000000
000003000000
000003000000
000003000000
000003000000
000003000000
000003000000
000003000000
000003000000
000003000000
000003000000
000003000000
000003000000
000003000000
000003000000
000003000000
ENDCHAR
STARTCHAR 005A
ENCODING 90
SWIDTH 630 0
DWIDTH 49 0
BBX 43 54 4 0
BITMAP
FFFFFFFFFFC0
000000000180
000000000180
000000000300
000000000600
000000000C00
000000001800
000000001800
000000003000
000000006000
00000000C000
00000000C000
000000018000
000000030000
000000060000
000000060000
0000000C0000
000000180000
000000300000
000000600000
000000600000
000000C00000
000001800000
000003000000
000003000000
000006000000
00000C000000
000018000000
000018000000
000030000000
000060000000
0000C0000000
000180000000
000180000000
000300000000
000600000000
000C00000000
000C00000000
001800000000
003000000000
006000000000
006000000000
00C000000000
018000000000
030000000000
030000000000
060000000000
0C0000000000
180000000000
300000000000
300000000000
600000000000
C00000000000
FFFFFFFFFFE0
ENDCHAR
STARTCHAR 005B
ENCODING 91
SWIDTH 282 0
DWIDTH 22 0
BBX 10 73 10 -15
BITMAP
FFC0
FFC0
C000
C000
C000
C000
C000
C000
C000
C000
C000
C000
C000
C000
C000
C000
C000
C000
C000
C000
C000
C000
C000
C000
C000
C000
C000
C000
C000
C000
C000
C000
C000
C000
C000
C000
C000
C000
C000
C000
C000
C000
C000
C000
C000
C000
C000
C000
C000
C000
C000
C000
C000
C000
C000
C000
C000
C000
C000
C000
C000
C000
C000
C000
C000
C000
C000
C000
C000
C000
C000
C000
FFC0
ENDCHAR
STARTCHAR 005C
ENCODING 92
SWIDTH 295 0
DWIDTH 23 0
BBX 27 73 -2 -8
BITMAP
C0000000
C0000000
40000000
60000000
60000000
20000000
30000000
30000000
10000000
18000000
08000000
08000000
0C000000
04000000
04000000
06000000
02000000
03000000
03000000
01000000
01800000
01800000
00800000
00C00000
00C00000
00400000
00600000
00600000
00200000
00300000
00100000
00100000
00180000
00080000
00080000
000C0000
00040000
00060000
00060000
00020000
00030000
00030000
00010000
00018000
00018000
00008000
0000C000
0000C000
00004000
00006000
00002000
00002000
00003000
00001000
00001000
00001800
00000800
00000C00
00000C00
00000400
00000600
00000600
00000200
00000300
00000300
00000100
00000180
00000180
00000080
000000C0
00000040
00000040
00000060
ENDCHAR
STARTCHAR 005D
ENCODING 93
SWIDTH 282 0
DWIDTH 22 0
BBX 10 73 2 -15
BITMAP
FFC0
FFC0
00C0
00C0
00C0
00C0
00C0
00C0
00C0
00C0
00C0
00C0
00C0
00C0
00C0
00C0
00C0
00C0
00C0
00C0
00C0
00C0
00C0
00C0
00C0
00C0
00C0
00C0
00C0
00C0
00C0
00C0
00C0
00C0
00C0
00C0
00C0
00C0
00C0
00C0
00C0
00C0
00C0
00C0
00C0
00C0
00C0
00C0
00C0
00C0
00C0
00C0
00C0
00C0
00C0
00C0
00C0
00C0
00C0
00C0
00C0
00C0
00C0
00C0
00C0
00C0
00C0
00C0
00C0
00C0
00C0
00C0
FFC0
ENDCHAR
STARTCHAR 005E
ENCODING 94
SWIDTH 552 0
DWIDTH 43 0
BBX 28 32 8 11
BITMAP
00060000
000E0000
000F0000
00190000
00198000
00118000
0030C000
0020C000
00604000
00606000
00402000
00C03000
00803000
01801000
01801800
03000800
03000C00
02000C00
06000600
04000600
0C000200
0C000300
08000300
18000180
10000180
30000080
300000C0
60000040
60000060
40000060
C0000030
C0000030
ENDCHAR
STARTCHAR 005F
ENCODING 95
SWIDTH 488 0
DWIDTH 38 0
BBX 39 1 0 -1
BITMAP
FFFFFFFFFE
ENDCHAR
STARTCHAR 0060
ENCODING 96
SWIDTH 591 0
DWIDTH 46 0
BBX 13 9 13 47
BITMAP
E000
3800
1C00
0E00
0300
01C0
00E0
0030
0018
ENDCHAR
STARTCHAR 0061
ENCODING 97
SWIDTH 565 0
DWIDTH 44 0
BBX 31 40 5 0
BITMAP
003FFE00
01F00780
078000E0
0E000070
38000018
70000018
0000000C
00000004
00000006
00000006
00000006
00000006
00000002
00000002
00000002
00000002
00000002
00000002
003FFFFE
03FFFFFE
0F000002
18000002
30000002
60000002
60000002
40000002
C0000002
C0000002
C0000002
C0000006
C0000006
C000000E
4000001A
60000012
60000032
30000062
1C0001C2
0E000702
03E03E02
00FFF002
ENDCHAR
STARTCHAR 0062
ENCODING 98
SWIDTH 668 0
DWIDTH 52 0
BBX 39 58 9 0
BITMAP
C000000000
C000000000
C000000000
C000000000
C000000000
C000000000
C000000000
C000000000
C000000000
C000000000
C000000000
C000000000
C000000000
C000000000
C000000000
C000000000
C000000000
C000000000
C007FFC000
C01E00F000
C070001C00
C0C0000600
C380000380
C6000000C0
C400000060
C800000060
D800000030
D000000018
F000000018
E000000008
E00000000C
C000000004
C000000004
C000000006
C000000006
C000000006
C000000006
C000000006
C000000006
C000000006
C000000006
C000000006
C000000006
C000000004
C00000000C
E00000000C
E000000008
F000000018
D000000010
D800000030
CC00000060
C6000000C0
C300000180
C180000300
C0E0000E00
C078003C00
C01F01F000
C003FF8000
ENDCHAR
STARTCHAR 0063
ENCODING 99
SWIDTH 540 0
DWIDTH 42 0
BBX 34 40 4 0
BITMAP
0003FFC000
001F00F800
0078001E00
00C0000700
0180000180
03000000C0
0600000040
0C00000000
1800000000
1000000000
3000000000
2000000000
6000000000
6000000000
4000000000
4000000000
C000000000
C000000000
C000000000
C000000000
C000000000
C000000000
C000000000
C000000000
4000000000
4000000000
6000000000
6000000000
3000000000
3000000000
1800000000
1800000000
0C00000000
0600000040
03000000C0
0180000380
00E0000700
0038001C00
001F81F000
0003FF8000
ENDCHAR
STARTCHAR 0064
ENCODING 100
SWIDTH 668 0
DWIDTH 52 0
BBX 39 58 4 0
BITMAP
0000000002
0000000002
0000000002
0000000002
0000000002
0000000002
0000000002
0000000002
0000000002
0000000002
0000000002
0000000002
0000000002
0000000002
0000000002
0000000002
0000000002
0000000002
0007FFC002
001F00F002
0070001C02
00C0000702
0180000182
03000000C2
0600000062
0C00000022
1800000032
100000001A
300000000A
200000000E
600000000E
6000000006
4000000006
4000000006
C000000006
C000000002
C000000002
C000000002
C000000002
C000000002
C000000002
C000000006
4000000006
4000000006
6000000006
600000000E
300000000A
300000001A
1800000012
1800000032
0C00000062
0600000042
0300000182
0180000382
00E0000602
0038001C02
001F81F002
0003FF8002
ENDCHAR
STARTCHAR 0065
ENCODING 101
SWIDTH 578 0
DWIDTH 45 0
BBX 37 40 4 0
BITMAP
0007FF8000
003E01E000
0070003800
01C0000C00
0300000700
0600000300
0C00000180
0C000000C0
1800000060
3000000060
3000000030
2000000030
6000000010
4000000018
4000000018
4000000008
C000000008
C000000008
FFFFFFFFF8
FFFFFFFFF8
C000000000
C000000000
C000000000
C000000000
4000000000
4000000000
6000000000
6000000000
2000000000
3000000000
1800000000
1800000000
0C00000000
0600000060
03000000C0
0180000180
00E0000700
0038001E00
000F81F800
0003FFC000
ENDCHAR
STARTCHAR 0066
ENCODING 102
SWIDTH 308 0
DWIDTH 24 0
BBX 25 58 2 0
BITMAP
0003F800
000FFE00
00380380
00600180
00600000
00C00000
00C00000
00800000
00800000
00800000
00800000
00800000
00800000
00800000
00800000
00800000
00800000
00800000
FFFFFE00
00800000
00800000
00800000
00800000
00800000
00800000
00800000
00800000
00800000
00800000
00800000
00800000
00800000
00800000
00800000
00800000
00800000
00800000
00800000
00800000
00800000
00800000
00800000
00800000
00800000
00800000
00800000
00800000
00800000
00800000
00800000
00800000
00800000
00800000
00800000
00800000
00800000
00800000
00800000
ENDCHAR
STARTCHAR 0067
ENCODING 103
SWIDTH 668 0
DWIDTH 52 0
BBX 40 55 4 -15
BITMAP
0007FFC003
001F00F803
0070000E03
00C0000303
0380000183
07000000C3
0E00000063
0C00000033
180000001B
300000000B
300000000F
2000000007
6000000007
4000000007
4000000003
C000000003
C000000003
C000000003
C000000003
C000000003
C000000003
C000000003
C000000003
4000000003
4000000007
6000000007
6000000007
300000000F
300000000B
180000001B
0800000033
0C00000023
0600000063
03800001C3
01C0000383
0070000E03
003E007803
0007FFE003
00007E0003
0000000003
0000000002
0000000002
0000000002
0000000006
0000000006
0000000004
000000000C
0000000008
1800000018
0E00000030
0700000060
01C00000C0
00F8000380
001F803E00
0003FFF000
ENDCHAR
STARTCHAR 0068
ENCODING 104
SWIDTH 655 0
DWIDTH 51 0
BBX 34 58 9 0
BITMAP
C000000000
C000000000
C000000000
C000000000
C000000000
C000000000
C000000000
C000000000
C000000000
C000000000
C000000000
C000000000
C000000000
C000000000
C000000000
C000000000
C000000000
C000000000
C00FFF8000
C07C01E000
C0E0003800
C380001C00
C600000600
CC00000300
C800000300
D800000180
F000000180
E0000000C0
E0000000C0
E0000000C0
C000000040
C000000040
C000000040
C000000040
C000000040
C000000040
C000000040
C000000040
C000000040
C000000040
C000000040
C000000040
C000000040
C000000040
C000000040
C000000040
C000000040
C000000040
C000000040
C000000040
C000000040
C000000040
C000000040
C000000040
C000000040
C000000040
C000000040
C000000040
ENDCHAR
STARTCHAR 0069
ENCODING 105
SWIDTH 244 0
DWIDTH 19 0
BBX 4 55 8 0
BITMAP
E0
F0
F0
60
00
00
00
00
00
00
00
00
00
00
00
60
60
60
60
60
60
60
60
60
60
60
60
60
60
60
60
60
60
60
60
60
60
60
60
60
60
60
60
60
60
60
60
60
60
60
60
60
60
60
60
ENDCHAR
STARTCHAR 006A
ENCODING 106
SWIDTH 244 0
DWIDTH 19 0
BBX 19 70 -7 -15
BITMAP
0001E0
0001E0
0001E0
0000C0
000000
000000
000000
000000
000000
000000
000000
000000
000000
000000
000000
0000C0
0000C0
0000C0
0000C0
0000C0
0000C0
0000C0
0000C0
0000C0
0000C0
0000C0
0000C0
0000C0
0000C0
0000C0
0000C0
0000C0
0000C0
0000C0
0000C0
0000C0
0000C0
0000C0
0000C0
0000C0
0000C0
0000C0
0000C0
0000C0
0000C0
0000C0
0000C0
0000C0
0000C0
0000C0
0000C0
0000C0
0000C0
0000C0
0000C0
0000C0
0000C0
0000C0
0000C0
0000C0
0000C0
0000C0
0000C0
0000C0
000080
000180
400300
E00700
3C1C00
0FF800
ENDCHAR
STARTCHAR 006B
ENCODING 107
SWIDTH 565 0
DWIDTH 44 0
BBX 34 58 9 0
BITMAP
C000000000
C000000000
C000000000
C000000000
C000000000
C000000000
C000000000
C000000000
C000000000
C000000000
C000000000
C000000000
C000000000
C000000000
C000000000
C000000000
C000000000
C000000000
C000000700
C000000C00
C000001800
C000003000
C000006000
C00000C000
C000018000
C000070000
C0000E0000
C0001C0000
C000300000
C000600000
C000C00000
C001800000
C003000000
C006000000
C00E000000
C03B000000
C061800000
C0C0C00000
C180C00000
C300600000
C600300000
CC00180000
D8000C0000
F0000C0000
E000060000
C000030000
C000018000
C00000C000
C00000C000
C000006000
C000003000
C000001800
C000000C00
C000000C00
C000000600
C000000300
C000000180
C0000000C0
ENDCHAR
STARTCHAR 006C
ENCODING 108
SWIDTH 244 0
DWIDTH 19 0
BBX 2 58 9 0
BITMAP
C0
C0
C0
C0
C0
C0
C0
C0
C0
C0
C0
C0
C0
C0
C0
C0
C0
C0
C0
C0
C0
C0
C0
C0
C0
C0
C0
C0
C0
C0
C0
C0
C0
C0
C0
C0
C0
C0
C0
C0
C0
C0
C0
C0
C0
C0
C0
C0
C0
C0
C0
C0
C0
C0
C0
C0
C0
C0
ENDCHAR
STARTCHAR 006D
ENCODING 109
SWIDTH 1067 0
DWIDTH 83 0
BBX 66 40 9 0
BITMAP
C00FFF00000FFF0000
C07C03C0007C03C000
C1C0007000E0007000
C38000180380001800
C600000C0600000C00
CC0000060C00000600
D80000020800000200
D80000031800000300
F00000013000000100
E0000001A000000180
E0000001E000000180
E0000000E000000080
C0000000C000000080
C0000000C000000080
C0000000C0000000C0
C0000000C0000000C0
C0000000C0000000C0
C0000000C0000000C0
C0000000C0000000C0
C0000000C0000000C0
C0000000C0000000C0
C0000000C0000000C0
C0000000C0000000C0
C0000000C0000000C0
C0000000C0000000C0
C0000000C0000000C0
C0000000C0000000C0
C0000000C0000000C0
C0000000C0000000C0
C0000000C0000000C0
C0000000C0000000C0
C0000000C0000000C0
C0000000C0000000C0
C0000000C0000000C0
C0000000C0000000C0
C0000000C0000000C0
C0000000C0000000C0
C0000000C0000000C0
C0000000C0000000C0
C0000000C0000000C0
ENDCHAR
STARTCHAR 006E
ENCODING 110
SWIDTH 655 0
DWIDTH 51 0
BBX 34 40 9 0
BITMAP
C00FFF8000
C07C01E000
C0E0003800
C380001C00
C600000600
CC00000300
C800000300
D800000180
F000000180
E0000000C0
E0000000C0
E0000000C0
C000000040
C000000040
C000000040
C000000040
C000000040
C000000040
C000000040
C000000040
C000000040
C000000040
C000000040
C000000040
C000000040
C000000040
C000000040
C000000040
C000000040
C000000040
C000000040
C000000040
C000000040
C000000040
C000000040
C000000040
C000000040
C000000040
C000000040
C000000040
ENDCHAR
STARTCHAR 006F
ENCODING 111
SWIDTH 604 0
DWIDTH 47 0
BBX 39 40 4 0
BITMAP
0007FFC000
001F00F800
0070001C00
00C0000700
0180000180
03000000C0
0600000060
0C00000030
1800000030
1000000018
3000000008
200000000C
600000000C
6000000004
4000000006
4000000006
C000000006
C000000002
C000000002
C000000002
C000000002
C000000002
C000000002
C000000006
4000000006
4000000006
6000000004
600000000C
300000000C
3000000018
1800000018
1800000030
0C00000060
0600000060
03000001C0
0180000380
00E0000600
0078001C00
001F81F000
0003FF8000
ENDCHAR
STARTCHAR 0070
ENCODING 112
SWIDTH 668 0
DWIDTH 52 0
BBX 39 55 9 -15
BITMAP
C007FFC000
C01E00F000
C070001C00
C0C0000600
C380000380
C6000001C0
C4000000C0
CC00000060
D800000030
D000000010
F000000018
E000000008
E00000000C
C000000004
C000000004
C000000006
C000000006
C000000006
C000000006
C000000006
C000000006
C000000006
C000000006
C000000006
C000000006
C000000004
C00000000C
E00000000C
E000000008
F000000018
D000000010
D800000030
CC00000060
C6000000C0
C300000180
C180000300
C0C0000E00
C078003C00
C01F01F000
C003FF8000
C000000000
C000000000
C000000000
C000000000
C000000000
C000000000
C000000000
C000000000
C000000000
C000000000
C000000000
C000000000
C000000000
C000000000
C000000000
ENDCHAR
STARTCHAR 0071
ENCODING 113
SWIDTH 668 0
DWIDTH 52 0
BBX 39 55 4 -15
BITMAP
0007FFC002
001F00F002
0070001C02
00C0000702
0180000382
03000000C2
0600000062
0C00000022
1800000032
100000001A
300000000A
200000000A
600000000E
6000000006
4000000006
4000000006
C000000006
C000000002
C000000002
C000000002
C000000002
C000000002
C000000002
C000000006
4000000006
4000000006
6000000006
600000000E
300000000A
300000001A
1800000012
1800000032
0C00000062
0600000042
03000000C2
0180000302
00E0000602
0038001C02
001F81F002
0003FF8002
0000000002
0000000002
0000000002
0000000002
0000000002
0000000002
0000000002
0000000002
0000000002
0000000002
0000000002
0000000002
0000000002
0000000002
0000000002
ENDCHAR
STARTCHAR 0072
ENCODING 114
SWIDTH 372 0
DWIDTH 29 0
BBX 17 40 9 0
BITMAP
C01F80
C07800
C1C000
C30000
C60000
CC0000
D80000
D00000
F00000
E00000
E00000
C00000
C00000
C00000
C00000
C00000
C00000
C00000
C00000
C00000
C00000
C00000
C00000
C00000
C00000
C00000
C00000
C00000
C00000
C00000
C00000
C00000
C00000
C00000
C00000
C00000
C00000
C00000
C00000
C00000
ENDCHAR
STARTCHAR 0073
ENCODING 115
SWIDTH 462 0
DWIDTH 36 0
BBX 30 40 3 0
BITMAP
007FFC00
03E00F80
060001E0
0C000030
18000010
30000000
20000000
60000000
60000000
60000000
60000000
60000000
60000000
20000000
30000000
18000000
0C000000
07800000
01F00000
007F8000
0003FC00
00001F00
000001C0
00000070
00000038
00000018
0000000C
0000000C
0000000C
00000004
00000004
0000000C
0000000C
00000008
C0000018
E0000030
38000060
1E0001C0
07F01F00
007FFC00
ENDCHAR
STARTCHAR 0074
ENCODING 116
SWIDTH 385 0
DWIDTH 30 0
BBX 25 49 2 0
BITMAP
00800000
00800000
00800000
00800000
00800000
00800000
00800000
00800000
00800000
FFFFFE00
00800000
00800000
00800000
00800000
00800000
00800000
00800000
00800000
00800000
00800000
00800000
00800000
00800000
00800000
00800000
00800000
00800000
00800000
00800000
00800000
00800000
00800000
00800000
00800000
00800000
00800000
00800000
00800000
00800000
00800000
00800000
00800000
00C00000
00C00000
00400000
00600000
00300380
001E0F00
0007FC00
ENDCHAR
STARTCHAR 0075
ENCODING 117
SWIDTH 655 0
DWIDTH 51 0
BBX 35 40 8 0
BITMAP
C000000060
C000000060
C000000060
C000000060
C000000060
C000000060
C000000060
C000000060
C000000060
C000000060
C000000060
C000000060
C000000060
C000000060
C000000060
C000000060
C000000060
C000000060
C000000060
C000000060
C000000060
C000000060
C000000060
C000000060
C000000060
4000000060
4000000060
40000000E0
60000000E0
60000000E0
60000001E0
3000000160
3000000360
1800000660
0C00000C60
0E00001860
0700003060
01C000E060
00FC0F8060
001FFE0060
ENDCHAR
STARTCHAR 0076
ENCODING 118
SWIDTH 501 0
DWIDTH 39 0
BBX 38 40 1 0
BITMAP
C00000000C
C000000018
4000000018
6000000010
2000000030
3000000020
1000000060
1800000060
18000000C0
0C000000C0
0C00000180
0600000180
0600000300
0300000300
0300000200
0100000600
0180000400
0080000C00
00C0000800
0040001800
0060001800
0060003000
0030003000
0030006000
0018006000
0018004000
000800C000
000C008000
0004018000
0006010000
0002030000
0003020000
0001060000
0001860000
00018C0000
0000CC0000
0000C80000
0000580000
0000700000
0000300000
ENDCHAR
STARTCHAR 0077
ENCODING 119
SWIDTH 835 0
DWIDTH 65 0
BBX 63 40 1 0
BITMAP
C000000180000006
4000000380000006
6000000280000004
60000006C000000C
2000000640000008
3000000460000018
1000000C60000018
1000000820000010
1800001830000030
0800001830000030
0C00001010000020
0C00003018000060
0400002008000040
060000200C0000C0
020000600C0000C0
0200004004000080
030000C006000180
010000C002000100
0180008003000300
0080018003000300
0080010001000200
00C0030001800600
0040030000800600
0040020000800400
0060060000C00C00
0020040000400800
00300C0000601800
00100C0000601800
0010080000201000
0018180000303000
0008100000102000
000C100000182000
0004300000186000
0004200000084000
00066000000CC000
000260000004C000
0002400000048000
0003C00000078000
0001800000030000
0001800000030000
ENDCHAR
STARTCHAR 0078
ENCODING 120
SWIDTH 488 0
DWIDTH 38 0
BBX 33 40 3 0
BITMAP
6000000300
6000000600
3000000C00
1800000C00
0C00001800
0600003000
0600006000
0300004000
018000C000
00C0018000
0040030000
0060060000
0030040000
00180C0000
000C180000
000C300000
0006600000
0003600000
0001C00000
0001800000
0003C00000
0002600000
0006300000
000C180000
0018080000
00300C0000
0030060000
0060030000
00C0018000
0180018000
010000C000
0300006000
0600003000
0C00003000
1800001800
1800000C00
3000000600
6000000300
C000000300
C000000180
ENDCHAR
STARTCHAR 0079
ENCODING 121
SWIDTH 501 0
DWIDTH 39 0
BBX 41 55 -2 -15
BITMAP
180000000180
180000000300
080000000300
0C0000000200
040000000600
060000000400
020000000C00
030000000C00
030000001800
018000001800
018000003000
00C000003000
00C000006000
006000006000
006000004000
00200000C000
003000008000
001000018000
001800010000
000800030000
000C00030000
000C00060000
000600060000
0006000C0000
0003000C0000
000300080000
000100180000
000180100000
000080300000
0000C0200000
000040600000
000060600000
000020C00000
000030C00000
000031800000
000019800000
000019000000
00000B000000
00000E000000
000006000000
000004000000
00000C000000
000008000000
000018000000
000018000000
000030000000
000030000000
000060000000
000060000000
0000C0000000
000180000000
C00380000000
E00700000000
3C1C00000000
0FF800000000
ENDCHAR
STARTCHAR 007A
ENCODING 122
SWIDTH 488 0
DWIDTH 38 0
BBX 30 40 4 0
BITMAP
FFFFFFFC
0000000C
00000018
00000030
00000060
00000060
000000C0
00000180
00000300
00000300
00000600
00000C00
00001800
00001800
00003000
00006000
0000C000
0000C000
00018000
00030000
00060000
00060000
000C0000
00180000
00300000
00300000
00600000
00C00000
01800000
01800000
03000000
06000000
0C000000
0C000000
18000000
30000000
60000000
60000000
C0000000
FFFFFFFC
ENDCHAR
STARTCHAR 007B
ENCODING 123
SWIDTH 295 0
DWIDTH 23 0
BBX 16 73 5 -15
BITMAP
0007
007F
00C0
0180
0180
0100
0300
0300
0300
0300
0300
0300
0300
0300
0300
0300
0300
0300
0300
0300
0300
0300
0300
0300
0300
0300
0300
0300
0300
0300
0300
0300
0300
0300
0200
0600
FC00
1E00
0600
0300
0300
0300
0300
0300
0300
0300
0300
0300
0300
0300
0300
0300
0300
0300
0300
0300
0300
0300
0300
0300
0300
0300
0300
0300
0300
0300
0300
0300
0100
0180
00C0
0078
001F
ENDCHAR
STARTCHAR 007C
ENCODING 124
SWIDTH 282 0
DWIDTH 22 0
BBX 2 73 10 -15
BITMAP
C0
C0
C0
C0
C0
C0
C0
C0
C0
C0
C0
C0
C0
C0
C0
C0
C0
C0
C0
C0
C0
C0
C0
C0
C0
C0
C0
C0
C0
C0
C0
C0
C0
C0
C0
C0
C0
C0
C0
C0
C0
C0
C0
C0
C0
C0
C0
C0
C0
C0
C0
C0
C0
C0
C0
C0
C0
C0
C0
C0
C0
C0
C0
C0
C0
C0
C0
C0
C0
C0
C0
C0
C0
ENDCHAR
STARTCHAR 007D
ENCODING 125
SWIDTH 295 0
DWIDTH 23 0
BBX 16 73 2 -15
BITMAP
F000
FE00
0300
0180
0080
00C0
00C0
00C0
00C0
00C0
00C0
00C0
00C0
00C0
00C0
00C0
00C0
00C0
00C0
00C0
00C0
00C0
00C0
00C0
00C0
00C0
00C0
00C0
00C0
00C0
00C0
00C0
0040
0040
0060
0070
001F
0038
0060
0040
0040
00C0
00C0
00C0
00C0
00C0
00C0
00C0
00C0
00C0
00C0
00C0
00C0
00C0
00C0
00C0
00C0
00C0
00C0
00C0
00C0
00C0
00C0
00C0
00C0
00C0
00C0
00C0
00C0
0180
0380
1F00
FC00
ENDCHAR
STARTCHAR 007E
ENCODING 126
SWIDTH 552 0
DWIDTH 43 0
BBX 33 10 5 22
BITMAP
07F8000080
0E1C000080
1806000180
3003800180
6001C00100
6000E00300
4000700600
4000180C00
C0000FF800
C00001E000
ENDCHAR
STARTCHAR 00A0
ENCODING 160
SWIDTH 244 0
DWIDTH 19 0
BBX 0 0 0 0
BITMAP
ENDCHAR
STARTCHAR 00A1
ENCODING 161
SWIDTH 231 0
DWIDTH 18 0
BBX 4 52 7 -12
BITMAP
70
F0
70
20
00
00
00
00
00
00
00
00
00
00
20
20
20
20
20
20
20
20
20
20
20
20
20
20
20
20
20
20
20
20
20
20
20
20
20
20
20
20
20
20
20
20
20
20
20
20
20
20
ENDCHAR
STARTCHAR 00A2
ENCODING 162
SWIDTH 540 0
DWIDTH 42 0
BBX 34 59 4 -9
BITMAP
0000100000
0000100000
0000100000
0000100000
0000100000
0000100000
0000100000
0000100000
0000100000
0000100000
0003FFC000
001F10F800
0078101E00
00C0100700
0180100180
03001000C0
0600100040
0C00100000
1800100000
1000100000
3000100000
2000100000
6000100000
6000100000
4000100000
4000100000
C000100000
C000100000
C000100000
C000100000
C000100000
C000100000
C000100000
C000100000
4000100000
4000100000
6000100000
6000100000
3000100000
3000100000
1800100000
1800100000
0C00100000
0600100040
03001000C0
0180100380
00E0100700
0038101C00
001F91F000
0003FF8000
0000100000
0000100000
0000100000
0000100000
0000100000
0000100000
0000100000
0000100000
0000100000
ENDCHAR
STARTCHAR 00A3
ENCODING 163
SWIDTH 617 0
DWIDTH 48 0
BBX 44 55 2 0
BITMAP
0000007F0000
00000FFFFC00
00003C001F00
0000E00001C0
000180000070
000300000010
000600000000
000C00000000
000C00000000
001800000000
001000000000
003000000000
003000000000
003000000000
002000000000
002000000000
002000000000
002000000000
002000000000
002000000000
002000000000
002000000000
002000000000
002000000000
002000000000
002000000000
002000000000
FFFFFFFFC000
002000000000
002000000000
002000000000
002000000000
002000000000
002000000000
002000000000
002000000000
002000000000
002000000000
002000000000
002000000000
002000000000
002000000000
002000000000
002000000000
002000000000
002000000000
002000000000
002000000000
002000000000
002000000000
002000000000
002000000000
002000000000
002000000000
FFFFFFFFFFF0
ENDCHAR
STARTCHAR 00A4
ENCODING 164
SWIDTH 694 0
DWIDTH 54 0
BBX 48 48 3 0
BITMAP
400000000001
E00000000003
700000000006
380007F0000C
1C007FFF0018
0E03E003C030
070700007060
039C000018C0
01F000000F80
00E000000700
00C000000180
0180000000C0
0300000000C0
020000000060
060000000030
0C0000000030
0C0000000018
080000000018
180000000008
18000000000C
10000000000C
10000000000C
300000000004
300000000004
300000000004
300000000004
100000000004
10000000000C
10000000000C
18000000000C
180000000008
080000000018
0C0000000018
040000000030
060000000020
030000000060
0300000000C0
018000000180
00C000000380
00F000000780
01B800000DC0
030E000038E0
06078000E070
0C01F00F8038
18003FFE001C
30000000000E
600000000006
C00000000003
ENDCHAR
STARTCHAR 00A5
ENCODING 165
SWIDTH 668 0
DWIDTH 52 0
BBX 50 54 1 0
BITMAP
C00000000000C0
60000000000180
30000000000300
18000000000600
08000000000600
0C000000000C00
06000000001800
03000000003000
01800000002000
01800000006000
00C0000000C000
00600000018000
00300000030000
00100000030000
00180000060000
000C00000C0000
00060000180000
00030000300000
00030000300000
00018000600000
0000C000C00000
00006001800000
00003001800000
00003003000000
00001806000000
00000C0C000000
00000618000000
00000618000000
00000330000000
000001E0000000
03FFFFFFFFF800
000000C0000000
000000C0000000
000000C0000000
000000C0000000
000000C0000000
000000C0000000
000000C0000000
000000C0000000
000000C0000000
03FFFFFFFFF800
03FFFFFFFFF800
000000C0000000
000000C0000000
000000C0000000
000000C0000000
000000C0000000
000000C0000000
000000C0000000
000000C0000000
000000C0000000
000000C0000000
000000C0000000
000000C0000000
ENDCHAR
STARTCHAR 00A6
ENCODING 166
SWIDTH 282 0
DWIDTH 22 0
BBX 2 73 10 -15
BITMAP
C0
C0
C0
C0
C0
C0
C0
C0
C0
C0
C0
C0
C0
C0
C0
C0
C0
C0
C0
C0
C0
C0
C0
C0
C0
C0
C0
C0
00
00
00
00
00
00
00
00
00
00
00
00
00
00
00
00
00
00
C0
C0
C0
C0
C0
C0
C0
C0
C0
C0
C0
C0
C0
C0
C0
C0
C0
C0
C0
C0
C0
C0
C0
C0
C0
C0
C0
ENDCHAR
STARTCHAR 00A7
ENCODING 167
SWIDTH 462 0
DWIDTH 36 0
BBX 32 63 2 -8
BITMAP
0000F800
001FFFC0
00F000F8
01C0001C
03000007
06000000
0C000000
0C000000
08000000
08000000
18000000
18000000
18000000
08000000
0C000000
0C000000
06000000
03000000
01800000
00F00000
007E0000
01C7C000
0700FC00
0C000F80
180001E0
10000070
30000018
2000000C
20000006
20000006
20000002
20000002
20000002
30000002
30000002
18000002
0C000006
0E000004
0380000C
01F00018
003E0030
0007E0E0
00007F80
00000700
000001C0
00000060
00000030
00000018
00000018
00000008
00000008
0000000C
0000000C
0000000C
00000008
00000018
40000018
E0000030
30000030
1C0000E0
07800380
01FEFF00
001FF800
ENDCHAR
STARTCHAR 00A8
ENCODING 168
SWIDTH 591 0
DWIDTH 46 0
BBX 17 4 15 50
BITMAP
600300
F00780
F00780
600700
ENDCHAR
STARTCHAR 00A9
ENCODING 169
SWIDTH 822 0
DWIDTH 64 0
BBX 54 55 5 0
BITMAP
000000FC000000
00001FFFF00000
0000F8007C0000
0003C000070000
000E000001C000
00180000007000
00700000003800
00E00000000C00
01800000000600
03000000000300
02000000000180
06000078000080
0C0007FFC000C0
18001E00F00060
18003800380020
300060000C0030
3000C000060010
60018000020018
60030000000018
40020000000008
C006000000000C
C004000000000C
C00C0000000004
800C0000000004
80080000000004
80080000000004
80080000000004
80080000000004
80080000000004
80080000000004
800C0000000004
800C0000000004
800C0000000004
C00C000000000C
C006000000000C
40060000000008
60030000000008
60030000000018
20018000020010
3000C000060030
100070001C0020
18003800780060
0C000FC3E00040
0C0001FF0000C0
06000000000180
03000000000300
01800000000600
00C00000000C00
00600000001800
00380000007000
001C000000E000
00070000038000
0001E0001E0000
00007E01F80000
00000FFFC00000
ENDCHAR
STARTCHAR 00AA
ENCODING 170
SWIDTH 385 0
DWIDTH 30 0
BBX 20 24 4 34
BITMAP
01FC00
0FFF80
3801C0
600060
400020
000030
000030
000010
000010
000010
000010
03FFF0
1F0010
700010
400010
C00010
800010
800010
800030
C00070
C00050
600190
380710
0FFC10
ENDCHAR
STARTCHAR 00AB
ENCODING 171
SWIDTH 411 0
DWIDTH 32 0
BBX 24 29 5 6
BITMAP
001801
003003
006006
00400C
00C018
018010
030030
060060
0400C0
0C0180
180100
300300
600600
400C00
C01800
C00C00
600C00
200600
300300
180180
0C00C0
0600C0
020060
030030
018018
00C008
00600C
002006
003003
ENDCHAR
STARTCHAR 00AC
ENCODING 172
SWIDTH 552 0
DWIDTH 43 0
BBX 32 16 6 12
BITMAP
FFFFFFFF
FFFFFFFF
00000003
00000003
00000003
00000003
00000003
00000003
00000003
00000003
00000003
00000003
00000003
00000003
00000003
00000003
ENDCHAR
STARTCHAR 00AD
ENCODING 173
SWIDTH 372 0
DWIDTH 29 0
BBX 20 1 5 20
BITMAP
FFFFF0
ENDCHAR
STARTCHAR 00AE
ENCODING 174
SWIDTH 822 0
DWIDTH 64 0
BBX 54 55 5 0
BITMAP
000000FC000000
00001FFFF00000
0000F8007C0000
0003C000070000
000E000001C000
00180000007000
00700000003800
00E00000000C00
01800000000600
03000000000300
02000000000180
06000000000080
0C007FFFC000C0
18004000F00060
18004000180020
300040000C0030
30004000060010
60004000030018
60004000030018
40004000010008
C000400001000C
C000400001800C
C0004000018004
80004000010004
80004000010004
80004000030004
80004000030004
80004000060004
800040000C0004
80004000180004
80004000F00004
80007FFFC00004
80006001800004
C0006000C0000C
C000600040000C
40006000600008
60006000300008
60006000100018
20006000180010
300060000C0030
100060000C0020
18006000060060
0C006000030040
0C0060000300C0
06000000000180
03000000000300
01800000000600
00C00000000C00
00600000001800
00380000007000
001C000000E000
00070000038000
0001E0001E0000
00007E01F80000
00000FFFC00000
ENDCHAR
STARTCHAR 00AF
ENCODING 175
SWIDTH 591 0
DWIDTH 46 0
BBX 21 1 13 51
BITMAP
FFFFF8
ENDCHAR
STARTCHAR 00B0
ENCODING 176
SWIDTH 411 0
DWIDTH 32 0
BBX 23 24 5 31
BITMAP
003800
03FF80
0E01C0
1C0060
300030
200018
60000C
C0000C
C00004
800006
800006
800006
800006
800006
800006
C00004
40000C
60000C
200018
300030
1C0060
0E01C0
03FF00
003800
ENDCHAR
STARTCHAR 00B1
ENCODING 177
SWIDTH 552 0
DWIDTH 43 0
BBX 32 43 6 0
BITMAP
00018000
00018000
00018000
00018000
00018000
00018000
00018000
00018000
00018000
00018000
00018000
00018000
00018000
00018000
00018000
FFFFFFFF
FFFFFFFF
00018000
00018000
00018000
00018000
00018000
00018000
00018000
00018000
00018000
00018000
00018000
00018000
00018000
00018000
00000000
00000000
00000000
00000000
00000000
00000000
00000000
00000000
00000000
00000000
00000000
FFFFFFFF
ENDCHAR
STARTCHAR 00B2
ENCODING 178
SWIDTH 424 0
DWIDTH 33 0
BBX 26 33 3 25
BITMAP
00FF0000
0FFFE000
3C003800
60000C00
C0000600
00000200
00000300
00000300
00000300
00000300
00000300
00000200
00000600
00000C00
00000800
00001800
00003000
00006000
0000C000
00030000
00060000
000C0000
00180000
00300000
00600000
00C00000
01800000
07000000
0C000000
18000000
30000000
7FFFFFC0
7FFFFFC0
ENDCHAR
STARTCHAR 00B3
ENCODING 179
SWIDTH 424 0
DWIDTH 33 0
BBX 25 33 3 25
BITMAP
FFFFFF00
FFFFFF00
00000600
00000C00
00001800
00003000
00006000
00004000
0000C000
00018000
00030000
00060000
000C0000
00180000
00300000
003FE000
00003800
00000C00
00000600
00000300
00000180
00000180
00000080
00000080
00000080
00000180
00000180
00000100
E0000300
70000600
1E001800
07FFF000
003F0000
ENDCHAR
STARTCHAR 00B4
ENCODING 180
SWIDTH 591 0
DWIDTH 46 0
BBX 13 9 20 47
BITMAP
0038
0070
00E0
0180
0700
0E00
1800
7000
E000
ENDCHAR
STARTCHAR 00B5
ENCODING 181
SWIDTH 668 0
DWIDTH 52 0
BBX 34 55 9 -15
BITMAP
C000000040
C000000040
C000000040
C000000040
C000000040
C000000040
C000000040
C000000040
C000000040
C000000040
C000000040
C000000040
C000000040
C000000040
C000000040
C000000040
C000000040
C000000040
C000000040
C000000040
C000000040
C000000040
C000000040
C000000040
C0000000C0
C0000000C0
C0000000C0
C0000000C0
C0000000C0
C0000001C0
E000000140
E000000340
F000000240
F000000440
D800000C40
CC00001840
C600007040
C38001C040
C0F81F8040
C01FFC0040
C000000000
C000000000
C000000000
C000000000
C000000000
C000000000
C000000000
C000000000
C000000000
C000000000
C000000000
C000000000
C000000000
C000000000
C000000000
ENDCHAR
STARTCHAR 00B6
ENCODING 182
SWIDTH 591 0
DWIDTH 46 0
BBX 34 66 2 -8
BITMAP
0007FFFFC0
00FFFFFFC0
03FF800040
0FFF800040
1FFF800040
3FFF800040
3FFF800040
7FFF800040
7FFF800040
FFFF800040
FFFF800040
FFFF800040
FFFF800040
FFFF800040
FFFF800040
FFFF800040
FFFF800040
7FFF800040
7FFF800040
3FFF800040
1FFF800040
0FFF800040
07FF800040
01FF800040
007F800040
0001800040
0001800040
0001800040
0001800040
0001800040
0001800040
0001800040
0001800040
0001800040
0001800040
0001800040
0001800040
0001800040
0001800040
0001800040
0001800040
0001800040
0001800040
0001800040
0001800040
0001800040
0001800040
0001800040
0001800040
0001800040
0001800040
0001800040
0001800040
0001800040
0001800040
0001800040
0001800040
0001800040
0001800040
0001800040
0001800040
0001800040
0001800040
0001800040
0001800040
0001800040
ENDCHAR
STARTCHAR 00B7
ENCODING 183
SWIDTH 218 0
DWIDTH 17 0
BBX 4 4 7 19
BITMAP
40
E0
F0
E0
ENDCHAR
STARTCHAR 00B8
ENCODING 184
SWIDTH 591 0
DWIDTH 46 0
BBX 13 17 16 -17
BITMAP
0300
0300
0200
0600
0700
07E0
0070
0010
0018
0008
0008
0018
0018
0030
E070
3FC0
0600
ENDCHAR
STARTCHAR 00B9
ENCODING 185
SWIDTH 424 0
DWIDTH 33 0
BBX 21 33 7 25
BITMAP
7FF000
7FF000
003000
003000
003000
003000
003000
003000
003000
003000
003000
003000
003000
003000
003000
003000
003000
003000
003000
003000
003000
003000
003000
003000
003000
003000
003000
003000
003000
003000
003000
FFFFF8
FFFFF8
ENDCHAR
STARTCHAR 00BA
ENCODING 186
SWIDTH 398 0
DWIDTH 31 0
BBX 25 24 3 34
BITMAP
007F0000
01FFE000
07003800
0C000C00
18000600
30000300
60000300
60000180
40000180
C0000080
C0000080
C0000080
C0000080
C0000080
C0000080
C0000080
40000180
60000100
20000300
30000600
18000C00
0E001800
0380F000
00FFC000
ENDCHAR
STARTCHAR 00BB
ENCODING 187
SWIDTH 411 0
DWIDTH 32 0
BBX 24 29 4 6
BITMAP
801800
C00C00
600600
300200
180300
180180
0C00C0
060060
030020
010030
018018
00C00C
006006
003006
001003
003003
002006
00600C
00C00C
018018
030030
020060
0600C0
0C00C0
180180
300300
200600
600400
C00C00
ENDCHAR
STARTCHAR 00BC
ENCODING 188
SWIDTH 1015 0
DWIDTH 79 0
BBX 70 54 7 0
BITMAP
7FF000000000300000
003000000000600000
003000000000C00000
003000000000800000
003000000001800000
003000000003000000
003000000002000000
003000000006000000
00300000000C000000
003000000008000000
003000000018000000
003000000030000000
003000000020000000
003000000060000000
0030000000C0000000
003000000080000000
003000000180000000
003000000300000000
003000000600000000
003000000600000000
003000000C00000000
003000001800000000
003000001000003000
003000003000006000
00300000600000C000
003000004000008000
00300000C000018000
003000018000030000
003000010000060000
0030000300000C0000
FFFFF80600000C0000
FFFFF8040000180000
0000000C0000300000
000000180000600000
000000100000400000
000000300000C00C00
000000600001800C00
000000C00003000C00
000000C00002000C00
000001800006000C00
00000300000C000C00
000002000018000C00
000006000010000C00
00000C00003FFFFFFC
00000800003FFFFFFC
000018000000000C00
000030000000000C00
000020000000000C00
000060000000000C00
0000C0000000000C00
000080000000000C00
000180000000000C00
000300000000000C00
000200000000000C00
ENDCHAR
STARTCHAR 00BD
ENCODING 189
SWIDTH 1015 0
DWIDTH 79 0
BBX 68 54 7 0
BITMAP
7FF000000000300000
003000000000600000
003000000000C00000
003000000000800000
003000000001800000
003000000003000000
003000000002000000
003000000006000000
00300000000C000000
003000000008000000
003000000018000000
003000000030000000
003000000020000000
003000000060000000
0030000000C0000000
003000000080000000
003000000180000000
003000000300000000
003000000600000000
003000000600000000
003000000C00000000
003000001800000000
003000001001FFF000
003000003007801C00
00300000601C000600
003000004030000300
00300000C000000180
003000018000000080
0030000100000000C0
0030000300000000C0
FFFFF80600000000C0
FFFFF80400000000C0
0000000C0000000080
000000180000000180
000000100000000100
000000300000000300
000000600000000600
000000C00000000C00
000000C00000001800
000001800000003000
000003000000006000
00000200000000C000
000006000000018000
00000C000000070000
0000080000000C0000
000018000000180000
000030000000300000
000020000000600000
000060000000C00000
0000C0000001800000
000080000003000000
00018000000E000000
000300000018000000
00020000001FFFFFF0
ENDCHAR
STARTCHAR 00BE
ENCODING 190
SWIDTH 1015 0
DWIDTH 79 0
BBX 74 54 3 0
BITMAP
FFFFFF00000003000000
00000600000006000000
00000C0000000C000000
00001800000008000000
00001000000018000000
00002000000030000000
00006000000020000000
0000C000000060000000
000180000000C0000000
00030000000080000000
00060000000180000000
000C0000000300000000
00080000000200000000
00100000000600000000
003FC000000C00000000
0000F800000800000000
00000C00001800000000
00000600003000000000
00000300006000000000
00000100006000000000
0000018000C000000000
00000180018000000000
00000080010000030000
00000080030000060000
000001800600000C0000
00000180040000080000
000001000C0000180000
C0000300180000300000
70000600100000600000
3C001C00300000C00000
0FF3F000600000C00000
00FFC000400001800000
00000000C00003000000
00000001800006000000
00000001000004000000
0000000300000C00C000
0000000600001800C000
0000000C00003000C000
0000000C00002000C000
0000001800006000C000
000000300000C000C000
0000002000018000C000
0000006000010000C000
000000C00003FFFFFFC0
000000800003FFFFFFC0
0000018000000000C000
0000030000000000C000
0000020000000000C000
0000060000000000C000
00000C0000000000C000
0000080000000000C000
0000180000000000C000
0000300000000000C000
0000200000000000C000
ENDCHAR
STARTCHAR 00BF
ENCODING 191
SWIDTH 552 0
DWIDTH 43 0
BBX 34 52 7 -12
BITMAP
0003C00000
0003C00000
0003C00000
0001000000
0000000000
0000000000
0000000000
0000000000
0000000000
0000000000
0000000000
0000000000
0000000000
0000000000
0001800000
0001800000
0001800000
0001000000
0003000000
0003000000
0002000000
0006000000
000C000000
0018000000
0030000000
0060000000
00C0000000
0180000000
0300000000
0600000000
0C00000000
1800000000
3000000000
6000000000
6000000000
4000000000
C000000000
C000000000
C000000000
8000000000
8000000000
C000000000
C000000000
4000000000
6000000040
60000000C0
3000000180
1800000300
0E00000E00
0380007800
00F80FE000
003FFE0000
ENDCHAR
STARTCHAR 00C0
ENCODING 192
SWIDTH 681 0
DWIDTH 53 0
BBX 52 67 1 0
BITMAP
0000F000000000
00003800000000
00001C00000000
00000600000000
00000380000000
000001C0000000
00000060000000
00000030000000
00000008000000
00000000000000
00000000000000
00000000000000
00000000000000
00000060000000
000000E0000000
000000B0000000
00000190000000
00000118000000
00000308000000
0000030C000000
0000060C000000
00000606000000
00000C06000000
00000C03000000
00001803000000
00001801800000
00003001800000
00003000800000
00002000C00000
00006000400000
00004000600000
0000C000200000
00008000300000
00018000300000
00018000180000
00030000180000
000300000C0000
000600000C0000
00060000060000
000C0000060000
000C0000030000
00080000030000
00180000010000
00100000018000
00300000008000
0020000000C000
00600000004000
00600000006000
00C00000006000
00FFFFFFFFF000
01FFFFFFFFF000
01800000001800
03000000001800
03000000000C00
06000000000C00
06000000000400
04000000000600
0C000000000200
08000000000300
18000000000100
18000000000180
30000000000180
300000000000C0
600000000000C0
60000000000060
C0000000000060
C0000000000030
ENDCHAR
STARTCHAR 00C1
ENCODING 193
SWIDTH 681 0
DWIDTH 53 0
BBX 52 67 1 0
BITMAP
00000000F00000
00000001C00000
00000007000000
0000000E000000
0000001C000000
00000030000000
000000E0000000
00000180000000
00000000000000
00000000000000
00000000000000
00000000000000
00000000000000
00000060000000
000000E0000000
000000B0000000
00000190000000
00000118000000
00000308000000
0000030C000000
0000060C000000
00000606000000
00000C06000000
00000C03000000
00001803000000
00001801800000
00003001800000
00003000800000
00002000C00000
00006000400000
00004000600000
0000C000200000
00008000300000
00018000300000
00018000180000
00030000180000
000300000C0000
000600000C0000
00060000060000
000C0000060000
000C0000030000
00080000030000
00180000010000
00100000018000
00300000008000
0020000000C000
00600000004000
00600000006000
00C00000006000
00FFFFFFFFF000
01FFFFFFFFF000
01800000001800
03000000001800
03000000000C00
06000000000C00
06000000000400
04000000000600
0C000000000200
08000000000300
18000000000100
18000000000180
30000000000180
300000000000C0
600000000000C0
60000000000060
C0000000000060
C0000000000030
ENDCHAR
STARTCHAR 00C2
ENCODING 194
SWIDTH 681 0
DWIDTH 53 0
BBX 52 67 1 0
BITMAP
000001F0000000
00000398000000
0000070C000000
00000E06000000
00001803000000
00003001C00000
00006000E00000
0000C000300000
00000000000000
00000000000000
00000000000000
00000000000000
00000000000000
00000060000000
000000E0000000
000000B0000000
00000190000000
00000118000000
00000308000000
0000030C000000
0000060C000000
00000606000000
00000C06000000
00000C03000000
00001803000000
00001801800000
00003001800000
00003000800000
00002000C00000
00006000400000
00004000600000
0000C000200000
00008000300000
00018000300000
00018000180000
00030000180000
000300000C0000
000600000C0000
00060000060000
000C0000060000
000C0000030000
00080000030000
00180000010000
00100000018000
00300000008000
0020000000C000
00600000004000
00600000006000
00C00000006000
00FFFFFFFFF000
01FFFFFFFFF000
01800000001800
03000000001800
03000000000C00
06000000000C00
06000000000400
04000000000600
0C000000000200
08000000000300
18000000000100
18000000000180
30000000000180
300000000000C0
600000000000C0
60000000000060
C0000000000060
C0000000000030
ENDCHAR
STARTCHAR 00C3
ENCODING 195
SWIDTH 681 0
DWIDTH 53 0
BBX 52 67 1 0
BITMAP
00000C00000000
00003F00100000
000061C0100000
0000C0E0300000
00008070600000
00018038E00000
0001800F800000
00000000000000
00000000000000
00000000000000
00000000000000
00000000000000
00000000000000
00000060000000
000000E0000000
000000B0000000
00000190000000
00000118000000
00000308000000
0000030C000000
0000060C000000
00000606000000
00000C06000000
00000C03000000
00001803000000
00001801800000
00003001800000
00003000800000
00002000C00000
00006000400000
00004000600000
0000C000200000
00008000300000
00018000300000
00018000180000
00030000180000
000300000C0000
000600000C0000
00060000060000
000C0000060000
000C0000030000
00080000030000
00180000010000
00100000018000
00300000008000
0020000000C000
00600000004000
00600000006000
00C00000006000
00FFFFFFFFF000
01FFFFFFFFF000
01800000001800
03000000001800
03000000000C00
06000000000C00
06000000000400
04000000000600
0C000000000200
08000000000300
18000000000100
18000000000180
30000000000180
300000000000C0
600000000000C0
60000000000060
C0000000000060
C0000000000030
ENDCHAR
STARTCHAR 00C4
ENCODING 196
SWIDTH 681 0
DWIDTH 53 0
BBX 52 66 1 0
BITMAP
00001000800000
00003803C00000
00007803C00000
00003803C00000
00000000000000
00000000000000
00000000000000
00000000000000
00000000000000
00000000000000
00000000000000
00000000000000
00000060000000
000000E0000000
000000B0000000
00000190000000
00000118000000
00000308000000
0000030C000000
0000060C000000
00000606000000
00000C06000000
00000C03000000
00001803000000
00001801800000
00003001800000
00003000800000
00002000C00000
00006000400000
00004000600000
0000C000200000
00008000300000
00018000300000
00018000180000
00030000180000
000300000C0000
000600000C0000
00060000060000
000C0000060000
000C0000030000
00080000030000
00180000010000
00100000018000
00300000008000
0020000000C000
00600000004000
00600000006000
00C00000006000
00FFFFFFFFF000
01FFFFFFFFF000
01800000001800
03000000001800
03000000000C00
06000000000C00
06000000000400
04000000000600
0C000000000200
08000000000300
18000000000100
18000000000180
30000000000180
300000000000C0
600000000000C0
60000000000060
C0000000000060
C0000000000030
ENDCHAR
STARTCHAR 00C5
ENCODING 197
SWIDTH 681 0
DWIDTH 53 0
BBX 52 75 1 0
BITMAP
000001F0000000
000007FC000000
00000E06000000
00000803000000
00001801000000
00001001800000
00001001800000
00001001800000
00001001800000
00001001800000
00001803000000
00000C07000000
0000070E000000
000003F8000000
00000000000000
00000000000000
00000000000000
00000000000000
00000000000000
00000000000000
00000000000000
00000060000000
000000E0000000
000000B0000000
00000190000000
00000118000000
00000308000000
0000030C000000
0000060C000000
00000606000000
00000C06000000
00000C03000000
00001803000000
00001801800000
00003001800000
00003000800000
00002000C00000
00006000400000
00004000600000
0000C000200000
00008000300000
00018000300000
00018000180000
00030000180000
000300000C0000
000600000C0000
00060000060000
000C0000060000
000C0000030000
00080000030000
00180000010000
00100000018000
00300000008000
0020000000C000
00600000004000
00600000006000
00C00000006000
00FFFFFFFFF000
01FFFFFFFFF000
01800000001800
03000000001800
03000000000C00
06000000000C00
06000000000400
04000000000600
0C000000000200
08000000000300
18000000000100
18000000000180
30000000000180
300000000000C0
600000000000C0
60000000000060
C0000000000060
C0000000000030
ENDCHAR
STARTCHAR 00C6
ENCODING 198
SWIDTH 1002 0
DWIDTH 78 0
BBX 72 54 1 0
BITMAP
000000003FFFFFFFFE
000000006800000000
00000000C800000000
00000000C800000000
000000018800000000
000000010800000000
000000030800000000
000000060800000000
000000040800000000
0000000C0800000000
000000180800000000
000000100800000000
000000300800000000
000000600800000000
000000600800000000
000000C00800000000
000000800800000000
000001800800000000
000003000800000000
000002000800000000
000006000800000000
00000C000800000000
00000C000800000000
000018000800000000
000030000800000000
000030000800000000
000060000FFFFFFFE0
000040000800000000
0000C0000800000000
000180000800000000
000100000800000000
000300000800000000
000600000800000000
000600000800000000
000C00000800000000
001800000800000000
001FFFFFF800000000
003FFFFFF800000000
002000000800000000
006000000800000000
00C000000800000000
008000000800000000
018000000800000000
030000000800000000
030000000800000000
060000000800000000
0C0000000800000000
0C0000000800000000
180000000800000000
100000000800000000
300000000800000000
600000000800000000
400000000800000000
C00000000FFFFFFFFF
ENDCHAR
STARTCHAR 00C7
ENCODING 199
SWIDTH 707 0
DWIDTH 55 0
BBX 46 72 5 -17
BITMAP
000000FC0000
00001FFFF000
0000F8003E00
0003C0000780
000F000000E0
001C00000070
007000000018
00E00000000C
01C000000000
038000000000
070000000000
060000000000
0C0000000000
180000000000
180000000000
300000000000
300000000000
600000000000
600000000000
400000000000
C00000000000
C00000000000
C00000000000
800000000000
800000000000
800000000000
800000000000
800000000000
800000000000
800000000000
800000000000
800000000000
C00000000000
C00000000000
C00000000000
400000000000
600000000000
600000000000
200000000000
300000000000
100000000000
180000000000
0C0000000000
0C0000000000
060000000000
030000000000
018000000000
00C000000000
00600000000C
003800000038
001C00000060
0007000001C0
0001E0000F00
00007F01FC00
000007FFC000
000000200000
000000600000
000000600000
000000400000
000000600000
000000FC0000
000000060000
000000030000
000000010000
000000018000
000000018000
000000010000
000000010000
000008030000
00000E0E0000
000007FC0000
000000400000
ENDCHAR
STARTCHAR 00C8
ENCODING 200
SWIDTH 655 0
DWIDTH 51 0
BBX 37 67 10 0
BITMAP
00F0000000
0038000000
001C000000
0007000000
0003800000
0000C00000
0000600000
0000380000
0000000000
0000000000
0000000000
0000000000
0000000000
FFFFFFFFE0
C000000000
C000000000
C000000000
C000000000
C000000000
C000000000
C000000000
C000000000
C000000000
C000000000
C000000000
C000000000
C000000000
C000000000
C000000000
C000000000
C000000000
C000000000
C000000000
C000000000
C000000000
C000000000
C000000000
C000000000
C000000000
FFFFFFFF00
C000000000
C000000000
C000000000
C000000000
C000000000
C000000000
C000000000
C000000000
C000000000
C000000000
C000000000
C000000000
C000000000
C000000000
C000000000
C000000000
C000000000
C000000000
C000000000
C000000000
C000000000
C000000000
C000000000
C000000000
C000000000
C000000000
FFFFFFFFF8
ENDCHAR
STARTCHAR 00C9
ENCODING 201
SWIDTH 655 0
DWIDTH 51 0
BBX 37 67 10 0
BITMAP
000000F000
000001C000
0000030000
00000E0000
00001C0000
0000300000
0000E00000
0001C00000
0000000000
0000000000
0000000000
0000000000
0000000000
FFFFFFFFE0
C000000000
C000000000
C000000000
C000000000
C000000000
C000000000
C000000000
C000000000
C000000000
C000000000
C000000000
C000000000
C000000000
C000000000
C000000000
C000000000
C000000000
C000000000
C000000000
C000000000
C000000000
C000000000
C000000000
C000000000
C000000000
FFFFFFFF00
C000000000
C000000000
C000000000
C000000000
C000000000
C000000000
C000000000
C000000000
C000000000
C000000000
C000000000
C000000000
C000000000
C000000000
C000000000
C000000000
C000000000
C000000000
C000000000
C000000000
C000000000
C000000000
C000000000
C000000000
C000000000
C000000000
FFFFFFFFF8
ENDCHAR
STARTCHAR 00CA
ENCODING 202
SWIDTH 655 0
DWIDTH 51 0
BBX 37 67 10 0
BITMAP
0000F00000
0001980000
00070C0000
000E070000
001C038000
003001C000
0060006000
00C0003000
0000000000
0000000000
0000000000
0000000000
0000000000
FFFFFFFFE0
C000000000
C000000000
C000000000
C000000000
C000000000
C000000000
C000000000
C000000000
C000000000
C000000000
C000000000
C000000000
C000000000
C000000000
C000000000
C000000000
C000000000
C000000000
C000000000
C000000000
C000000000
C000000000
C000000000
C000000000
C000000000
FFFFFFFF00
C000000000
C000000000
C000000000
C000000000
C000000000
C000000000
C000000000
C000000000
C000000000
C000000000
C000000000
C000000000
C000000000
C000000000
C000000000
C000000000
C000000000
C000000000
C000000000
C000000000
C000000000
C000000000
C000000000
C000000000
C000000000
C000000000
FFFFFFFFF8
ENDCHAR
STARTCHAR 00CB
ENCODING 203
SWIDTH 655 0
DWIDTH 51 0
BBX 37 66 10 0
BITMAP
0010008000
003801C000
003C03C000
003801C000
0000000000
0000000000
0000000000
0000000000
0000000000
0000000000
0000000000
0000000000
FFFFFFFFE0
C000000000
C000000000
C000000000
C000000000
C000000000
C000000000
C000000000
C000000000
C000000000
C000000000
C000000000
C000000000
C000000000
C000000000
C000000000
C000000000
C000000000
C000000000
C000000000
C000000000
C000000000
C000000000
C000000000
C000000000
C000000000
FFFFFFFF00
C000000000
C000000000
C000000000
C000000000
C000000000
C000000000
C000000000
C000000000
C000000000
C000000000
C000000000
C000000000
C000000000
C000000000
C000000000
C000000000
C000000000
C000000000
C000000000
C000000000
C000000000
C000000000
C000000000
C000000000
C000000000
C000000000
FFFFFFFFF8
ENDCHAR
STARTCHAR 00CC
ENCODING 204
SWIDTH 282 0
DWIDTH 22 0
BBX 13 67 1 0
BITMAP
F000
3800
0C00
0700
0380
00C0
0070
0038
0000
0000
0000
0000
0000
0060
0060
0060
0060
0060
0060
0060
0060
0060
0060
0060
0060
0060
0060
0060
0060
0060
0060
0060
0060
0060
0060
0060
0060
0060
0060
0060
0060
0060
0060
0060
0060
0060
0060
0060
0060
0060
0060
0060
0060
0060
0060
0060
0060
0060
0060
0060
0060
0060
0060
0060
0060
0060
0060
ENDCHAR
STARTCHAR 00CD
ENCODING 205
SWIDTH 282 0
DWIDTH 22 0
BBX 13 67 8 0
BITMAP
0078
00E0
01C0
0700
0E00
1C00
3000
E000
0000
0000
0000
0000
0000
3000
3000
3000
3000
3000
3000
3000
3000
3000
3000
3000
3000
3000
3000
3000
3000
3000
3000
3000
3000
3000
3000
3000
3000
3000
3000
3000
3000
3000
3000
3000
3000
3000
3000
3000
3000
3000
3000
3000
3000
3000
3000
3000
3000
3000
3000
3000
3000
3000
3000
3000
3000
3000
3000
ENDCHAR
STARTCHAR 00CE
ENCODING 206
SWIDTH 282 0
DWIDTH 22 0
BBX 20 67 1 0
BITMAP
00F000
019C00
030E00
0E0700
1C0380
3800C0
600060
C00030
000000
000000
000000
000000
000000
006000
006000
006000
006000
006000
006000
006000
006000
006000
006000
006000
006000
006000
006000
006000
006000
006000
006000
006000
006000
006000
006000
006000
006000
006000
006000
006000
006000
006000
006000
006000
006000
006000
006000
006000
006000
006000
006000
006000
006000
006000
006000
006000
006000
006000
006000
006000
006000
006000
006000
006000
006000
006000
006000
ENDCHAR
STARTCHAR 00CF
ENCODING 207
SWIDTH 282 0
DWIDTH 22 0
BBX 17 66 3 0
BITMAP
400200
F00700
F00F80
E00700
000000
000000
000000
000000
000000
000000
000000
000000
018000
018000
018000
018000
018000
018000
018000
018000
018000
018000
018000
018000
018000
018000
018000
018000
018000
018000
018000
018000
018000
018000
018000
018000
018000
018000
018000
018000
018000
018000
018000
018000
018000
018000
018000
018000
018000
018000
018000
018000
018000
018000
018000
018000
018000
018000
018000
018000
018000
018000
018000
018000
018000
018000
ENDCHAR
STARTCHAR 00D0
ENCODING 208
SWIDTH 822 0
DWIDTH 64 0
BBX 58 54 2 0
BITMAP
00FFFFFFF8000000
00C000001F800000
00C0000001E00000
00C0000000780000
00C00000001C0000
00C0000000070000
00C0000000018000
00C000000000C000
00C0000000006000
00C0000000003000
00C0000000001800
00C0000000001800
00C0000000000C00
00C0000000000400
00C0000000000600
00C0000000000200
00C0000000000300
00C0000000000100
00C0000000000180
00C0000000000180
00C0000000000180
00C0000000000080
00C0000000000080
00C0000000000080
00C00000000000C0
00C00000000000C0
FFFFFFF0000000C0
00C00000000000C0
00C00000000000C0
00C00000000000C0
00C0000000000080
00C0000000000080
00C0000000000080
00C0000000000180
00C0000000000180
00C0000000000100
00C0000000000300
00C0000000000300
00C0000000000200
00C0000000000600
00C0000000000C00
00C0000000000C00
00C0000000001800
00C0000000003000
00C0000000006000
00C000000000E000
00C000000001C000
00C0000000030000
00C00000000E0000
00C00000001C0000
00C0000000F00000
00C0000007C00000
00C00007FE000000
00FFFFFFE0000000
ENDCHAR
STARTCHAR 00D1
ENCODING 209
SWIDTH 810 0
DWIDTH 63 0
BBX 43 67 10 0
BITMAP
0000C0000000
0007F0010000
00061C010000
000C0E030000
000807060000
0018038E0000
001800F80000
000000000000
000000000000
000000000000
000000000000
000000000000
000000000000
C00000000020
E00000000020
F00000000020
D80000000020
DC0000000020
CC0000000020
C60000000020
C30000000020
C18000000020
C18000000020
C0C000000020
C06000000020
C03000000020
C03000000020
C01800000020
C00C00000020
C00600000020
C00300000020
C00300000020
C00180000020
C000C0000020
C00060000020
C00060000020
C00030000020
C00018000020
C0000C000020
C00006000020
C00006000020
C00003000020
C00001800020
C00000C00020
C00000C00020
C00000600020
C00000300020
C00000180020
C00000180020
C000000C0020
C00000060020
C00000030020
C00000018020
C00000018020
C0000000C020
C00000006020
C00000003020
C00000003020
C00000001820
C00000000C20
C00000000620
C00000000320
C00000000320
C000000001A0
C000000000E0
C00000000060
C00000000060
ENDCHAR
STARTCHAR 00D2
ENCODING 210
SWIDTH 835 0
DWIDTH 65 0
BBX 55 67 5 0
BITMAP
00003800000000
00000E00000000
00000700000000
00000380000000
000000C0000000
00000070000000
00000038000000
0000000C000000
00000000000000
00000000000000
00000000000000
00000000000000
000000FE000000
00001FFFF00000
0000F8003E0000
0003C000078000
000E000000E000
00180000007000
00700000001C00
00E00000000E00
01800000000300
03000000000180
060000000001C0
060000000000C0
0C000000000060
18000000000030
18000000000030
30000000000018
30000000000018
6000000000000C
6000000000000C
40000000000004
C0000000000006
C0000000000006
C0000000000006
80000000000002
80000000000002
80000000000002
80000000000002
80000000000002
80000000000002
80000000000002
80000000000002
80000000000002
C0000000000006
C0000000000006
C0000000000006
40000000000004
6000000000000C
6000000000000C
20000000000008
30000000000018
10000000000010
18000000000030
0C000000000060
0C000000000060
060000000000C0
03000000000180
01800000000300
00C00000000600
00600000000C00
00380000003800
001C0000007000
0007000001C000
0001E0000F0000
00007F83FC0000
000007FFC00000
ENDCHAR
STARTCHAR 00D3
ENCODING 211
SWIDTH 835 0
DWIDTH 65 0
BBX 55 67 5 0
BITMAP
00000000380000
00000000E00000
00000001C00000
00000003800000
00000006000000
0000001C000000
00000038000000
00000060000000
00000000000000
00000000000000
00000000000000
00000000000000
000000FE000000
00001FFFF00000
0000F8003E0000
0003C000078000
000E000000E000
00180000007000
00700000001C00
00E00000000E00
01800000000300
03000000000180
060000000001C0
060000000000C0
0C000000000060
18000000000030
18000000000030
30000000000018
30000000000018
6000000000000C
6000000000000C
40000000000004
C0000000000006
C0000000000006
C0000000000006
80000000000002
80000000000002
80000000000002
80000000000002
80000000000002
80000000000002
80000000000002
80000000000002
80000000000002
C0000000000006
C0000000000006
C0000000000006
40000000000004
6000000000000C
6000000000000C
20000000000008
30000000000018
10000000000010
18000000000030
0C000000000060
0C000000000060
060000000000C0
03000000000180
01800000000300
00C00000000600
00600000000C00
00380000003800
001C0000007000
0007000001C000
0001E0000F0000
00007F83FC0000
000007FFC00000
ENDCHAR
STARTCHAR 00D4
ENCODING 212
SWIDTH 835 0
DWIDTH 65 0
BBX 55 67 5 0
BITMAP
0000007C000000
000000EE000000
000001C7000000
00000301800000
00000600C00000
00000C00600000
00001800300000
000070001C0000
00000000000000
00000000000000
00000000000000
00000000000000
000000FE000000
00001FFFF00000
0000F8003E0000
0003C000078000
000E000000E000
00180000007000
00700000001C00
00E00000000E00
01800000000300
03000000000180
060000000001C0
060000000000C0
0C000000000060
18000000000030
18000000000030
30000000000018
30000000000018
6000000000000C
6000000000000C
40000000000004
C0000000000006
C0000000000006
C0000000000006
80000000000002
80000000000002
80000000000002
80000000000002
80000000000002
80000000000002
80000000000002
80000000000002
80000000000002
C0000000000006
C0000000000006
C0000000000006
40000000000004
6000000000000C
6000000000000C
20000000000008
30000000000018
10000000000010
18000000000030
0C000000000060
0C000000000060
060000000000C0
03000000000180
01800000000300
00C00000000600
00600000000C00
00380000003800
001C0000007000
0007000001C000
0001E0000F0000
00007F83FC0000
000007FFC00000
ENDCHAR
STARTCHAR 00D5
ENCODING 213
SWIDTH 835 0
DWIDTH 65 0
BBX 55 67 5 0
BITMAP
00000300000000
00001FC0040000
000030600C0000
000020300C0000
00006018180000
0000600E700000
00006003E00000
00000000000000
00000000000000
00000000000000
00000000000000
00000000000000
000000FE000000
00001FFFF00000
0000F8003E0000
0003C000078000
000E000000E000
00180000007000
00700000001C00
00E00000000E00
01800000000300
03000000000180
060000000001C0
060000000000C0
0C000000000060
18000000000030
18000000000030
30000000000018
30000000000018
6000000000000C
6000000000000C
40000000000004
C0000000000006
C0000000000006
C0000000000006
80000000000002
80000000000002
80000000000002
80000000000002
80000000000002
80000000000002
80000000000002
80000000000002
80000000000002
C0000000000006
C0000000000006
C0000000000006
40000000000004
6000000000000C
6000000000000C
20000000000008
30000000000018
10000000000010
18000000000030
0C000000000060
0C000000000060
060000000000C0
03000000000180
01800000000300
00C00000000600
00600000000C00
00380000003800
001C0000007000
0007000001C000
0001E0000F0000
00007F83FC0000
000007FFC00000
ENDCHAR
STARTCHAR 00D6
ENCODING 214
SWIDTH 835 0
DWIDTH 65 0
BBX 55 66 5 0
BITMAP
00000400000000
00001E00F00000
00001E00F00000
00001E00F00000
00000000000000
00000000000000
00000000000000
00000000000000
00000000000000
00000000000000
00000000000000
000000FE000000
00001FFFF00000
0000F8003E0000
0003C000078000
000E000000E000
00180000007000
00700000001C00
00E00000000E00
01800000000300
03000000000180
060000000001C0
060000000000C0
0C000000000060
18000000000030
18000000000030
30000000000018
30000000000018
6000000000000C
6000000000000C
40000000000004
C0000000000006
C0000000000006
C0000000000006
80000000000002
80000000000002
80000000000002
80000000000002
80000000000002
80000000000002
80000000000002
80000000000002
80000000000002
C0000000000006
C0000000000006
C0000000000006
40000000000004
6000000000000C
6000000000000C
20000000000008
30000000000018
10000000000010
18000000000030
0C000000000060
0C000000000060
060000000000C0
03000000000180
01800000000300
00C00000000600
00600000000C00
00380000003800
001C0000007000
0007000001C000
0001E0000F0000
00007F83FC0000
000007FFC00000
ENDCHAR
STARTCHAR 00D7
ENCODING 215
SWIDTH 552 0
DWIDTH 43 0
BBX 24 24 10 15
BITMAP
C00002
E00006
70000C
380018
1C0030
0E0060
0700C0
038180
01C300
00E600
007C00
003800
003C00
006E00
00C700
018380
0301C0
0600E0
0C0070
180038
30001C
60000E
C00007
000002
ENDCHAR
STARTCHAR 00D8
ENCODING 216
SWIDTH 835 0
DWIDTH 65 0
BBX 55 65 5 -5
BITMAP
00000000000030
00000000000060
00000000000060
000000000000C0
00000000000180
000000FE000100
00001FFFF00300
0000F8003E0600
0003C000078C00
000E000000E800
00180000007800
00700000003C00
00E00000006E00
01800000006300
0300000000C180
060000000181C0
060000000100C0
0C000000030060
18000000060030
180000000C0030
30000000080018
30000000180018
6000000030000C
6000000060000C
40000000400004
C0000000C00006
C0000001800006
C0000003000006
80000003000002
80000006000002
8000000C000002
80000008000002
80000018000002
80000030000002
80000060000002
80000040000002
800000C0000002
C0000180000006
C0000300000006
C0000300000006
40000600000004
60000C0000000C
6000180000000C
20001800000008
30003000000018
10006000000010
18004000000030
0C00C000000060
0C018000000060
060300000000C0
03020000000180
01860000000300
00CC0000000600
00780000000C00
00380000003800
003C0000007000
0067000001C000
00C1E0000F0000
00C07F83FC0000
018007FFC00000
03000000000000
02000000000000
06000000000000
0C000000000000
18000000000000
ENDCHAR
STARTCHAR 00D9
ENCODING 217
SWIDTH 784 0
DWIDTH 61 0
BBX 42 67 10 0
BITMAP
001E00000000
000700000000
000380000000
0000E0000000
000070000000
000038000000
00000C000000
000007000000
000000000000
000000000000
000000000000
000000000000
000000000000
8000000000C0
8000000000C0
8000000000C0
8000000000C0
8000000000C0
8000000000C0
8000000000C0
8000000000C0
8000000000C0
8000000000C0
8000000000C0
8000000000C0
8000000000C0
8000000000C0
8000000000C0
8000000000C0
8000000000C0
8000000000C0
8000000000C0
8000000000C0
8000000000C0
8000000000C0
8000000000C0
8000000000C0
8000000000C0
8000000000C0
8000000000C0
8000000000C0
8000000000C0
8000000000C0
8000000000C0
8000000000C0
8000000000C0
8000000000C0
C000000000C0
C000000000C0
C000000000C0
C00000000080
400000000080
400000000180
600000000180
600000000100
200000000300
300000000300
100000000600
180000000600
0C0000000C00
060000001800
030000003000
018000006000
00E00001C000
007800070000
001FC0FC0000
0003FFE00000
ENDCHAR
STARTCHAR 00DA
ENCODING 218
SWIDTH 784 0
DWIDTH 61 0
BBX 42 67 10 0
BITMAP
0000001E0000
000000380000
000000600000
000001C00000
000003800000
000006000000
00001C000000
000038000000
000000000000
000000000000
000000000000
000000000000
000000000000
8000000000C0
8000000000C0
8000000000C0
8000000000C0
8000000000C0
8000000000C0
8000000000C0
8000000000C0
8000000000C0
8000000000C0
8000000000C0
8000000000C0
8000000000C0
8000000000C0
8000000000C0
8000000000C0
8000000000C0
8000000000C0
8000000000C0
8000000000C0
8000000000C0
8000000000C0
8000000000C0
8000000000C0
8000000000C0
8000000000C0
8000000000C0
8000000000C0
8000000000C0
8000000000C0
8000000000C0
8000000000C0
8000000000C0
8000000000C0
C000000000C0
C000000000C0
C000000000C0
C00000000080
400000000080
400000000180
600000000180
600000000100
200000000300
300000000300
100000000600
180000000600
0C0000000C00
060000001800
030000003000
018000006000
00E00001C000
007800070000
001FC0FC0000
0003FFE00000
ENDCHAR
STARTCHAR 00DB
ENCODING 219
SWIDTH 784 0
DWIDTH 61 0
BBX 42 67 10 0
BITMAP
00001E000000
000073000000
0000E1800000
0001C0E00000
000380700000
000600380000
000C000C0000
001800060000
000000000000
000000000000
000000000000
000000000000
000000000000
8000000000C0
8000000000C0
8000000000C0
8000000000C0
8000000000C0
8000000000C0
8000000000C0
8000000000C0
8000000000C0
8000000000C0
8000000000C0
8000000000C0
8000000000C0
8000000000C0
8000000000C0
8000000000C0
8000000000C0
8000000000C0
8000000000C0
8000000000C0
8000000000C0
8000000000C0
8000000000C0
8000000000C0
8000000000C0
8000000000C0
8000000000C0
8000000000C0
8000000000C0
8000000000C0
8000000000C0
8000000000C0
8000000000C0
8000000000C0
C000000000C0
C000000000C0
C000000000C0
C00000000080
400000000080
400000000180
600000000180
600000000100
200000000300
300000000300
100000000600
180000000600
0C0000000C00
060000001800
030000003000
018000006000
00E00001C000
007800070000
001FC0FC0000
0003FFE00000
ENDCHAR
STARTCHAR 00DC
ENCODING 220
SWIDTH 784 0
DWIDTH 61 0
BBX 42 66 10 0
BITMAP
000200100000
000700780000
000F80780000
000700380000
000000000000
000000000000
000000000000
000000000000
000000000000
000000000000
000000000000
000000000000
8000000000C0
8000000000C0
8000000000C0
8000000000C0
8000000000C0
8000000000C0
8000000000C0
8000000000C0
8000000000C0
8000000000C0
8000000000C0
8000000000C0
8000000000C0
8000000000C0
8000000000C0
8000000000C0
8000000000C0
8000000000C0
8000000000C0
8000000000C0
8000000000C0
8000000000C0
8000000000C0
8000000000C0
8000000000C0
8000000000C0
8000000000C0
8000000000C0
8000000000C0
8000000000C0
8000000000C0
8000000000C0
8000000000C0
8000000000C0
C000000000C0
C000000000C0
C000000000C0
C00000000080
400000000080
400000000180
600000000180
600000000100
200000000300
300000000300
100000000600
180000000600
0C0000000C00
060000001800
030000003000
018000006000
00E00001C000
007800070000
001FC0FC0000
0003FFE00000
ENDCHAR
STARTCHAR 00DD
ENCODING 221
SWIDTH 604 0
DWIDTH 47 0
BBX 45 67 1 0
BITMAP
000000078000
0000000E0000
000000380000
000000700000
000000C00000
000001800000
000007000000
00000C000000
000000000000
000000000000
000000000000
000000000000
000000000000
C00000000018
600000000010
200000000030
300000000060
180000000060
1800000000C0
0C0000000080
040000000180
060000000300
030000000300
010000000600
018000000C00
00C000000C00
00C000001800
006000001000
002000003000
003000006000
001800006000
00180000C000
000C00008000
000600018000
000600030000
000300030000
000100060000
0001800C0000
0000C00C0000
0000C0180000
000060100000
000020300000
000030600000
000018600000
000018C00000
00000C800000
000007800000
000007000000
000003000000
000003000000
000003000000
000003000000
000003000000
000003000000
000003000000
000003000000
000003000000
000003000000
000003000000
000003000000
000003000000
000003000000
000003000000
000003000000
000003000000
000003000000
000003000000
ENDCHAR
STARTCHAR 00DE
ENCODING 222
SWIDTH 707 0
DWIDTH 55 0
BBX 40 54 10 0
BITMAP
C000000000
C000000000
C000000000
C000000000
C000000000
C000000000
C000000000
FFFFFC0000
FFFFFFF000
C000003C00
C000000700
C0000001C0
C000000060
C000000030
C000000018
C00000000C
C00000000C
C000000006
C000000006
C000000002
C000000003
C000000003
C000000003
C000000001
C000000001
C000000001
C000000001
C000000003
C000000003
C000000003
C000000003
C000000002
C000000006
C000000004
C00000000C
C000000018
C000000030
C000000060
C0000000C0
C000000380
C000000E00
C00003F800
FFFFFFC000
C000000000
C000000000
C000000000
C000000000
C000000000
C000000000
C000000000
C000000000
C000000000
C000000000
C000000000
ENDCHAR
STARTCHAR 00DF
ENCODING 223
SWIDTH 642 0
DWIDTH 50 0
BBX 38 58 9 0
BITMAP
0007FC0000
003FFF8000
00E001E000
0380003000
0600001800
0C00000C00
1800000600
1000000300
3000000300
2000000100
6000000180
4000000180
4000000180
C000000080
C000000180
C000000180
C000000180
C000000180
C000000100
C000000300
C000000300
C000000600
C000000400
C000000800
C000003800
C000006000
C00001C000
C0003F0000
C001FFC000
C00000F800
C000000E00
C000000300
C000000180
C0000000C0
C000000060
C000000030
C000000010
C000000018
C000000018
C000000008
C000000008
C000000008
C00000000C
C00000000C
C000000008
C000000008
C000000008
C000000018
C000000018
C000000030
C000000030
C000000060
C0000000C0
C000000180
C000000700
C000001C00
C00F03F800
C007FFC000
ENDCHAR
STARTCHAR 00E0
ENCODING 224
SWIDTH 565 0
DWIDTH 44 0
BBX 31 56 5 0
BITMAP
03800000
01C00000
00700000
00380000
000C0000
00070000
00038000
0000C000
00006000
00000000
00000000
00000000
00000000
00000000
00000000
00000000
003FFE00
01F00780
078000E0
0E000070
38000018
70000018
0000000C
00000004
00000006
00000006
00000006
00000006
00000002
00000002
00000002
00000002
00000002
00000002
003FFFFE
03FFFFFE
0F000002
18000002
30000002
60000002
60000002
40000002
C0000002
C0000002
C0000002
C0000006
C0000006
C000000E
4000001A
60000012
60000032
30000062
1C0001C2
0E000702
03E03E02
00FFF002
ENDCHAR
STARTCHAR 00E1
ENCODING 225
SWIDTH 565 0
DWIDTH 44 0
BBX 31 56 5 0
BITMAP
000001C0
00000380
00000700
00001C00
00003800
00007000
0000C000
00038000
00060000
00000000
00000000
00000000
00000000
00000000
00000000
00000000
003FFE00
01F00780
078000E0
0E000070
38000018
70000018
0000000C
00000004
00000006
00000006
00000006
00000006
00000002
00000002
00000002
00000002
00000002
00000002
003FFFFE
03FFFFFE
0F000002
18000002
30000002
60000002
60000002
40000002
C0000002
C0000002
C0000002
C0000006
C0000006
C000000E
4000001A
60000012
60000032
30000062
1C0001C2
0E000702
03E03E02
00FFF002
ENDCHAR
STARTCHAR 00E2
ENCODING 226
SWIDTH 565 0
DWIDTH 44 0
BBX 31 56 5 0
BITMAP
0001C000
0003E000
000E7000
001C1800
00380C00
00700600
00C00300
018001C0
03000060
00000000
00000000
00000000
00000000
00000000
00000000
00000000
003FFE00
01F00780
078000E0
0E000070
38000018
70000018
0000000C
00000004
00000006
00000006
00000006
00000006
00000002
00000002
00000002
00000002
00000002
00000002
003FFFFE
03FFFFFE
0F000002
18000002
30000002
60000002
60000002
40000002
C0000002
C0000002
C0000002
C0000006
C0000006
C000000E
4000001A
60000012
60000032
30000062
1C0001C2
0E000702
03E03E02
00FFF002
ENDCHAR
STARTCHAR 00E3
ENCODING 227
SWIDTH 565 0
DWIDTH 44 0
BBX 31 55 5 0
BITMAP
007C0060
00FE0060
01830040
030180C0
0300E0C0
02007F80
02001E00
00000000
00000000
00000000
00000000
00000000
00000000
00000000
00000000
003FFE00
01F00780
078000E0
0E000070
38000018
70000018
0000000C
00000004
00000006
00000006
00000006
00000006
00000002
00000002
00000002
00000002
00000002
00000002
003FFFFE
03FFFFFE
0F000002
18000002
30000002
60000002
60000002
40000002
C0000002
C0000002
C0000002
C0000006
C0000006
C000000E
4000001A
60000012
60000032
30000062
1C0001C2
0E000702
03E03E02
00FFF002
ENDCHAR
STARTCHAR 00E4
ENCODING 228
SWIDTH 565 0
DWIDTH 44 0
BBX 31 54 5 0
BITMAP
00600700
00F00780
00F00780
00E00700
00000000
00000000
00000000
00000000
00000000
00000000
00000000
00000000
00000000
00000000
003FFE00
01F00780
078000E0
0E000070
38000018
70000018
0000000C
00000004
00000006
00000006
00000006
00000006
00000002
00000002
00000002
00000002
00000002
00000002
003FFFFE
03FFFFFE
0F000002
18000002
30000002
60000002
60000002
40000002
C0000002
C0000002
C0000002
C0000006
C0000006
C000000E
4000001A
60000012
60000032
30000062
1C0001C2
0E000702
03E03E02
00FFF002
ENDCHAR
STARTCHAR 00E5
ENCODING 229
SWIDTH 565 0
DWIDTH 44 0
BBX 31 61 5 0
BITMAP
0001C000
000FF000
00181800
00300C00
00200600
00600600
00600200
00600200
00600200
00600600
00200600
00300C00
00181800
000FF000
00008000
00000000
00000000
00000000
00000000
00000000
00000000
003FFE00
01F00780
078000E0
0E000070
38000018
70000018
0000000C
00000004
00000006
00000006
00000006
00000006
00000002
00000002
00000002
00000002
00000002
00000002
003FFFFE
03FFFFFE
0F000002
18000002
30000002
60000002
60000002
40000002
C0000002
C0000002
C0000002
C0000006
C0000006
C000000E
4000001A
60000012
60000032
30000062
1C0001C2
0E000702
03E03E02
00FFF002
ENDCHAR
STARTCHAR 00E6
ENCODING 230
SWIDTH 977 0
DWIDTH 76 0
BBX 67 40 5 0
BITMAP
003FFE00003FFC0000
01F0078000F00F8000
078000E0038001C000
0E0000700600007000
380000180C00001800
700000181800000C00
0000000C3000000600
000000046000000200
000000044000000300
00000006C000000180
000000068000000180
0000000780000000C0
0000000300000000C0
000000030000000040
000000030000000040
000000030000000060
000000020000000060
000000020000000060
001FFFFFFFFFFFFFE0
03FFFFFFFFFFFFFFE0
070000020000000000
1C0000020000000000
300000020000000000
200000020000000000
600000030000000000
400000030000000000
C00000070000000000
C00000078000000000
C00000078000000000
C00000068000000000
C0000004C000000000
C000000C6000000000
400000183000000000
600000183000000100
600000301C00000300
300000600E00000E00
1C0001C00300001C00
0E00078001E0007000
03E03E00007E0FC000
00FFF000000FFE0000
ENDCHAR
STARTCHAR 00E7
ENCODING 231
SWIDTH 540 0
DWIDTH 42 0
BBX 34 57 4 -17
BITMAP
0003FFC000
001F00F800
0078001E00
00C0000700
0180000180
03000000C0
0600000040
0C00000000
1800000000
1000000000
3000000000
2000000000
6000000000
6000000000
4000000000
4000000000
C000000000
C000000000
C000000000
C000000000
C000000000
C000000000
C000000000
C000000000
4000000000
4000000000
6000000000
6000000000
3000000000
3000000000
1800000000
1800000000
0C00000000
0600000040
03000000C0
0180000380
00E0000700
0038001C00
001F81F000
0003FF8000
0000200000
0000600000
0000600000
0000400000
0000E00000
0000FC0000
0000060000
0000030000
0000030000
0000010000
0000010000
0000010000
0000030000
0008030000
000C0E0000
0007FC0000
0000400000
ENDCHAR
STARTCHAR 00E8
ENCODING 232
SWIDTH 578 0
DWIDTH 45 0
BBX 37 56 4 0
BITMAP
0070000000
0038000000
001C000000
0007000000
0003800000
0000C00000
0000600000
0000380000
00000C0000
0000000000
0000000000
0000000000
0000000000
0000000000
0000000000
0000000000
0007FF8000
003E01E000
0070003800
01C0000C00
0300000700
0600000300
0C00000180
0C000000C0
1800000060
3000000060
3000000030
2000000030
6000000010
4000000018
4000000018
4000000008
C000000008
C000000008
FFFFFFFFF8
FFFFFFFFF8
C000000000
C000000000
C000000000
C000000000
4000000000
4000000000
6000000000
6000000000
2000000000
3000000000
1800000000
1800000000
0C00000000
0600000060
03000000C0
0180000180
00E0000700
0038001E00
000F81F800
0003FFC000
ENDCHAR
STARTCHAR 00E9
ENCODING 233
SWIDTH 578 0
DWIDTH 45 0
BBX 37 56 4 0
BITMAP
0000003800
0000007000
000001C000
0000038000
0000070000
00000C0000
0000380000
0000600000
0000C00000
0000000000
0000000000
0000000000
0000000000
0000000000
0000000000
0000000000
0007FF8000
003E01E000
0070003800
01C0000C00
0300000700
0600000300
0C00000180
0C000000C0
1800000060
3000000060
3000000030
2000000030
6000000010
4000000018
4000000018
4000000008
C000000008
C000000008
FFFFFFFFF8
FFFFFFFFF8
C000000000
C000000000
C000000000
C000000000
4000000000
4000000000
6000000000
6000000000
2000000000
3000000000
1800000000
1800000000
0C00000000
0600000060
03000000C0
0180000180
00E0000700
0038001E00
000F81F800
0003FFC000
ENDCHAR
STARTCHAR 00EA
ENCODING 234
SWIDTH 578 0
DWIDTH 45 0
BBX 37 56 4 0
BITMAP
0000700000
0000FC0000
0001CE0000
0003870000
0006038000
000C00C000
0018006000
0030003000
00E0001800
0000000000
0000000000
0000000000
0000000000
0000000000
0000000000
0000000000
0007FF8000
003E01E000
0070003800
01C0000C00
0300000700
0600000300
0C00000180
0C000000C0
1800000060
3000000060
3000000030
2000000030
6000000010
4000000018
4000000018
4000000008
C000000008
C000000008
FFFFFFFFF8
FFFFFFFFF8
C000000000
C000000000
C000000000
C000000000
4000000000
4000000000
6000000000
6000000000
2000000000
3000000000
1800000000
1800000000
0C00000000
0600000060
03000000C0
0180000180
00E0000700
0038001E00
000F81F800
0003FFC000
ENDCHAR
STARTCHAR 00EB
ENCODING 235
SWIDTH 578 0
DWIDTH 45 0
BBX 37 54 4 0
BITMAP
001C00C000
001C01E000
003C01E000
001C00E000
0000000000
0000000000
0000000000
0000000000
0000000000
0000000000
0000000000
0000000000
0000000000
0000000000
0007FF8000
003E01E000
0070003800
01C0000C00
0300000700
0600000300
0C00000180
0C000000C0
1800000060
3000000060
3000000030
2000000030
6000000010
4000000018
4000000018
4000000008
C000000008
C000000008
FFFFFFFFF8
FFFFFFFFF8
C000000000
C000000000
C000000000
C000000000
4000000000
4000000000
6000000000
6000000000
2000000000
3000000000
1800000000
1800000000
0C00000000
0600000060
03000000C0
0180000180
00E0000700
0038001E00
000F81F800
0003FFC000
ENDCHAR
STARTCHAR 00EC
ENCODING 236
SWIDTH 244 0
DWIDTH 19 0
BBX 13 56 0 0
BITMAP
E000
7000
3800
0E00
0700
0380
00C0
0070
0038
0000
0000
0000
0000
0000
0000
0000
0060
0060
0060
0060
0060
0060
0060
0060
0060
0060
0060
0060
0060
0060
0060
0060
0060
0060
0060
0060
0060
0060
0060
0060
0060
0060
0060
0060
0060
0060
0060
0060
0060
0060
0060
0060
0060
0060
0060
0060
ENDCHAR
STARTCHAR 00ED
ENCODING 237
SWIDTH 244 0
DWIDTH 19 0
BBX 13 56 7 0
BITMAP
0038
00F0
01C0
0380
0600
1C00
3800
6000
C000
0000
0000
0000
0000
0000
0000
0000
3000
3000
3000
3000
3000
3000
3000
3000
3000
3000
3000
3000
3000
3000
3000
3000
3000
3000
3000
3000
3000
3000
3000
3000
3000
3000
3000
3000
3000
3000
3000
3000
3000
3000
3000
3000
3000
3000
3000
3000
ENDCHAR
STARTCHAR 00EE
ENCODING 238
SWIDTH 244 0
DWIDTH 19 0
BBX 17 56 1 0
BITMAP
01C000
03E000
033000
061800
0C1C00
180E00
300600
600300
C00180
000000
000000
000000
000000
000000
000000
000000
00C000
00C000
00C000
00C000
00C000
00C000
00C000
00C000
00C000
00C000
00C000
00C000
00C000
00C000
00C000
00C000
00C000
00C000
00C000
00C000
00C000
00C000
00C000
00C000
00C000
00C000
00C000
00C000
00C000
00C000
00C000
00C000
00C000
00C000
00C000
00C000
00C000
00C000
00C000
00C000
ENDCHAR
STARTCHAR 00EF
ENCODING 239
SWIDTH 244 0
DWIDTH 19 0
BBX 13 54 3 0
BITMAP
7030
7078
F078
7038
0000
0000
0000
0000
0000
0000
0000
0000
0000
0000
0300
0300
0300
0300
0300
0300
0300
0300
0300
0300
0300
0300
0300
0300
0300
0300
0300
0300
0300
0300
0300
0300
0300
0300
0300
0300
0300
0300
0300
0300
0300
0300
0300
0300
0300
0300
0300
0300
0300
0300
ENDCHAR
STARTCHAR 00F0
ENCODING 240
SWIDTH 617 0
DWIDTH 48 0
BBX 40 55 4 0
BITMAP
000FE00000
03FFFF0070
0F0003E3C0
0000007F00
0000003C00
000000F600
0000078380
00001E0180
00007800C0
0001E00060
000F000030
003C000030
00F0000018
01C0000008
000000000C
000000000C
0000000004
0000000006
0000000006
0000000002
0000000002
0000000002
000FFF8003
007C01F003
01E0003C03
0380000E03
0600000303
0C00000183
18000000C3
1000000063
3000000023
6000000033
6000000013
400000001B
400000001A
C00000000A
C00000000E
C00000000E
C00000000E
C00000000C
C00000000C
C00000000C
4000000018
6000000018
6000000030
2000000030
3000000060
1800000060
18000000C0
0C00000180
0700000700
0380000E00
00E0003800
003F03E000
000FFF0000
ENDCHAR
STARTCHAR 00F1
ENCODING 241
SWIDTH 655 0
DWIDTH 51 0
BBX 34 55 9 0
BITMAP
003C003000
00FF003000
00C1802000
0180C06000
010060C000
01003FC000
03000F0000
0000000000
0000000000
0000000000
0000000000
0000000000
0000000000
0000000000
0000000000
C00FFF8000
C07C01E000
C0E0003800
C380001C00
C600000600
CC00000300
C800000300
D800000180
F000000180
E0000000C0
E0000000C0
E0000000C0
C000000040
C000000040
C000000040
C000000040
C000000040
C000000040
C000000040
C000000040
C000000040
C000000040
C000000040
C000000040
C000000040
C000000040
C000000040
C000000040
C000000040
C000000040
C000000040
C000000040
C000000040
C000000040
C000000040
C000000040
C000000040
C000000040
C000000040
C000000040
ENDCHAR
STARTCHAR 00F2
ENCODING 242
SWIDTH 604 0
DWIDTH 47 0
BBX 39 56 4 0
BITMAP
0038000000
001C000000
000E000000
0003800000
0001C00000
0000E00000
0000300000
00001C0000
00000E0000
0000000000
0000000000
0000000000
0000000000
0000000000
0000000000
0000000000
0007FFC000
001F00F800
0070001C00
00C0000700
0180000180
03000000C0
0600000060
0C00000030
1800000030
1000000018
3000000008
200000000C
600000000C
6000000004
4000000006
4000000006
C000000006
C000000002
C000000002
C000000002
C000000002
C000000002
C000000002
C000000006
4000000006
4000000006
6000000004
600000000C
300000000C
3000000018
1800000018
1800000030
0C00000060
0600000060
03000001C0
0180000380
00E0000600
0078001C00
001F81F000
0003FF8000
ENDCHAR
STARTCHAR 00F3
ENCODING 243
SWIDTH 604 0
DWIDTH 47 0
BBX 39 56 4 0
BITMAP
0000001C00
0000007800
000000E000
000001C000
0000030000
00000E0000
00001C0000
0000300000
0000600000
0000000000
0000000000
0000000000
0000000000
0000000000
0000000000
0000000000
0007FFC000
001F00F800
0070001C00
00C0000700
0180000180
03000000C0
0600000060
0C00000030
1800000030
1000000018
3000000008
200000000C
600000000C
6000000004
4000000006
4000000006
C000000006
C000000002
C000000002
C000000002
C000000002
C000000002
C000000002
C000000006
4000000006
4000000006
6000000004
600000000C
300000000C
3000000018
1800000018
1800000030
0C00000060
0600000060
03000001C0
0180000380
00E0000600
0078001C00
001F81F000
0003FF8000
ENDCHAR
STARTCHAR 00F4
ENCODING 244
SWIDTH 604 0
DWIDTH 47 0
BBX 39 56 4 0
BITMAP
0000380000
00007C0000
0000E60000
0001838000
000301C000
000600E000
000C003000
0038001800
0060000C00
0000000000
0000000000
0000000000
0000000000
0000000000
0000000000
0000000000
0007FFC000
001F00F800
0070001C00
00C0000700
0180000180
03000000C0
0600000060
0C00000030
1800000030
1000000018
3000000008
200000000C
600000000C
6000000004
4000000006
4000000006
C000000006
C000000002
C000000002
C000000002
C000000002
C000000002
C000000002
C000000006
4000000006
4000000006
6000000004
600000000C
300000000C
3000000018
1800000018
1800000030
0C00000060
0600000060
03000001C0
0180000380
00E0000600
0078001C00
001F81F000
0003FF8000
ENDCHAR
STARTCHAR 00F5
ENCODING 245
SWIDTH 604 0
DWIDTH 47 0
BBX 39 55 4 0
BITMAP
0007800400
001FE00400
0030700C00
0020180C00
00600C1800
006007F000
006001C000
0000000000
0000000000
0000000000
0000000000
0000000000
0000000000
0000000000
0000000000
0007FFC000
001F00F800
0070001C00
00C0000700
0180000180
03000000C0
0600000060
0C00000030
1800000030
1000000018
3000000008
200000000C
600000000C
6000000004
4000000006
4000000006
C000000006
C000000002
C000000002
C000000002
C000000002
C000000002
C000000002
C000000006
4000000006
4000000006
6000000004
600000000C
300000000C
3000000018
1800000018
1800000030
0C00000060
0600000060
03000001C0
0180000380
00E0000600
0078001C00
001F81F000
0003FF8000
ENDCHAR
STARTCHAR 00F6
ENCODING 246
SWIDTH 604 0
DWIDTH 47 0
BBX 39 54 4 0
BITMAP
000E006000
001E00F000
001E00F000
000E007000
0000000000
0000000000
0000000000
0000000000
0000000000
0000000000
0000000000
0000000000
0000000000
0000000000
0007FFC000
001F00F800
0070001C00
00C0000700
0180000180
03000000C0
0600000060
0C00000030
1800000030
1000000018
3000000008
200000000C
600000000C
6000000004
4000000006
4000000006
C000000006
C000000002
C000000002
C000000002
C000000002
C000000002
C000000002
C000000006
4000000006
4000000006
6000000004
600000000C
300000000C
3000000018
1800000018
1800000030
0C00000060
0600000060
03000001C0
0180000380
00E0000600
0078001C00
001F81F000
0003FF8000
ENDCHAR
STARTCHAR 00F7
ENCODING 247
SWIDTH 552 0
DWIDTH 43 0
BBX 32 32 6 11
BITMAP
00038000
0003C000
0003C000
00018000
00000000
00000000
00000000
00000000
00000000
00000000
00000000
00000000
00000000
00000000
00000000
FFFFFFFF
FFFFFFFF
00000000
00000000
00000000
00000000
00000000
00000000
00000000
00000000
00000000
00000000
00000000
00038000
0003C000
0003C000
00018000
ENDCHAR
STARTCHAR 00F8
ENCODING 248
SWIDTH 604 0
DWIDTH 47 0
BBX 39 51 4 -5
BITMAP
000000000C
0000000018
0000000010
0000000030
0000000060
0000000040
0007FFC0C0
001F00F980
0070001D00
00C0000700
0180000780
03000004C0
0600000C60
0C00001830
1800001030
1000003018
3000006008
200000C00C
600000C00C
6000018004
4000030006
4000030006
C000060006
C0000C0002
C0000C0002
C000180002
C000300002
C000200002
C000600002
C000C00006
4000800006
4001800006
6003000004
600200000C
300600000C
300C000018
1808000018
1818000030
0C30000060
0620000060
03600001C0
01C0000380
00E0000600
01F8001C00
031F81F000
0603FF8000
0600000000
0C00000000
1800000000
1800000000
3000000000
ENDCHAR
STARTCHAR 00F9
ENCODING 249
SWIDTH 655 0
DWIDTH 51 0
BBX 35 56 8 0
BITMAP
01E0000000
0070000000
0038000000
000C000000
0007000000
0003800000
0000C00000
0000600000
0000380000
0000000000
0000000000
0000000000
0000000000
0000000000
0000000000
0000000000
C000000060
C000000060
C000000060
C000000060
C000000060
C000000060
C000000060
C000000060
C000000060
C000000060
C000000060
C000000060
C000000060
C000000060
C000000060
C000000060
C000000060
C000000060
C000000060
C000000060
C000000060
C000000060
C000000060
C000000060
C000000060
4000000060
4000000060
40000000E0
60000000E0
60000000E0
60000001E0
3000000160
3000000360
1800000660
0C00000C60
0E00001860
0700003060
01C000E060
00FC0F8060
001FFE0060
ENDCHAR
STARTCHAR 00FA
ENCODING 250
SWIDTH 655 0
DWIDTH 51 0
BBX 35 56 8 0
BITMAP
0000007000
000001C000
0000038000
0000070000
00000C0000
0000380000
0000700000
0000C00000
0003800000
0000000000
0000000000
0000000000
0000000000
0000000000
0000000000
0000000000
C000000060
C000000060
C000000060
C000000060
C000000060
C000000060
C000000060
C000000060
C000000060
C000000060
C000000060
C000000060
C000000060
C000000060
C000000060
C000000060
C000000060
C000000060
C000000060
C000000060
C000000060
C000000060
C000000060
C000000060
C000000060
4000000060
4000000060
40000000E0
60000000E0
60000000E0
60000001E0
3000000160
3000000360
1800000660
0C00000C60
0E00001860
0700003060
01C000E060
00FC0F8060
001FFE0060
ENDCHAR
STARTCHAR 00FB
ENCODING 251
SWIDTH 655 0
DWIDTH 51 0
BBX 35 56 8 0
BITMAP
0000E00000
0001F00000
0003180000
00060C0000
000C070000
0038038000
007001C000
00C0006000
0180003000
0000000000
0000000000
0000000000
0000000000
0000000000
0000000000
0000000000
C000000060
C000000060
C000000060
C000000060
C000000060
C000000060
C000000060
C000000060
C000000060
C000000060
C000000060
C000000060
C000000060
C000000060
C000000060
C000000060
C000000060
C000000060
C000000060
C000000060
C000000060
C000000060
C000000060
C000000060
C000000060
4000000060
4000000060
40000000E0
60000000E0
60000000E0
60000001E0
3000000160
3000000360
1800000660
0C00000C60
0E00001860
0700003060
01C000E060
00FC0F8060
001FFE0060
ENDCHAR
STARTCHAR 00FC
ENCODING 252
SWIDTH 655 0
DWIDTH 51 0
BBX 35 54 8 0
BITMAP
0030018000
007803C000
007803C000
0038018000
0000000000
0000000000
0000000000
0000000000
0000000000
0000000000
0000000000
0000000000
0000000000
0000000000
C000000060
C000000060
C000000060
C000000060
C000000060
C000000060
C000000060
C000000060
C000000060
C000000060
C000000060
C000000060
C000000060
C000000060
C000000060
C000000060
C000000060
C000000060
C000000060
C000000060
C000000060
C000000060
C000000060
C000000060
C000000060
4000000060
4000000060
40000000E0
60000000E0
60000000E0
60000001E0
3000000160
3000000360
1800000660
0C00000C60
0E00001860
0700003060
01C000E060
00FC0F8060
001FFE0060
ENDCHAR
STARTCHAR 00FD
ENCODING 253
SWIDTH 501 0
DWIDTH 39 0
BBX 41 71 -2 -15
BITMAP
0000000E0000
000000380000
000000700000
000000E00000
000001800000
000007000000
00000E000000
000018000000
000070000000
000000000000
000000000000
000000000000
000000000000
000000000000
000000000000
000000000000
180000000180
180000000300
080000000300
0C0000000200
040000000600
060000000400
020000000C00
030000000C00
030000001800
018000001800
018000003000
00C000003000
00C000006000
006000006000
006000004000
00200000C000
003000008000
001000018000
001800010000
000800030000
000C00030000
000C00060000
000600060000
0006000C0000
0003000C0000
000300080000
000100180000
000180100000
000080300000
0000C0200000
000040600000
000060600000
000020C00000
000030C00000
000031800000
000019800000
000019000000
00000B000000
00000E000000
000006000000
000004000000
00000C000000
000008000000
000018000000
000018000000
000030000000
000030000000
000060000000
000060000000
0000C0000000
000180000000
C00380000000
E00700000000
3C1C00000000
0FF800000000
ENDCHAR
STARTCHAR 00FE
ENCODING 254
SWIDTH 668 0
DWIDTH 52 0
BBX 39 73 9 -15
BITMAP
C000000000
C000000000
C000000000
C000000000
C000000000
C000000000
C000000000
C000000000
C000000000
C000000000
C000000000
C000000000
C000000000
C000000000
C000000000
C000000000
C000000000
C000000000
C007FFC000
C01E00F000
C070001C00
C0C0000600
C380000380
C6000001C0
C4000000C0
CC00000060
D800000030
D000000010
F000000018
E000000008
E00000000C
C000000004
C000000004
C000000006
C000000006
C000000006
C000000006
C000000006
C000000006
C000000006
C000000006
C000000006
C000000006
C000000004
C00000000C
E00000000C
E000000008
F000000018
D000000010
D800000030
CC00000060
C6000000C0
C300000180
C180000300
C0C0000E00
C078003C00
C01F01F000
C003FF8000
C000000000
C000000000
C000000000
C000000000
C000000000
C000000000
C000000000
C000000000
C000000000
C000000000
C000000000
C000000000
C000000000
C000000000
C000000000
ENDCHAR
STARTCHAR 00FF
ENCODING 255
SWIDTH 501 0
DWIDTH 39 0
BBX 41 69 -2 -15
BITMAP
000600300000
000F00780000
000F00780000
000700300000
000000000000
000000000000
000000000000
000000000000
000000000000
000000000000
000000000000
000000000000
000000000000
000000000000
180000000180
180000000300
080000000300
0C0000000200
040000000600
060000000400
020000000C00
030000000C00
030000001800
018000001800
018000003000
00C000003000
00C000006000
006000006000
006000004000
00200000C000
003000008000
001000018000
001800010000
000800030000
000C00030000
000C00060000
000600060000
0006000C0000
0003000C0000
000300080000
000100180000
000180100000
000080300000
0000C0200000
000040600000
000060600000
000020C00000
000030C00000
000031800000
000019800000
000019000000
00000B000000
00000E000000
000006000000
000004000000
00000C000000
000008000000
000018000000
000018000000
000030000000
000030000000
000060000000
000060000000
0000C0000000
000180000000
C00380000000
E00700000000
3C1C00000000
0FF800000000
ENDCHAR
STARTCHAR 0100
ENCODING 256
SWIDTH 681 0
DWIDTH 53 0
BBX 52 64 1 0
BITMAP
0001FFFFF00000
0001FFFFF00000
00000000000000
00000000000000
00000000000000
00000000000000
00000000000000
00000000000000
00000000000000
00000000000000
00000060000000
000000E0000000
000000B0000000
00000190000000
00000118000000
00000308000000
0000030C000000
0000060C000000
00000606000000
00000C06000000
00000C03000000
00001803000000
00001801800000
00003001800000
00003000800000
00002000C00000
00006000400000
00004000600000
0000C000200000
00008000300000
00018000300000
00018000180000
00030000180000
000300000C0000
000600000C0000
00060000060000
000C0000060000
000C0000030000
00080000030000
00180000010000
00100000018000
00300000008000
0020000000C000
00600000004000
00600000006000
00C00000006000
00FFFFFFFFF000
01FFFFFFFFF000
01800000001800
03000000001800
03000000000C00
06000000000C00
06000000000400
04000000000600
0C000000000200
08000000000300
18000000000100
18000000000180
30000000000180
300000000000C0
600000000000C0
60000000000060
C0000000000060
C0000000000030
ENDCHAR
STARTCHAR 0101
ENCODING 257
SWIDTH 565 0
DWIDTH 44 0
BBX 31 52 5 0
BITMAP
03FFFFE0
00000000
00000000
00000000
00000000
00000000
00000000
00000000
00000000
00000000
00000000
00000000
003FFE00
01F00780
078000E0
0E000070
38000018
70000018
0000000C
00000004
00000006
00000006
00000006
00000006
00000002
00000002
00000002
00000002
00000002
00000002
003FFFFE
03FFFFFE
0F000002
18000002
30000002
60000002
60000002
40000002
C0000002
C0000002
C0000002
C0000006
C0000006
C000000E
4000001A
60000012
60000032
30000062
1C0001C2
0E000702
03E03E02
00FFF002
ENDCHAR
STARTCHAR 0102
ENCODING 258
SWIDTH 681 0
DWIDTH 53 0
BBX 52 67 1 0
BITMAP
00008000300000
00008000300000
0000C000300000
0000C000600000
00006000C00000
00003801C00000
00001E0F000000
000007FC000000
00000000000000
00000000000000
00000000000000
00000000000000
00000000000000
00000060000000
000000E0000000
000000B0000000
00000190000000
00000118000000
00000308000000
0000030C000000
0000060C000000
00000606000000
00000C06000000
00000C03000000
00001803000000
00001801800000
00003001800000
00003000800000
00002000C00000
00006000400000
00004000600000
0000C000200000
00008000300000
00018000300000
00018000180000
00030000180000
000300000C0000
000600000C0000
00060000060000
000C0000060000
000C0000030000
00080000030000
00180000010000
00100000018000
00300000008000
0020000000C000
00600000004000
00600000006000
00C00000006000
00FFFFFFFFF000
01FFFFFFFFF000
01800000001800
03000000001800
03000000000C00
06000000000C00
06000000000400
04000000000600
0C000000000200
08000000000300
18000000000100
18000000000180
30000000000180
300000000000C0
600000000000C0
60000000000060
C0000000000060
C0000000000030
ENDCHAR
STARTCHAR 0103
ENCODING 259
SWIDTH 565 0
DWIDTH 44 0
BBX 31 56 5 0
BITMAP
02000040
03000040
03000040
010000C0
01800080
00C00380
00700700
003F7C00
0007F000
00000000
00000000
00000000
00000000
00000000
00000000
00000000
003FFE00
01F00780
078000E0
0E000070
38000018
70000018
0000000C
00000004
00000006
00000006
00000006
00000006
00000002
00000002
00000002
00000002
00000002
00000002
003FFFFE
03FFFFFE
0F000002
18000002
30000002
60000002
60000002
40000002
C0000002
C0000002
C0000002
C0000006
C0000006
C000000E
4000001A
60000012
60000032
30000062
1C0001C2
0E000702
03E03E02
00FFF002
ENDCHAR
STARTCHAR 0104
ENCODING 260
SWIDTH 681 0
DWIDTH 53 0
BBX 53 71 1 -17
BITMAP
00000060000000
000000E0000000
000000B0000000
00000190000000
00000118000000
00000308000000
0000030C000000
0000060C000000
00000606000000
00000C06000000
00000C03000000
00001803000000
00001801800000
00003001800000
00003000800000
00002000C00000
00006000400000
00004000600000
0000C000200000
00008000300000
00018000300000
00018000180000
00030000180000
000300000C0000
000600000C0000
00060000060000
000C0000060000
000C0000030000
00080000030000
00180000010000
00100000018000
00300000008000
0020000000C000
00600000004000
00600000006000
00C00000006000
00FFFFFFFFF000
01FFFFFFFFF000
01800000001800
03000000001800
03000000000C00
06000000000C00
06000000000400
04000000000600
0C000000000200
08000000000300
18000000000100
18000000000180
30000000000180
300000000000C0
600000000000C0
60000000000060
C0000000000060
C0000000000070
000000000000E0
00000000000380
00000000000600
00000000001C00
00000000001800
00000000003000
00000000006000
00000000004000
00000000004000
0000000000C000
0000000000C000
00000000004000
00000000004000
00000000006008
00000000003838
00000000001FF0
00000000000180
ENDCHAR
STARTCHAR 0105
ENCODING 261
SWIDTH 565 0
DWIDTH 44 0
BBX 33 57 5 -17
BITMAP
003FFE0000
01F0078000
078000E000
0E00007000
3800001800
7000001800
0000000C00
0000000400
0000000600
0000000600
0000000600
0000000600
0000000200
0000000200
0000000200
0000000200
0000000200
0000000200
003FFFFE00
03FFFFFE00
0F00000200
1800000200
3000000200
6000000200
6000000200
4000000200
C000000200
C000000200
C000000200
C000000600
C000000600
C000000E00
4000001A00
6000001200
6000003200
3000006200
1C0001C200
0E00070200
03E03E0200
00FFF00600
0000001C00
0000007000
000000C000
0000018000
0000030000
0000060000
0000040000
00000C0000
00000C0000
0000080000
0000080000
0000080000
00000C0000
0000040100
0000070380
000001FE00
0000007000
ENDCHAR
STARTCHAR 0106
ENCODING 262
SWIDTH 707 0
DWIDTH 55 0
BBX 46 67 5 0
BITMAP
000000007800
00000000E000
000000038000
000000070000
0000000E0000
000000180000
000000700000
000000C00000
000000000000
000000000000
000000000000
000000000000
000000FC0000
00001FFFF000
0000F8003E00
0003C0000780
000F000000E0
001C00000070
007000000018
00E00000000C
01C000000000
038000000000
070000000000
060000000000
0C0000000000
180000000000
180000000000
300000000000
300000000000
600000000000
600000000000
400000000000
C00000000000
C00000000000
C00000000000
800000000000
800000000000
800000000000
800000000000
800000000000
800000000000
800000000000
800000000000
800000000000
C00000000000
C00000000000
C00000000000
400000000000
600000000000
600000000000
200000000000
300000000000
100000000000
180000000000
0C0000000000
0C0000000000
060000000000
030000000000
018000000000
00C000000000
00600000000C
003800000038
001C00000060
0007000001C0
0001E0000F00
00007F01FC00
000007FFC000
ENDCHAR
STARTCHAR 0107
ENCODING 263
SWIDTH 540 0
DWIDTH 42 0
BBX 34 56 4 0
BITMAP
0000003800
000000E000
000001C000
0000038000
0000060000
00001C0000
0000380000
0000600000
0001C00000
0000000000
0000000000
0000000000
0000000000
0000000000
0000000000
0000000000
0003FFC000
001F00F800
0078001E00
00C0000700
0180000180
03000000C0
0600000040
0C00000000
1800000000
1000000000
3000000000
2000000000
6000000000
6000000000
4000000000
4000000000
C000000000
C000000000
C000000000
C000000000
C000000000
C000000000
C000000000
C000000000
4000000000
4000000000
6000000000
6000000000
3000000000
3000000000
1800000000
1800000000
0C00000000
0600000040
03000000C0
0180000380
00E0000700
0038001C00
001F81F000
0003FF8000
ENDCHAR
STARTCHAR 0108
ENCODING 264
SWIDTH 707 0
DWIDTH 55 0
BBX 46 67 5 0
BITMAP
000000F80000
000001CC0000
000003860000
000007030000
00000C018000
00001800E000
000030007000
000060001800
000000000000
000000000000
000000000000
000000000000
000000FC0000
00001FFFF000
0000F8003E00
0003C0000780
000F000000E0
001C00000070
007000000018
00E00000000C
01C000000000
038000000000
070000000000
060000000000
0C0000000000
180000000000
180000000000
300000000000
300000000000
600000000000
600000000000
400000000000
C00000000000
C00000000000
C00000000000
800000000000
800000000000
800000000000
800000000000
800000000000
800000000000
800000000000
800000000000
800000000000
C00000000000
C00000000000
C00000000000
400000000000
600000000000
600000000000
200000000000
300000000000
100000000000
180000000000
0C0000000000
0C0000000000
060000000000
030000000000
018000000000
00C000000000
00600000000C
003800000038
001C00000060
0007000001C0
0001E0000F00
00007F01FC00
000007FFC000
ENDCHAR
STARTCHAR 0109
ENCODING 265
SWIDTH 540 0
DWIDTH 42 0
BBX 34 56 4 0
BITMAP
0000700000
0000F80000
00018C0000
0003070000
0006038000
000C01C000
0038006000
0070003000
00C0001800
0000000000
0000000000
0000000000
0000000000
0000000000
0000000000
0000000000
0003FFC000
001F00F800
0078001E00
00C0000700
0180000180
03000000C0
0600000040
0C00000000
1800000000
1000000000
3000000000
2000000000
6000000000
6000000000
4000000000
4000000000
C000000000
C000000000
C000000000
C000000000
C000000000
C000000000
C000000000
C000000000
4000000000
4000000000
6000000000
6000000000
3000000000
3000000000
1800000000
1800000000
0C00000000
0600000040
03000000C0
0180000380
00E0000700
0038001C00
001F81F000
0003FF8000
ENDCHAR
STARTCHAR 010A
ENCODING 266
SWIDTH 707 0
DWIDTH 55 0
BBX 46 66 5 0
BITMAP
000000200000
000000780000
000000780000
000000700000
000000000000
000000000000
000000000000
000000000000
000000000000
000000000000
000000000000
000000FC0000
00001FFFF000
0000F8003E00
0003C0000780
000F000000E0
001C00000070
007000000018
00E00000000C
01C000000000
038000000000
070000000000
060000000000
0C0000000000
180000000000
180000000000
300000000000
300000000000
600000000000
600000000000
400000000000
C00000000000
C00000000000
C00000000000
800000000000
800000000000
800000000000
800000000000
800000000000
800000000000
800000000000
800000000000
800000000000
C00000000000
C00000000000
C00000000000
400000000000
600000000000
600000000000
200000000000
300000000000
100000000000
180000000000
0C0000000000
0C0000000000
060000000000
030000000000
018000000000
00C000000000
00600000000C
003800000038
001C00000060
0007000001C0
0001E0000F00
00007F01FC00
000007FFC000
ENDCHAR
STARTCHAR 010B
ENCODING 267
SWIDTH 540 0
DWIDTH 42 0
BBX 34 54 4 0
BITMAP
0000300000
0000780000
0000780000
0000700000
0000000000
0000000000
0000000000
0000000000
0000000000
0000000000
0000000000
0000000000
0000000000
0000000000
0003FFC000
001F00F800
0078001E00
00C0000700
0180000180
03000000C0
0600000040
0C00000000
1800000000
1000000000
3000000000
2000000000
6000000000
6000000000
4000000000
4000000000
C000000000
C000000000
C000000000
C000000000
C000000000
C000000000
C000000000
C000000000
4000000000
4000000000
6000000000
6000000000
3000000000
3000000000
1800000000
1800000000
0C00000000
0600000040
03000000C0
0180000380
00E0000700
0038001C00
001F81F000
0003FF8000
ENDCHAR
STARTCHAR 010C
ENCODING 268
SWIDTH 707 0
DWIDTH 55 0
BBX 46 67 5 0
BITMAP
000060003800
000030006000
00001C00C000
00000E018000
000007070000
0000018E0000
000000DC0000
000000780000
000000000000
000000000000
000000000000
000000000000
000000FC0000
00001FFFF000
0000F8003E00
0003C0000780
000F000000E0
001C00000070
007000000018
00E00000000C
01C000000000
038000000000
070000000000
060000000000
0C0000000000
180000000000
180000000000
300000000000
300000000000
600000000000
600000000000
400000000000
C00000000000
C00000000000
C00000000000
800000000000
800000000000
800000000000
800000000000
800000000000
800000000000
800000000000
800000000000
800000000000
C00000000000
C00000000000
C00000000000
400000000000
600000000000
600000000000
200000000000
300000000000
100000000000
180000000000
0C0000000000
0C0000000000
060000000000
030000000000
018000000000
00C000000000
00600000000C
003800000038
001C00000060
0007000001C0
0001E0000F00
00007F01FC00
000007FFC000
ENDCHAR
STARTCHAR 010D
ENCODING 269
SWIDTH 540 0
DWIDTH 42 0
BBX 34 56 4 0
BITMAP
00C0001800
0060003000
0038006000
001C01C000
0006038000
0003070000
00018C0000
0000F80000
0000700000
0000000000
0000000000
0000000000
0000000000
0000000000
0000000000
0000000000
0003FFC000
001F00F800
0078001E00
00C0000700
0180000180
03000000C0
0600000040
0C00000000
1800000000
1000000000
3000000000
2000000000
6000000000
6000000000
4000000000
4000000000
C000000000
C000000000
C000000000
C000000000
C000000000
C000000000
C000000000
C000000000
4000000000
4000000000
6000000000
6000000000
3000000000
3000000000
1800000000
1800000000
0C00000000
0600000040
03000000C0
0180000380
00E0000700
0038001C00
001F81F000
0003FF8000
ENDCHAR
STARTCHAR 010E
ENCODING 270
SWIDTH 822 0
DWIDTH 64 0
BBX 50 67 10 0
BITMAP
0038000E000000
000C0018000000
00060030000000
000300E0000000
0001C1C0000000
0000E380000000
00007700000000
00003C00000000
00000000000000
00000000000000
00000000000000
00000000000000
00000000000000
FFFFFFF8000000
C000001F800000
C0000001E00000
C0000000780000
C00000001C0000
C0000000070000
C0000000018000
C000000000C000
C0000000006000
C0000000003000
C0000000001800
C0000000001800
C0000000000C00
C0000000000400
C0000000000600
C0000000000200
C0000000000300
C0000000000100
C0000000000180
C0000000000180
C0000000000180
C0000000000080
C0000000000080
C0000000000080
C00000000000C0
C00000000000C0
C00000000000C0
C00000000000C0
C00000000000C0
C00000000000C0
C0000000000080
C0000000000080
C0000000000080
C0000000000180
C0000000000180
C0000000000100
C0000000000300
C0000000000300
C0000000000200
C0000000000600
C0000000000C00
C0000000000C00
C0000000001800
C0000000003000
C0000000006000
C000000000E000
C000000001C000
C0000000030000
C00000000E0000
C00000001C0000
C0000000F00000
C0000007C00000
C00007FE000000
FFFFFFE0000000
ENDCHAR
STARTCHAR 010F
ENCODING 271
SWIDTH 668 0
DWIDTH 52 0
BBX 49 59 4 0
BITMAP
00000000000180
00000000020180
00000000020180
00000000020180
00000000020180
00000000020180
00000000020180
00000000020100
00000000020100
00000000020100
00000000020100
00000000020100
00000000020100
00000000020100
00000000020000
00000000020000
00000000020000
00000000020000
00000000020000
0007FFC0020000
001F00F0020000
0070001C020000
00C00007020000
01800001820000
03000000C20000
06000000620000
0C000000220000
18000000320000
100000001A0000
300000000A0000
200000000E0000
600000000E0000
60000000060000
40000000060000
40000000060000
C0000000060000
C0000000020000
C0000000020000
C0000000020000
C0000000020000
C0000000020000
C0000000020000
C0000000060000
40000000060000
40000000060000
60000000060000
600000000E0000
300000000A0000
300000001A0000
18000000120000
18000000320000
0C000000620000
06000000420000
03000001820000
01800003820000
00E00006020000
0038001C020000
001F81F0020000
0003FF80020000
ENDCHAR
STARTCHAR 0110
ENCODING 272
SWIDTH 822 0
DWIDTH 64 0
BBX 58 54 2 0
BITMAP
00FFFFFFF8000000
00C000001F800000
00C0000001E00000
00C0000000780000
00C00000001C0000
00C0000000070000
00C0000000018000
00C000000000C000
00C0000000006000
00C0000000003000
00C0000000001800
00C0000000001800
00C0000000000C00
00C0000000000400
00C0000000000600
00C0000000000200
00C0000000000300
00C0000000000100
00C0000000000180
00C0000000000180
00C0000000000180
00C0000000000080
00C0000000000080
00C0000000000080
00C00000000000C0
00C00000000000C0
FFFFFFF0000000C0
00C00000000000C0
00C00000000000C0
00C00000000000C0
00C0000000000080
00C0000000000080
00C0000000000080
00C0000000000180
00C0000000000180
00C0000000000100
00C0000000000300
00C0000000000300
00C0000000000200
00C0000000000600
00C0000000000C00
00C0000000000C00
00C0000000001800
00C0000000003000
00C0000000006000
00C000000000E000
00C000000001C000
00C0000000030000
00C00000000E0000
00C00000001C0000
00C0000000F00000
00C0000007C00000
00C00007FE000000
00FFFFFFE0000000
ENDCHAR
STARTCHAR 0111
ENCODING 273
SWIDTH 668 0
DWIDTH 52 0
BBX 48 58 4 0
BITMAP
000000000200
000000000200
000000000200
000000000200
000000000200
000000000200
000000000200
000000000200
00001FFFFFFF
00001FFFFFFF
000000000200
000000000200
000000000200
000000000200
000000000200
000000000200
000000000200
000000000200
0007FFC00200
001F00F00200
0070001C0200
00C000070200
018000018200
03000000C200
060000006200
0C0000002200
180000003200
100000001A00
300000000A00
200000000E00
600000000E00
600000000600
400000000600
400000000600
C00000000600
C00000000200
C00000000200
C00000000200
C00000000200
C00000000200
C00000000200
C00000000600
400000000600
400000000600
600000000600
600000000E00
300000000A00
300000001A00
180000001200
180000003200
0C0000006200
060000004200
030000018200
018000038200
00E000060200
0038001C0200
001F81F00200
0003FF800200
ENDCHAR
STARTCHAR 0112
ENCODING 274
SWIDTH 655 0
DWIDTH 51 0
BBX 37 64 10 0
BITMAP
01FFFFF800
01FFFFF800
0000000000
0000000000
0000000000
0000000000
0000000000
0000000000
0000000000
0000000000
FFFFFFFFE0
C000000000
C000000000
C000000000
C000000000
C000000000
C000000000
C000000000
C000000000
C000000000
C000000000
C000000000
C000000000
C000000000
C000000000
C000000000
C000000000
C000000000
C000000000
C000000000
C000000000
C000000000
C000000000
C000000000
C000000000
C000000000
FFFFFFFF00
C000000000
C000000000
C000000000
C000000000
C000000000
C000000000
C000000000
C000000000
C000000000
C000000000
C000000000
C000000000
C000000000
C000000000
C000000000
C000000000
C000000000
C000000000
C000000000
C000000000
C000000000
C000000000
C000000000
C000000000
C000000000
C000000000
FFFFFFFFF8
ENDCHAR
STARTCHAR 0113
ENCODING 275
SWIDTH 578 0
DWIDTH 45 0
BBX 37 52 4 0
BITMAP
00FFFFF800
0000000000
0000000000
0000000000
0000000000
0000000000
0000000000
0000000000
0000000000
0000000000
0000000000
0000000000
0007FF8000
003E01E000
0070003800
01C0000C00
0300000700
0600000300
0C00000180
0C000000C0
1800000060
3000000060
3000000030
2000000030
6000000010
4000000018
4000000018
4000000008
C000000008
C000000008
FFFFFFFFF8
FFFFFFFFF8
C000000000
C000000000
C000000000
C000000000
4000000000
4000000000
6000000000
6000000000
2000000000
3000000000
1800000000
1800000000
0C00000000
0600000060
03000000C0
0180000180
00E0000700
0038001E00
000F81F800
0003FFC000
ENDCHAR
STARTCHAR 0114
ENCODING 276
SWIDTH 655 0
DWIDTH 51 0
BBX 37 67 10 0
BITMAP
0080001000
0080003000
00C0003000
0040006000
0060006000
003801C000
001E070000
0007FC0000
0000000000
0000000000
0000000000
0000000000
0000000000
FFFFFFFFE0
C000000000
C000000000
C000000000
C000000000
C000000000
C000000000
C000000000
C000000000
C000000000
C000000000
C000000000
C000000000
C000000000
C000000000
C000000000
C000000000
C000000000
C000000000
C000000000
C000000000
C000000000
C000000000
C000000000
C000000000
C000000000
FFFFFFFF00
C000000000
C000000000
C000000000
C000000000
C000000000
C000000000
C000000000
C000000000
C000000000
C000000000
C000000000
C000000000
C000000000
C000000000
C000000000
C000000000
C000000000
C000000000
C000000000
C000000000
C000000000
C000000000
C000000000
C000000000
C000000000
C000000000
FFFFFFFFF8
ENDCHAR
STARTCHAR 0115
ENCODING 277
SWIDTH 578 0
DWIDTH 45 0
BBX 37 56 4 0
BITMAP
0040000800
0040001800
0060001800
0060001000
0030003000
0038006000
000C00C000
0007DF8000
0001FC0000
0000000000
0000000000
0000000000
0000000000
0000000000
0000000000
0000000000
0007FF8000
003E01E000
0070003800
01C0000C00
0300000700
0600000300
0C00000180
0C000000C0
1800000060
3000000060
3000000030
2000000030
6000000010
4000000018
4000000018
4000000008
C000000008
C000000008
FFFFFFFFF8
FFFFFFFFF8
C000000000
C000000000
C000000000
C000000000
4000000000
4000000000
6000000000
6000000000
2000000000
3000000000
1800000000
1800000000
0C00000000
0600000060
03000000C0
0180000180
00E0000700
0038001E00
000F81F800
0003FFC000
ENDCHAR
STARTCHAR 0116
ENCODING 278
SWIDTH 655 0
DWIDTH 51 0
BBX 37 65 10 1
BITMAP
0000F00000
0000F00000
0000F00000
0000000000
0000000000
0000000000
0000000000
0000000000
0000000000
0000000000
0000000000
FFFFFFFFE0
C000000000
C000000000
C000000000
C000000000
C000000000
C000000000
C000000000
C000000000
C000000000
C000000000
C000000000
C000000000
C000000000
C000000000
C000000000
C000000000
C000000000
C000000000
C000000000
C000000000
C000000000
C000000000
C000000000
C000000000
C000000000
FFFFFFFF00
C000000000
C000000000
C000000000
C000000000
C000000000
C000000000
C000000000
C000000000
C000000000
C000000000
C000000000
C000000000
C000000000
C000000000
C000000000
C000000000
C000000000
C000000000
C000000000
C000000000
C000000000
C000000000
C000000000
C000000000
C000000000
C000000000
FFFFFFFFF8
ENDCHAR
STARTCHAR 0117
ENCODING 279
SWIDTH 578 0
DWIDTH 45 0
BBX 37 54 4 0
BITMAP
0000300000
0000780000
0000780000
0000700000
0000000000
0000000000
0000000000
0000000000
0000000000
0000000000
0000000000
0000000000
0000000000
0000000000
0007FF8000
003E01E000
0070003800
01C0000C00
0300000700
0600000300
0C00000180
0C000000C0
1800000060
3000000060
3000000030
2000000030
6000000010
4000000018
4000000018
4000000008
C000000008
C000000008
FFFFFFFFF8
FFFFFFFFF8
C000000000
C000000000
C000000000
C000000000
4000000000
4000000000
6000000000
6000000000
2000000000
3000000000
1800000000
1800000000
0C00000000
0600000060
03000000C0
0180000180
00E0000700
0038001E00
000F81F800
0003FFC000
ENDCHAR
STARTCHAR 0118
ENCODING 280
SWIDTH 655 0
DWIDTH 51 0
BBX 38 71 10 -17
BITMAP
FFFFFFFFE0
C000000000
C000000000
C000000000
C000000000
C000000000
C000000000
C000000000
C000000000
C000000000
C000000000
C000000000
C000000000
C000000000
C000000000
C000000000
C000000000
C000000000
C000000000
C000000000
C000000000
C000000000
C000000000
C000000000
C000000000
C000000000
FFFFFFFF00
C000000000
C000000000
C000000000
C000000000
C000000000
C000000000
C000000000
C000000000
C000000000
C000000000
C000000000
C000000000
C000000000
C000000000
C000000000
C000000000
C000000000
C000000000
C000000000
C000000000
C000000000
C000000000
C000000000
C000000000
C000000000
C000000000
FFFFFFFFF8
00000000E0
0000000180
0000000700
0000000C00
0000001800
0000001000
0000003000
0000002000
0000006000
0000006000
0000006000
0000006000
0000002000
0000003000
000000181C
0000000FF8
0000000080
ENDCHAR
STARTCHAR 0119
ENCODING 281
SWIDTH 578 0
DWIDTH 45 0
BBX 37 57 4 -17
BITMAP
0007FF8000
003E01E000
0070003800
01C0000C00
0300000700
0600000300
0C00000180
0C000000C0
1800000060
3000000060
3000000030
2000000030
6000000010
4000000018
4000000018
4000000008
C000000008
C000000008
FFFFFFFFF8
FFFFFFFFF8
C000000000
C000000000
C000000000
C000000000
4000000000
4000000000
6000000000
6000000000
2000000000
3000000000
1800000000
1800000000
0C00000000
0600000060
03000000C0
0180000180
00E0000700
0038001E00
000F81FC00
0003FFD800
0000003000
0000006000
000000C000
000000C000
0000018000
0000010000
0000030000
0000020000
0000020000
0000020000
0000020000
0000020000
0000030000
0000030040
000001C0C0
000000FF80
0000000800
ENDCHAR
STARTCHAR 011A
ENCODING 282
SWIDTH 655 0
DWIDTH 51 0
BBX 37 67 10 0
BITMAP
00C0007000
007000E000
0038018000
000C030000
0006060000
00031C0000
0001F80000
0000F00000
0000000000
0000000000
0000000000
0000000000
0000000000
FFFFFFFFE0
C000000000
C000000000
C000000000
C000000000
C000000000
C000000000
C000000000
C000000000
C000000000
C000000000
C000000000
C000000000
C000000000
C000000000
C000000000
C000000000
C000000000
C000000000
C000000000
C000000000
C000000000
C000000000
C000000000
C000000000
C000000000
FFFFFFFF00
C000000000
C000000000
C000000000
C000000000
C000000000
C000000000
C000000000
C000000000
C000000000
C000000000
C000000000
C000000000
C000000000
C000000000
C000000000
C000000000
C000000000
C000000000
C000000000
C000000000
C000000000
C000000000
C000000000
C000000000
C000000000
C000000000
FFFFFFFFF8
ENDCHAR
STARTCHAR 011B
ENCODING 283
SWIDTH 578 0
DWIDTH 45 0
BBX 37 56 4 0
BITMAP
00E0001800
0030003000
0018006000
000C00C000
0006038000
0003870000
0001CE0000
0000FC0000
0000700000
0000000000
0000000000
0000000000
0000000000
0000000000
0000000000
0000000000
0007FF8000
003E01E000
0070003800
01C0000C00
0300000700
0600000300
0C00000180
0C000000C0
1800000060
3000000060
3000000030
2000000030
6000000010
4000000018
4000000018
4000000008
C000000008
C000000008
FFFFFFFFF8
FFFFFFFFF8
C000000000
C000000000
C000000000
C000000000
4000000000
4000000000
6000000000
6000000000
2000000000
3000000000
1800000000
1800000000
0C00000000
0600000060
03000000C0
0180000180
00E0000700
0038001E00
000F81F800
0003FFC000
ENDCHAR
STARTCHAR 011C
ENCODING 284
SWIDTH 771 0
DWIDTH 60 0
BBX 46 67 5 0
BITMAP
000000F00000
000001DC0000
0000030E0000
000006070000
00000C018000
00001800C000
000070006000
0000C0003000
000000000000
000000000000
000000000000
000000000000
000000FC0000
00001FFFF000
0000F8003E00
0003C0000380
000F000000E0
001C00000038
00700000001C
00E000000004
01C000000000
038000000000
070000000000
060000000000
0C0000000000
180000000000
180000000000
300000000000
300000000000
600000000000
600000000000
400000000000
C00000000000
C00000000000
C00000000000
800000000000
800000000000
800000000000
800000000000
800000000000
800000000004
800000000004
800000000004
800000000004
C00000000004
C00000000004
C00000000004
400000000004
600000000004
600000000004
200000000004
300000000004
100000000004
180000000004
0C0000000004
0C0000000004
060000000004
030000000004
018000000004
00C000000004
00600000000C
003800000018
001E00000070
0007800001C0
0001E0000F00
00007F01FC00
000007FFE000
ENDCHAR
STARTCHAR 011D
ENCODING 285
SWIDTH 668 0
DWIDTH 52 0
BBX 40 71 4 -15
BITMAP
00001C0000
00003E0000
0000630000
0000C18000
000180E000
0007007000
000E003800
0018000C00
0030000600
0000000000
0000000000
0000000000
0000000000
0000000000
0000000000
0000000000
0007FFC003
001F00F803
0070000E03
00C0000303
0380000183
07000000C3
0E00000063
0C00000033
180000001B
300000000B
300000000F
2000000007
6000000007
4000000007
4000000003
C000000003
C000000003
C000000003
C000000003
C000000003
C000000003
C000000003
C000000003
4000000003
4000000007
6000000007
6000000007
300000000F
300000000B
180000001B
0800000033
0C00000023
0600000063
03800001C3
01C0000383
0070000E03
003E007803
0007FFE003
00007E0003
0000000003
0000000002
0000000002
0000000002
0000000006
0000000006
0000000004
000000000C
0000000008
1800000018
0E00000030
0700000060
01C00000C0
00F8000380
001F803E00
0003FFF000
ENDCHAR
STARTCHAR 011E
ENCODING 286
SWIDTH 771 0
DWIDTH 60 0
BBX 46 67 5 0
BITMAP
0000C0001000
0000C0001000
000040003000
000060003000
000030006000
00003800C000
00000E078000
000007FE0000
000000000000
000000000000
000000000000
000000000000
000000FC0000
00001FFFF000
0000F8003E00
0003C0000380
000F000000E0
001C00000038
00700000001C
00E000000004
01C000000000
038000000000
070000000000
060000000000
0C0000000000
180000000000
180000000000
300000000000
300000000000
600000000000
600000000000
400000000000
C00000000000
C00000000000
C00000000000
800000000000
800000000000
800000000000
800000000000
800000000000
800000000004
800000000004
800000000004
800000000004
C00000000004
C00000000004
C00000000004
400000000004
600000000004
600000000004
200000000004
300000000004
100000000004
180000000004
0C0000000004
0C0000000004
060000000004
030000000004
018000000004
00C000000004
00600000000C
003800000018
001E00000070
0007800001C0
0001E0000F00
00007F01FC00
000007FFE000
ENDCHAR
STARTCHAR 011F
ENCODING 287
SWIDTH 668 0
DWIDTH 52 0
BBX 40 71 4 -15
BITMAP
0030000600
0030000600
0010000400
0018000C00
0018000C00
000C001800
0007007000
0001F7E000
00007F0000
0000000000
0000000000
0000000000
0000000000
0000000000
0000000000
0000000000
0007FFC003
001F00F803
0070000E03
00C0000303
0380000183
07000000C3
0E00000063
0C00000033
180000001B
300000000B
300000000F
2000000007
6000000007
4000000007
4000000003
C000000003
C000000003
C000000003
C000000003
C000000003
C000000003
C000000003
C000000003
4000000003
4000000007
6000000007
6000000007
300000000F
300000000B
180000001B
0800000033
0C00000023
0600000063
03800001C3
01C0000383
0070000E03
003E007803
0007FFE003
00007E0003
0000000003
0000000002
0000000002
0000000002
0000000006
0000000006
0000000004
000000000C
0000000008
1800000018
0E00000030
0700000060
01C00000C0
00F8000380
001F803E00
0003FFF000
ENDCHAR
STARTCHAR 0120
ENCODING 288
SWIDTH 771 0
DWIDTH 60 0
BBX 46 65 5 1
BITMAP
000000700000
000000F00000
000000700000
000000200000
000000000000
000000000000
000000000000
000000000000
000000000000
000000000000
000000FC0000
00001FFFF000
0000F8003E00
0003C0000380
000F000000E0
001C00000038
00700000001C
00E000000004
01C000000000
038000000000
070000000000
060000000000
0C0000000000
180000000000
180000000000
300000000000
300000000000
600000000000
600000000000
400000000000
C00000000000
C00000000000
C00000000000
800000000000
800000000000
800000000000
800000000000
800000000000
800000000004
800000000004
800000000004
800000000004
C00000000004
C00000000004
C00000000004
400000000004
600000000004
600000000004
200000000004
300000000004
100000000004
180000000004
0C0000000004
0C0000000004
060000000004
030000000004
018000000004
00C000000004
00600000000C
003800000018
001E00000070
0007800001C0
0001E0000F00
00007F01FC00
000007FFE000
ENDCHAR
STARTCHAR 0121
ENCODING 289
SWIDTH 668 0
DWIDTH 52 0
BBX 40 69 4 -15
BITMAP
00001C0000
00001C0000
00001C0000
00001C0000
0000000000
0000000000
0000000000
0000000000
0000000000
0000000000
0000000000
0000000000
0000000000
0000000000
0007FFC003
001F00F803
0070000E03
00C0000303
0380000183
07000000C3
0E00000063
0C00000033
180000001B
300000000B
300000000F
2000000007
6000000007
4000000007
4000000003
C000000003
C000000003
C000000003
C000000003
C000000003
C000000003
C000000003
C000000003
4000000003
4000000007
6000000007
6000000007
300000000F
300000000B
180000001B
0800000033
0C00000023
0600000063
03800001C3
01C0000383
0070000E03
003E007803
0007FFE003
00007E0003
0000000003
0000000002
0000000002
0000000002
0000000006
0000000006
0000000004
000000000C
0000000008
1800000018
0E00000030
0700000060
01C00000C0
00F8000380
001F803E00
0003FFF000
ENDCHAR
STARTCHAR 0122
ENCODING 290
SWIDTH 771 0
DWIDTH 60 0
BBX 46 75 5 -20
BITMAP
000000FC0000
00001FFFF000
0000F8003E00
0003C0000380
000F000000E0
001C00000038
00700000001C
00E000000004
01C000000000
038000000000
070000000000
060000000000
0C0000000000
180000000000
180000000000
300000000000
300000000000
600000000000
600000000000
400000000000
C00000000000
C00000000000
C00000000000
800000000000
800000000000
800000000000
800000000000
800000000000
800000000004
800000000004
800000000004
800000000004
C00000000004
C00000000004
C00000000004
400000000004
600000000004
600000000004
200000000004
300000000004
100000000004
180000000004
0C0000000004
0C0000000004
060000000004
030000000004
018000000004
00C000000004
00600000000C
003800000018
001E00000070
0007800001C0
0001E0000F00
00007F01FC00
000007FFE000
000000000000
000000000000
000000000000
000000000000
000000000000
000000000000
000000000000
000000000000
000000000000
000000000000
000000700000
000000F00000
000000F00000
000000700000
000000300000
000000200000
000000600000
000000600000
000000600000
000000400000
ENDCHAR
STARTCHAR 0123
ENCODING 291
SWIDTH 668 0
DWIDTH 52 0
BBX 40 74 4 -15
BITMAP
0000040000
0000040000
00000C0000
00000C0000
00000C0000
0000180000
0000180000
0000180000
00001C0000
00003C0000
00001C0000
00001C0000
0000000000
0000000000
0000000000
0000000000
0000000000
0000000000
0000000000
0007FFC003
001F00F803
0070000E03
00C0000303
0380000183
07000000C3
0E00000063
0C00000033
180000001B
300000000B
300000000F
2000000007
6000000007
4000000007
4000000003
C000000003
C000000003
C000000003
C000000003
C000000003
C000000003
C000000003
C000000003
4000000003
4000000007
6000000007
6000000007
300000000F
300000000B
180000001B
0800000033
0C00000023
0600000063
03800001C3
01C0000383
0070000E03
003E007803
0007FFE003
00007E0003
0000000003
0000000002
0000000002
0000000002
0000000006
0000000006
0000000004
000000000C
0000000008
1800000018
0E00000030
0700000060
01C00000C0
00F8000380
001F803E00
0003FFF000
ENDCHAR
STARTCHAR 0124
ENCODING 292
SWIDTH 810 0
DWIDTH 63 0
BBX 43 67 10 0
BITMAP
00001F000000
000039800000
000070C00000
0000E0600000
000180300000
0003001C0000
0006000E0000
000C00030000
000000000000
000000000000
000000000000
000000000000
000000000000
C00000000020
C00000000020
C00000000020
C00000000020
C00000000020
C00000000020
C00000000020
C00000000020
C00000000020
C00000000020
C00000000020
C00000000020
C00000000020
C00000000020
C00000000020
C00000000020
C00000000020
C00000000020
C00000000020
C00000000020
C00000000020
C00000000020
C00000000020
C00000000020
C00000000020
C00000000020
FFFFFFFFFFE0
C00000000020
C00000000020
C00000000020
C00000000020
C00000000020
C00000000020
C00000000020
C00000000020
C00000000020
C00000000020
C00000000020
C00000000020
C00000000020
C00000000020
C00000000020
C00000000020
C00000000020
C00000000020
C00000000020
C00000000020
C00000000020
C00000000020
C00000000020
C00000000020
C00000000020
C00000000020
C00000000020
ENDCHAR
STARTCHAR 0125
ENCODING 293
SWIDTH 655 0
DWIDTH 51 0
BBX 44 71 -1 0
BITMAP
007000000000
00F800000000
01CC00000000
030700000000
060380000000
0C01C0000000
180060000000
700030000000
E00018000000
000000000000
000000000000
000000000000
000000000000
003000000000
003000000000
003000000000
003000000000
003000000000
003000000000
003000000000
003000000000
003000000000
003000000000
003000000000
003000000000
003000000000
003000000000
003000000000
003000000000
003000000000
003000000000
003003FFE000
00301F007800
003038000E00
0030E0000700
003180000180
0033000000C0
0032000000C0
003600000060
003C00000060
003800000030
003800000030
003800000030
003000000010
003000000010
003000000010
003000000010
003000000010
003000000010
003000000010
003000000010
003000000010
003000000010
003000000010
003000000010
003000000010
003000000010
003000000010
003000000010
003000000010
003000000010
003000000010
003000000010
003000000010
003000000010
003000000010
003000000010
003000000010
003000000010
003000000010
003000000010
ENDCHAR
STARTCHAR 0126
ENCODING 294
SWIDTH 810 0
DWIDTH 63 0
BBX 60 54 2 0
BITMAP
00C0000000002000
00C0000000002000
00C0000000002000
00C0000000002000
00C0000000002000
00C0000000002000
00C0000000002000
00C0000000002000
00C0000000002000
00C0000000002000
00C0000000002000
FFFFFFFFFFFFFFF0
FFFFFFFFFFFFFFF0
00C0000000002000
00C0000000002000
00C0000000002000
00C0000000002000
00C0000000002000
00C0000000002000
00C0000000002000
00C0000000002000
00C0000000002000
00C0000000002000
00C0000000002000
00C0000000002000
00C0000000002000
00FFFFFFFFFFE000
00C0000000002000
00C0000000002000
00C0000000002000
00C0000000002000
00C0000000002000
00C0000000002000
00C0000000002000
00C0000000002000
00C0000000002000
00C0000000002000
00C0000000002000
00C0000000002000
00C0000000002000
00C0000000002000
00C0000000002000
00C0000000002000
00C0000000002000
00C0000000002000
00C0000000002000
00C0000000002000
00C0000000002000
00C0000000002000
00C0000000002000
00C0000000002000
00C0000000002000
00C0000000002000
00C0000000002000
ENDCHAR
STARTCHAR 0127
ENCODING 295
SWIDTH 655 0
DWIDTH 51 0
BBX 43 58 0 0
BITMAP
006000000000
006000000000
006000000000
006000000000
006000000000
006000000000
006000000000
006000000000
FFFFFFF80000
FFFFFFF80000
006000000000
006000000000
006000000000
006000000000
006000000000
006000000000
006000000000
006000000000
006007FFC000
00603E00F000
006070001C00
0061C0000E00
006300000300
006600000180
006400000180
006C000000C0
0078000000C0
007000000060
007000000060
007000000060
006000000020
006000000020
006000000020
006000000020
006000000020
006000000020
006000000020
006000000020
006000000020
006000000020
006000000020
006000000020
006000000020
006000000020
006000000020
006000000020
006000000020
006000000020
006000000020
006000000020
006000000020
006000000020
006000000020
006000000020
006000000020
006000000020
006000000020
006000000020
ENDCHAR
STARTCHAR 0128
ENCODING 296
SWIDTH 282 0
DWIDTH 22 0
BBX 21 67 1 0
BITMAP
0C0000
3F8018
61C010
C06010
C03030
801CE0
800FC0
000000
000000
000000
000000
000000
000000
006000
006000
006000
006000
006000
006000
006000
006000
006000
006000
006000
006000
006000
006000
006000
006000
006000
006000
006000
006000
006000
006000
006000
006000
006000
006000
006000
006000
006000
006000
006000
006000
006000
006000
006000
006000
006000
006000
006000
006000
006000
006000
006000
006000
006000
006000
006000
006000
006000
006000
006000
006000
006000
006000
ENDCHAR
STARTCHAR 0129
ENCODING 297
SWIDTH 244 0
DWIDTH 19 0
BBX 17 55 1 0
BITMAP
1E0080
3F0080
618080
40C180
C06180
C07F00
C01C00
000000
000000
000000
000000
000000
000000
000000
000000
00C000
00C000
00C000
00C000
00C000
00C000
00C000
00C000
00C000
00C000
00C000
00C000
00C000
00C000
00C000
00C000
00C000
00C000
00C000
00C000
00C000
00C000
00C000
00C000
00C000
00C000
00C000
00C000
00C000
00C000
00C000
00C000
00C000
00C000
00C000
00C000
00C000
00C000
00C000
00C000
ENDCHAR
STARTCHAR 012A
ENCODING 298
SWIDTH 282 0
DWIDTH 22 0
BBX 18 64 2 0
BITMAP
FFFFC0
FFFFC0
000000
000000
000000
000000
000000
000000
000000
000000
00C000
00C000
00C000
00C000
00C000
00C000
00C000
00C000
00C000
00C000
00C000
00C000
00C000
00C000
00C000
00C000
00C000
00C000
00C000
00C000
00C000
00C000
00C000
00C000
00C000
00C000
00C000
00C000
00C000
00C000
00C000
00C000
00C000
00C000
00C000
00C000
00C000
00C000
00C000
00C000
00C000
00C000
00C000
00C000
00C000
00C000
00C000
00C000
00C000
00C000
00C000
00C000
00C000
00C000
ENDCHAR
STARTCHAR 012B
ENCODING 299
SWIDTH 244 0
DWIDTH 19 0
BBX 17 52 1 0
BITMAP
FFFF80
000000
000000
000000
000000
000000
000000
000000
000000
000000
000000
000000
00C000
00C000
00C000
00C000
00C000
00C000
00C000
00C000
00C000
00C000
00C000
00C000
00C000
00C000
00C000
00C000
00C000
00C000
00C000
00C000
00C000
00C000
00C000
00C000
00C000
00C000
00C000
00C000
00C000
00C000
00C000
00C000
00C000
00C000
00C000
00C000
00C000
00C000
00C000
00C000
ENDCHAR
STARTCHAR 012C
ENCODING 300
SWIDTH 282 0
DWIDTH 22 0
BBX 20 67 1 0
BITMAP
800010
C00010
C00030
600020
700060
3801C0
0E0780
07FE00
000000
000000
000000
000000
000000
006000
006000
006000
006000
006000
006000
006000
006000
006000
006000
006000
006000
006000
006000
006000
006000
006000
006000
006000
006000
006000
006000
006000
006000
006000
006000
006000
006000
006000
006000
006000
006000
006000
006000
006000
006000
006000
006000
006000
006000
006000
006000
006000
006000
006000
006000
006000
006000
006000
006000
006000
006000
006000
006000
ENDCHAR
STARTCHAR 012D
ENCODING 301
SWIDTH 244 0
DWIDTH 19 0
BBX 17 56 1 0
BITMAP
C00080
C00180
400180
400180
600300
300300
180600
0F7C00
03F000
000000
000000
000000
000000
000000
000000
000000
00C000
00C000
00C000
00C000
00C000
00C000
00C000
00C000
00C000
00C000
00C000
00C000
00C000
00C000
00C000
00C000
00C000
00C000
00C000
00C000
00C000
00C000
00C000
00C000
00C000
00C000
00C000
00C000
00C000
00C000
00C000
00C000
00C000
00C000
00C000
00C000
00C000
00C000
00C000
00C000
ENDCHAR
STARTCHAR 012E
ENCODING 302
SWIDTH 282 0
DWIDTH 22 0
BBX 9 71 6 -17
BITMAP
0C00
0C00
0C00
0C00
0C00
0C00
0C00
0C00
0C00
0C00
0C00
0C00
0C00
0C00
0C00
0C00
0C00
0C00
0C00
0C00
0C00
0C00
0C00
0C00
0C00
0C00
0C00
0C00
0C00
0C00
0C00
0C00
0C00
0C00
0C00
0C00
0C00
0C00
0C00
0C00
0C00
0C00
0C00
0C00
0C00
0C00
0C00
0C00
0C00
0C00
0C00
0C00
0C00
0C00
0800
1800
3000
2000
6000
4000
4000
C000
C000
C000
C000
C000
C000
4000
6180
3F00
0400
ENDCHAR
STARTCHAR 012F
ENCODING 303
SWIDTH 244 0
DWIDTH 19 0
BBX 9 71 5 -17
BITMAP
1C00
1E00
1E00
0C00
0000
0000
0000
0000
0000
0000
0000
0000
0000
0000
0000
0C00
0C00
0C00
0C00
0C00
0C00
0C00
0C00
0C00
0C00
0C00
0C00
0C00
0C00
0C00
0C00
0C00
0C00
0C00
0C00
0C00
0C00
0C00
0C00
0C00
0C00
0C00
0C00
0C00
0C00
0C00
0C00
0C00
0C00
0C00
0C00
0C00
0C00
0C00
0C00
1800
3000
3000
6000
4000
C000
C000
C000
8000
8000
8000
8000
C000
C000
6180
3F00
ENDCHAR
STARTCHAR 0130
ENCODING 304
SWIDTH 282 0
DWIDTH 22 0
BBX 4 66 9 0
BITMAP
20
F0
F0
F0
00
00
00
00
00
00
00
00
60
60
60
60
60
60
60
60
60
60
60
60
60
60
60
60
60
60
60
60
60
60
60
60
60
60
60
60
60
60
60
60
60
60
60
60
60
60
60
60
60
60
60
60
60
60
60
60
60
60
60
60
60
60
ENDCHAR
STARTCHAR 0131
ENCODING 305
SWIDTH 244 0
DWIDTH 19 0
BBX 2 40 9 0
BITMAP
C0
C0
C0
C0
C0
C0
C0
C0
C0
C0
C0
C0
C0
C0
C0
C0
C0
C0
C0
C0
C0
C0
C0
C0
C0
C0
C0
C0
C0
C0
C0
C0
C0
C0
C0
C0
C0
C0
C0
C0
ENDCHAR
STARTCHAR 0132
ENCODING 306
SWIDTH 707 0
DWIDTH 55 0
BBX 36 54 10 0
BITMAP
8000000030
8000000030
8000000030
8000000030
8000000030
8000000030
8000000030
8000000030
8000000030
8000000030
8000000030
8000000030
8000000030
8000000030
8000000030
8000000030
8000000030
8000000030
8000000030
8000000030
8000000030
8000000030
8000000030
8000000030
8000000030
8000000030
8000000030
8000000030
8000000030
8000000030
8000000030
0000000030
0000000030
0000000030
0000000030
0000000020
0000000020
0000000020
0000000060
0000000060
0000000040
0000000040
00000000C0
0000000080
0000000180
0000000100
0000000300
0000000600
8000000C00
E000001800
7800007000
1E0001C000
03F01F0000
007FFC0000
ENDCHAR
STARTCHAR 0133
ENCODING 307
SWIDTH 501 0
DWIDTH 39 0
BBX 24 70 8 -15
BITMAP
E0000E
F0000F
F0000E
600004
000000
000000
000000
000000
000000
000000
000000
000000
000000
000000
000000
600004
600004
600004
600004
600004
600004
600004
600004
600004
600004
600004
600004
600004
600004
600004
600004
600004
600004
600004
600004
600004
600004
600004
600004
600004
600004
600004
600004
600004
600004
600004
600004
600004
600004
600004
600004
600004
600004
600004
600004
000004
000004
000004
000004
000004
000004
000004
000004
00000C
00000C
000018
000018
060030
03C1E0
00FF80
ENDCHAR
STARTCHAR 0134
ENCODING 308
SWIDTH 475 0
DWIDTH 37 0
BBX 27 67 0 0
BITMAP
0003E000
00067000
000C3800
00181C00
00300600
00E00300
01C00180
030000C0
00000000
00000000
00000000
00000000
00000000
07FFFFE0
00000020
00000020
00000020
00000020
00000020
00000020
00000020
00000020
00000020
00000020
00000020
00000020
00000020
00000020
00000020
00000020
00000020
00000020
00000020
00000020
00000020
00000020
00000020
00000020
00000020
00000020
00000020
00000020
00000020
00000020
00000020
00000020
00000020
00000020
00000020
00000020
00000020
00000020
00000020
00000020
00000020
00000060
00000060
00000060
00000040
C00000C0
600000C0
30000180
18000380
0C000700
07000E00
01F07800
007FE000
ENDCHAR
STARTCHAR 0135
ENCODING 309
SWIDTH 244 0
DWIDTH 19 0
BBX 26 71 -7 -15
BITMAP
0000E000
0001E000
00033000
00061800
000C0C00
00180600
00380300
00700180
006000C0
00000000
00000000
00000000
00000000
00000000
00000000
00000000
0000C000
0000C000
0000C000
0000C000
0000C000
0000C000
0000C000
0000C000
0000C000
0000C000
0000C000
0000C000
0000C000
0000C000
0000C000
0000C000
0000C000
0000C000
0000C000
0000C000
0000C000
0000C000
0000C000
0000C000
0000C000
0000C000
0000C000
0000C000
0000C000
0000C000
0000C000
0000C000
0000C000
0000C000
0000C000
0000C000
0000C000
0000C000
0000C000
0000C000
0000C000
0000C000
0000C000
0000C000
0000C000
0000C000
0000C000
0000C000
0000C000
00008000
00018000
40030000
E0070000
3C1C0000
0FF80000
ENDCHAR
STARTCHAR 0136
ENCODING 310
SWIDTH 681 0
DWIDTH 53 0
BBX 42 74 10 -20
BITMAP
C00000000300
C00000000600
C00000000C00
C00000001800
C00000003000
C00000006000
C0000000C000
C00000018000
C00000030000
C00000060000
C000000C0000
C00000180000
C00000300000
C00000600000
C00000C00000
C00001800000
C00003000000
C00006000000
C0000C000000
C0001C000000
C00038000000
C00070000000
C000E0000000
C001C0000000
C00380000000
C00380000000
C006C0000000
C00C60000000
C01830000000
C03018000000
C0600C000000
C0C006000000
C18003000000
C30003800000
C60001800000
CC0000C00000
D80000600000
F00000300000
E00000180000
C000000C0000
C00000060000
C00000030000
C00000030000
C00000018000
C0000000C000
C00000006000
C00000003000
C00000001800
C00000000C00
C00000000600
C00000000700
C00000000300
C00000000180
C000000000C0
000000000000
000000000000
000000000000
000000000000
000000000000
000000000000
000000000000
000000000000
000000000000
000000000000
000070000000
000078000000
000078000000
000038000000
000030000000
000030000000
000030000000
000020000000
000060000000
000060000000
ENDCHAR
STARTCHAR 0137
ENCODING 311
SWIDTH 565 0
DWIDTH 44 0
BBX 34 78 9 -20
BITMAP
C000000000
C000000000
C000000000
C000000000
C000000000
C000000000
C000000000
C000000000
C000000000
C000000000
C000000000
C000000000
C000000000
C000000000
C000000000
C000000000
C000000000
C000000000
C000000700
C000000C00
C000001800
C000003000
C000006000
C00000C000
C000018000
C000070000
C0000E0000
C0001C0000
C000300000
C000600000
C000C00000
C001800000
C003000000
C006000000
C00E000000
C03B000000
C061800000
C0C0C00000
C180C00000
C300600000
C600300000
CC00180000
D8000C0000
F0000C0000
E000060000
C000030000
C000018000
C00000C000
C00000C000
C000006000
C000003000
C000001800
C000000C00
C000000C00
C000000600
C000000300
C000000180
C0000000C0
0000000000
0000000000
0000000000
0000000000
0000000000
0000000000
0000000000
0000000000
0000000000
0000000000
0007000000
0007800000
0007800000
0003800000
0003000000
0003000000
0003000000
0002000000
0002000000
0006000000
ENDCHAR
STARTCHAR 0138
ENCODING 312
SWIDTH 552 0
DWIDTH 43 0
BBX 34 40 9 0
BITMAP
C000000700
C000000C00
C000001800
C000003000
C000006000
C00000C000
C000018000
C000070000
C0000E0000
C0001C0000
C000300000
C000600000
C000C00000
C001800000
C003000000
C006000000
C00E000000
C03B000000
C061800000
C0C0C00000
C180C00000
C300600000
C600300000
CC00180000
D8000C0000
F0000C0000
E000060000
C000030000
C000018000
C00000C000
C00000C000
C000006000
C000003000
C000001800
C000000C00
C000000C00
C000000600
C000000300
C000000180
C0000000C0
ENDCHAR
STARTCHAR 0139
ENCODING 313
SWIDTH 578 0
DWIDTH 45 0
BBX 36 67 8 0
BITMAP
0078000000
00E0000000
01C0000000
0700000000
0E00000000
1C00000000
3000000000
E000000000
0000000000
0000000000
0000000000
0000000000
0000000000
3000000000
3000000000
3000000000
3000000000
3000000000
3000000000
3000000000
3000000000
3000000000
3000000000
3000000000
3000000000
3000000000
3000000000
3000000000
3000000000
3000000000
3000000000
3000000000
3000000000
3000000000
3000000000
3000000000
3000000000
3000000000
3000000000
3000000000
3000000000
3000000000
3000000000
3000000000
3000000000
3000000000
3000000000
3000000000
3000000000
3000000000
3000000000
3000000000
3000000000
3000000000
3000000000
3000000000
3000000000
3000000000
3000000000
3000000000
3000000000
3000000000
3000000000
3000000000
3000000000
3000000000
3FFFFFFFF0
ENDCHAR
STARTCHAR 013A
ENCODING 314
SWIDTH 244 0
DWIDTH 19 0
BBX 13 73 7 0
BITMAP
0078
00E0
0180
0700
0E00
1800
7000
E000
0000
0000
0000
0000
0000
0000
0000
3000
3000
3000
3000
3000
3000
3000
3000
3000
3000
3000
3000
3000
3000
3000
3000
3000
3000
3000
3000
3000
3000
3000
3000
3000
3000
3000
3000
3000
3000
3000
3000
3000
3000
3000
3000
3000
3000
3000
3000
3000
3000
3000
3000
3000
3000
3000
3000
3000
3000
3000
3000
3000
3000
3000
3000
3000
3000
ENDCHAR
STARTCHAR 013B
ENCODING 315
SWIDTH 578 0
DWIDTH 45 0
BBX 34 74 10 -20
BITMAP
C000000000
C000000000
C000000000
C000000000
C000000000
C000000000
C000000000
C000000000
C000000000
C000000000
C000000000
C000000000
C000000000
C000000000
C000000000
C000000000
C000000000
C000000000
C000000000
C000000000
C000000000
C000000000
C000000000
C000000000
C000000000
C000000000
C000000000
C000000000
C000000000
C000000000
C000000000
C000000000
C000000000
C000000000
C000000000
C000000000
C000000000
C000000000
C000000000
C000000000
C000000000
C000000000
C000000000
C000000000
C000000000
C000000000
C000000000
C000000000
C000000000
C000000000
C000000000
C000000000
C000000000
FFFFFFFFC0
0000000000
0000000000
0000000000
0000000000
0000000000
0000000000
0000000000
0000000000
0000000000
0000000000
0000F00000
0000F00000
0000F00000
0000700000
0000300000
0000200000
0000600000
0000600000
0000400000
0000400000
ENDCHAR
STARTCHAR 013C
ENCODING 316
SWIDTH 244 0
DWIDTH 19 0
BBX 4 78 8 -20
BITMAP
60
60
60
60
60
60
60
60
60
60
60
60
60
60
60
60
60
60
60
60
60
60
60
60
60
60
60
60
60
60
60
60
60
60
60
60
60
60
60
60
60
60
60
60
60
60
60
60
60
60
60
60
60
60
60
60
60
60
00
00
00
00
00
00
00
00
00
00
E0
F0
F0
60
60
60
60
40
C0
C0
ENDCHAR
STARTCHAR 013D
ENCODING 317
SWIDTH 578 0
DWIDTH 45 0
BBX 34 56 10 0
BITMAP
0000004000
0000004000
C000004000
C000004000
C000004000
C000004000
C000004000
C000004000
C000004000
C000004000
C000004000
C000004000
C000004000
C000004000
C000000000
C000000000
C000000000
C000000000
C000000000
C000000000
C000000000
C000000000
C000000000
C000000000
C000000000
C000000000
C000000000
C000000000
C000000000
C000000000
C000000000
C000000000
C000000000
C000000000
C000000000
C000000000
C000000000
C000000000
C000000000
C000000000
C000000000
C000000000
C000000000
C000000000
C000000000
C000000000
C000000000
C000000000
C000000000
C000000000
C000000000
C000000000
C000000000
C000000000
C000000000
FFFFFFFFC0
ENDCHAR
STARTCHAR 013E
ENCODING 318
SWIDTH 244 0
DWIDTH 19 0
BBX 11 59 9 0
BITMAP
0060
C060
C060
C060
C060
C060
C060
C060
C060
C060
C060
C060
C060
C060
C000
C000
C000
C000
C000
C000
C000
C000
C000
C000
C000
C000
C000
C000
C000
C000
C000
C000
C000
C000
C000
C000
C000
C000
C000
C000
C000
C000
C000
C000
C000
C000
C000
C000
C000
C000
C000
C000
C000
C000
C000
C000
C000
C000
C000
ENDCHAR
STARTCHAR 013F
ENCODING 319
SWIDTH 578 0
DWIDTH 45 0
BBX 34 54 10 0
BITMAP
C000000000
C000000000
C000000000
C000000000
C000000000
C000000000
C000000000
C000000000
C000000000
C000000000
C000000000
C000000000
C000000000
C000000000
C000000000
C000000000
C000000000
C000000000
C000000000
C000000000
C000000000
C000000000
C000000000
C000000000
C000038000
C00003C000
C00003C000
C000038000
C000000000
C000000000
C000000000
C000000000
C000000000
C000000000
C000000000
C000000000
C000000000
C000000000
C000000000
C000000000
C000000000
C000000000
C000000000
C000000000
C000000000
C000000000
C000000000
C000000000
C000000000
C000000000
C000000000
C000000000
C000000000
FFFFFFFFC0
ENDCHAR
STARTCHAR 0140
ENCODING 320
SWIDTH 244 0
DWIDTH 19 0
BBX 12 58 9 0
BITMAP
C000
C000
C000
C000
C000
C000
C000
C000
C000
C000
C000
C000
C000
C000
C000
C000
C000
C000
C000
C000
C000
C000
C000
C000
C000
C000
C000
C000
C000
C070
C0F0
C070
C070
C000
C000
C000
C000
C000
C000
C000
C000
C000
C000
C000
C000
C000
C000
C000
C000
C000
C000
C000
C000
C000
C000
C000
C000
C000
ENDCHAR
STARTCHAR 0141
ENCODING 321
SWIDTH 578 0
DWIDTH 45 0
BBX 40 54 4 0
BITMAP
0300000000
0300000000
0300000000
0300000000
0300000000
0300000000
0300000000
0300000000
0300000000
0300000000
0300000000
0300000000
0300000000
0300000000
0300000000
0300000000
0300000000
0300400000
0300C00000
0301800000
0307000000
030C000000
0318000000
0370000000
03C0000000
0380000000
0700000000
0F00000000
1B00000000
7300000000
C300000000
8300000000
0300000000
0300000000
0300000000
0300000000
0300000000
0300000000
0300000000
0300000000
0300000000
0300000000
0300000000
0300000000
0300000000
0300000000
0300000000
0300000000
0300000000
0300000000
0300000000
0300000000
0300000000
03FFFFFFFF
ENDCHAR
STARTCHAR 0142
ENCODING 322
SWIDTH 244 0
DWIDTH 19 0
BBX 15 58 2 0
BITMAP
0180
0180
0180
0180
0180
0180
0180
0180
0180
0180
0180
0180
0180
0180
0180
0180
0180
0180
0180
0180
0180
0180
0180
0180
0180
0182
018E
0198
01B0
01E0
0180
0380
0F80
1980
7180
C180
8180
0180
0180
0180
0180
0180
0180
0180
0180
0180
0180
0180
0180
0180
0180
0180
0180
0180
0180
0180
0180
0180
ENDCHAR
STARTCHAR 0143
ENCODING 323
SWIDTH 810 0
DWIDTH 63 0
BBX 43 67 10 0
BITMAP
0000000F0000
0000001C0000
000000700000
000000E00000
000001C00000
000003000000
00000E000000
000018000000
000000000000
000000000000
000000000000
000000000000
000000000000
C00000000020
E00000000020
F00000000020
D80000000020
DC0000000020
CC0000000020
C60000000020
C30000000020
C18000000020
C18000000020
C0C000000020
C06000000020
C03000000020
C03000000020
C01800000020
C00C00000020
C00600000020
C00300000020
C00300000020
C00180000020
C000C0000020
C00060000020
C00060000020
C00030000020
C00018000020
C0000C000020
C00006000020
C00006000020
C00003000020
C00001800020
C00000C00020
C00000C00020
C00000600020
C00000300020
C00000180020
C00000180020
C000000C0020
C00000060020
C00000030020
C00000018020
C00000018020
C0000000C020
C00000006020
C00000003020
C00000003020
C00000001820
C00000000C20
C00000000620
C00000000320
C00000000320
C000000001A0
C000000000E0
C00000000060
C00000000060
ENDCHAR
STARTCHAR 0144
ENCODING 324
SWIDTH 655 0
DWIDTH 51 0
BBX 34 56 9 0
BITMAP
000000E000
000001C000
0000030000
00000E0000
00001C0000
0000300000
0000E00000
0001C00000
0003000000
0000000000
0000000000
0000000000
0000000000
0000000000
0000000000
0000000000
C00FFF8000
C07C01E000
C0E0003800
C380001C00
C600000600
CC00000300
C800000300
D800000180
F000000180
E0000000C0
E0000000C0
E0000000C0
C000000040
C000000040
C000000040
C000000040
C000000040
C000000040
C000000040
C000000040
C000000040
C000000040
C000000040
C000000040
C000000040
C000000040
C000000040
C000000040
C000000040
C000000040
C000000040
C000000040
C000000040
C000000040
C000000040
C000000040
C000000040
C000000040
C000000040
C000000040
ENDCHAR
STARTCHAR 0145
ENCODING 325
SWIDTH 810 0
DWIDTH 63 0
BBX 43 74 10 -20
BITMAP
C00000000020
E00000000020
F00000000020
D80000000020
DC0000000020
CC0000000020
C60000000020
C30000000020
C18000000020
C18000000020
C0C000000020
C06000000020
C03000000020
C03000000020
C01800000020
C00C00000020
C00600000020
C00300000020
C00300000020
C00180000020
C000C0000020
C00060000020
C00060000020
C00030000020
C00018000020
C0000C000020
C00006000020
C00006000020
C00003000020
C00001800020
C00000C00020
C00000C00020
C00000600020
C00000300020
C00000180020
C00000180020
C000000C0020
C00000060020
C00000030020
C00000018020
C00000018020
C0000000C020
C00000006020
C00000003020
C00000003020
C00000001820
C00000000C20
C00000000620
C00000000320
C00000000320
C000000001A0
C000000000E0
C00000000060
C00000000060
000000000000
000000000000
000000000000
000000000000
000000000000
000000000000
000000000000
000000000000
000000000000
000000000000
00000E000000
00000F000000
00000F000000
000006000000
000006000000
000006000000
000006000000
000004000000
00000C000000
00000C000000
ENDCHAR
STARTCHAR 0146
ENCODING 326
SWIDTH 655 0
DWIDTH 51 0
BBX 34 60 9 -20
BITMAP
C00FFF8000
C07C01E000
C0E0003800
C380001C00
C600000600
CC00000300
C800000300
D800000180
F000000180
E0000000C0
E0000000C0
E0000000C0
C000000040
C000000040
C000000040
C000000040
C000000040
C000000040
C000000040
C000000040
C000000040
C000000040
C000000040
C000000040
C000000040
C000000040
C000000040
C000000040
C000000040
C000000040
C000000040
C000000040
C000000040
C000000040
C000000040
C000000040
C000000040
C000000040
C000000040
C000000040
0000000000
0000000000
0000000000
0000000000
0000000000
0000000000
0000000000
0000000000
0000000000
0000000000
0001E00000
0001E00000
0001E00000
0000E00000
0000600000
0000C00000
0000C00000
0000C00000
0000800000
0000800000
ENDCHAR
STARTCHAR 0147
ENCODING 327
SWIDTH 810 0
DWIDTH 63 0
BBX 43 67 10 0
BITMAP
000C00070000
0006000C0000
000380180000
0001C0300000
0000E0E00000
000031C00000
00001B800000
00000F000000
000000000000
000000000000
000000000000
000000000000
000000000000
C00000000020
E00000000020
F00000000020
D80000000020
DC0000000020
CC0000000020
C60000000020
C30000000020
C18000000020
C18000000020
C0C000000020
C06000000020
C03000000020
C03000000020
C01800000020
C00C00000020
C00600000020
C00300000020
C00300000020
C00180000020
C000C0000020
C00060000020
C00060000020
C00030000020
C00018000020
C0000C000020
C00006000020
C00006000020
C00003000020
C00001800020
C00000C00020
C00000C00020
C00000600020
C00000300020
C00000180020
C00000180020
C000000C0020
C00000060020
C00000030020
C00000018020
C00000018020
C0000000C020
C00000006020
C00000003020
C00000003020
C00000001820
C00000000C20
C00000000620
C00000000320
C00000000320
C000000001A0
C000000000E0
C00000000060
C00000000060
ENDCHAR
STARTCHAR 0148
ENCODING 328
SWIDTH 655 0
DWIDTH 51 0
BBX 34 56 9 0
BITMAP
0180006000
00C000C000
0060018000
0030030000
001C060000
000E1C0000
0007380000
0003F00000
0001E00000
0000000000
0000000000
0000000000
0000000000
0000000000
0000000000
0000000000
C00FFF8000
C07C01E000
C0E0003800
C380001C00
C600000600
CC00000300
C800000300
D800000180
F000000180
E0000000C0
E0000000C0
E0000000C0
C000000040
C000000040
C000000040
C000000040
C000000040
C000000040
C000000040
C000000040
C000000040
C000000040
C000000040
C000000040
C000000040
C000000040
C000000040
C000000040
C000000040
C000000040
C000000040
C000000040
C000000040
C000000040
C000000040
C000000040
C000000040
C000000040
C000000040
C000000040
ENDCHAR
STARTCHAR 0149
ENCODING 329
SWIDTH 694 0
DWIDTH 54 0
BBX 42 58 5 0
BITMAP
600000000000
F00000000000
F00000000000
700000000000
300000000000
300000000000
200000000000
600000000000
600000000000
600000000000
400000000000
400000000000
C00000000000
C00000000000
800000000000
000000000000
000000000000
000000000000
01801FFF0000
0180F803C000
0181C0007000
018700003800
018C00000C00
019800000600
019000000600
01B000000300
01E000000100
01C000000180
01C000000180
01C000000180
018000000080
018000000080
018000000080
018000000080
0180000000C0
0180000000C0
0180000000C0
0180000000C0
0180000000C0
0180000000C0
0180000000C0
0180000000C0
0180000000C0
0180000000C0
0180000000C0
0180000000C0
0180000000C0
0180000000C0
0180000000C0
0180000000C0
0180000000C0
0180000000C0
0180000000C0
0180000000C0
0180000000C0
0180000000C0
0180000000C0
0180000000C0
ENDCHAR
STARTCHAR 014A
ENCODING 330
SWIDTH 810 0
DWIDTH 63 0
BBX 43 69 10 -15
BITMAP
C00000000020
E00000000020
F00000000020
D80000000020
DC0000000020
CC0000000020
C60000000020
C30000000020
C18000000020
C18000000020
C0C000000020
C06000000020
C03000000020
C03000000020
C01800000020
C00C00000020
C00600000020
C00300000020
C00300000020
C00180000020
C000C0000020
C00060000020
C00060000020
C00030000020
C00018000020
C0000C000020
C00006000020
C00006000020
C00003000020
C00001800020
C00000C00020
C00000C00020
C00000600020
C00000300020
C00000180020
C00000180020
C000000C0020
C00000060020
C00000030020
C00000018020
C00000018020
C0000000C020
C00000006020
C00000003020
C00000003020
C00000001820
C00000000C20
C00000000620
C00000000320
C00000000320
C000000001A0
C000000000E0
C00000000060
C00000000060
000000000020
000000000020
000000000060
000000000060
000000000060
000000000060
000000000040
0000C00000C0
0000600000C0
000030000180
000038000380
00001C000700
000007000E00
000003E07800
0000007FE000
ENDCHAR
STARTCHAR 014B
ENCODING 331
SWIDTH 655 0
DWIDTH 51 0
BBX 34 55 9 -15
BITMAP
C00FFF8000
C07C01E000
C0E0003800
C380001C00
C600000600
CC00000300
C800000300
D800000180
F000000180
E0000000C0
E0000000C0
E0000000C0
C000000040
C000000040
C000000040
C000000040
C000000040
C000000040
C000000040
C000000040
C000000040
C000000040
C000000040
C000000040
C000000040
C000000040
C000000040
C000000040
C000000040
C000000040
C000000040
C000000040
C000000040
C000000040
C000000040
C000000040
C000000040
C000000040
C000000040
C000000040
0000000040
0000000040
0000000040
0000000040
0000000040
0000000040
0000000040
0000000040
00000000C0
00000000C0
0000000080
0000000180
0000700300
00003C1E00
00000FF800
ENDCHAR
STARTCHAR 014C
ENCODING 332
SWIDTH 835 0
DWIDTH 65 0
BBX 55 64 5 0
BITMAP
00007FFFFC0000
00007FFFFC0000
00000000000000
00000000000000
00000000000000
00000000000000
00000000000000
00000000000000
00000000000000
000000FE000000
00001FFFF00000
0000F8003E0000
0003C000078000
000E000000E000
00180000007000
00700000001C00
00E00000000E00
01800000000300
03000000000180
060000000001C0
060000000000C0
0C000000000060
18000000000030
18000000000030
30000000000018
30000000000018
6000000000000C
6000000000000C
40000000000004
C0000000000006
C0000000000006
C0000000000006
80000000000002
80000000000002
80000000000002
80000000000002
80000000000002
80000000000002
80000000000002
80000000000002
80000000000002
C0000000000006
C0000000000006
C0000000000006
40000000000004
6000000000000C
6000000000000C
20000000000008
30000000000018
10000000000010
18000000000030
0C000000000060
0C000000000060
060000000000C0
03000000000180
01800000000300
00C00000000600
00600000000C00
00380000003800
001C0000007000
0007000001C000
0001E0000F0000
00007F83FC0000
000007FFC00000
ENDCHAR
STARTCHAR 014D
ENCODING 333
SWIDTH 604 0
DWIDTH 47 0
BBX 39 52 4 0
BITMAP
007FFFFC00
0000000000
0000000000
0000000000
0000000000
0000000000
0000000000
0000000000
0000000000
0000000000
0000000000
0000000000
0007FFC000
001F00F800
0070001C00
00C0000700
0180000180
03000000C0
0600000060
0C00000030
1800000030
1000000018
3000000008
200000000C
600000000C
6000000004
4000000006
4000000006
C000000006
C000000002
C000000002
C000000002
C000000002
C000000002
C000000002
C000000006
4000000006
4000000006
6000000004
600000000C
300000000C
3000000018
1800000018
1800000030
0C00000060
0600000060
03000001C0
0180000380
00E0000600
0078001C00
001F81F000
0003FF8000
ENDCHAR
STARTCHAR 014E
ENCODING 334
SWIDTH 835 0
DWIDTH 65 0
BBX 55 67 5 0
BITMAP
000060000C0000
000060000C0000
00002000080000
00003000180000
00001800300000
00000C00600000
00000783C00000
000001FF000000
00000000000000
00000000000000
00000000000000
00000000000000
000000FE000000
00001FFFF00000
0000F8003E0000
0003C000078000
000E000000E000
00180000007000
00700000001C00
00E00000000E00
01800000000300
03000000000180
060000000001C0
060000000000C0
0C000000000060
18000000000030
18000000000030
30000000000018
30000000000018
6000000000000C
6000000000000C
40000000000004
C0000000000006
C0000000000006
C0000000000006
80000000000002
80000000000002
80000000000002
80000000000002
80000000000002
80000000000002
80000000000002
80000000000002
80000000000002
C0000000000006
C0000000000006
C0000000000006
40000000000004
6000000000000C
6000000000000C
20000000000008
30000000000018
10000000000010
18000000000030
0C000000000060
0C000000000060
060000000000C0
03000000000180
01800000000300
00C00000000600
00600000000C00
00380000003800
001C0000007000
0007000001C000
0001E0000F0000
00007F83FC0000
000007FFC00000
ENDCHAR
STARTCHAR 014F
ENCODING 335
SWIDTH 604 0
DWIDTH 47 0
BBX 39 56 4 0
BITMAP
0060000C00
0020000C00
0020000C00
0030000800
0018001800
001C003000
000E00E000
0003EFC000
0000FE0000
0000000000
0000000000
0000000000
0000000000
0000000000
0000000000
0000000000
0007FFC000
001F00F800
0070001C00
00C0000700
0180000180
03000000C0
0600000060
0C00000030
1800000030
1000000018
3000000008
200000000C
600000000C
6000000004
4000000006
4000000006
C000000006
C000000002
C000000002
C000000002
C000000002
C000000002
C000000002
C000000006
4000000006
4000000006
6000000004
600000000C
300000000C
3000000018
1800000018
1800000030
0C00000060
0600000060
03000001C0
0180000380
00E0000600
0078001C00
001F81F000
0003FF8000
ENDCHAR
STARTCHAR 0150
ENCODING 336
SWIDTH 835 0
DWIDTH 65 0
BBX 55 67 5 0
BITMAP
0000000700E000
0000000C018000
00000018030000
000000300E0000
000000601C0000
000000C0380000
00000180700000
00000300E00000
00000000000000
00000000000000
00000000000000
00000000000000
000000FE000000
00001FFFF00000
0000F8003E0000
0003C000078000
000E000000E000
00180000007000
00700000001C00
00E00000000E00
01800000000300
03000000000180
060000000001C0
060000000000C0
0C000000000060
18000000000030
18000000000030
30000000000018
30000000000018
6000000000000C
6000000000000C
40000000000004
C0000000000006
C0000000000006
C0000000000006
80000000000002
80000000000002
80000000000002
80000000000002
80000000000002
80000000000002
80000000000002
80000000000002
80000000000002
C0000000000006
C0000000000006
C0000000000006
40000000000004
6000000000000C
6000000000000C
20000000000008
30000000000018
10000000000010
18000000000030
0C000000000060
0C000000000060
060000000000C0
03000000000180
01800000000300
00C00000000600
00600000000C00
00380000003800
001C0000007000
0007000001C000
0001E0000F0000
00007F83FC0000
000007FFC00000
ENDCHAR
STARTCHAR 0151
ENCODING 337
SWIDTH 604 0
DWIDTH 47 0
BBX 39 56 4 0
BITMAP
00000300E0
00000601C0
00000C0380
0000180700
0000300E00
0000601C00
0000C03800
0001807000
000300E000
0000000000
0000000000
0000000000
0000000000
0000000000
0000000000
0000000000
0007FFC000
001F00F800
0070001C00
00C0000700
0180000180
03000000C0
0600000060
0C00000030
1800000030
1000000018
3000000008
200000000C
600000000C
6000000004
4000000006
4000000006
C000000006
C000000002
C000000002
C000000002
C000000002
C000000002
C000000002
C000000006
4000000006
4000000006
6000000004
600000000C
300000000C
3000000018
1800000018
1800000030
0C00000060
0600000060
03000001C0
0180000380
00E0000600
0078001C00
001F81F000
0003FF8000
ENDCHAR
STARTCHAR 0152
ENCODING 338
SWIDTH 1105 0
DWIDTH 86 0
BBX 76 54 5 0
BITMAP
00000FFFFFFFFFFFFFE0
00007E00008000000000
0003C000008000000000
00070000008000000000
001C0000008000000000
00300000008000000000
00E00000008000000000
01800000008000000000
03000000008000000000
06000000008000000000
06000000008000000000
0C000000008000000000
18000000008000000000
18000000008000000000
30000000008000000000
30000000008000000000
60000000008000000000
60000000008000000000
40000000008000000000
C0000000008000000000
C0000000008000000000
C0000000008000000000
80000000008000000000
80000000008000000000
80000000008000000000
80000000008000000000
8000000000FFFFFFFE00
80000000008000000000
80000000008000000000
80000000008000000000
80000000008000000000
80000000008000000000
C0000000008000000000
C0000000008000000000
40000000008000000000
40000000008000000000
60000000008000000000
20000000008000000000
30000000008000000000
30000000008000000000
18000000008000000000
08000000008000000000
0C000000008000000000
06000000008000000000
03000000008000000000
01800000008000000000
00C00000008000000000
00600000008000000000
00380000008000000000
000E0000008000000000
00078000008000000000
0001F000008000000000
00003FF0008000000000
000003FFFFFFFFFFFFF0
ENDCHAR
STARTCHAR 0153
ENCODING 339
SWIDTH 1067 0
DWIDTH 83 0
BBX 75 40 4 0
BITMAP
0007FFC000003FFC0000
001F00F00000F00F8000
0070001C00038001E000
00C00007000700007000
01800001800C00001800
03000000C01800000C00
06000000603000000600
0C000000206000000300
18000000304000000300
1000000018C000000180
30000000088000000180
200000000D80000000C0
600000000D00000000C0
60000000050000000040
40000000070000000060
40000000070000000060
C0000000060000000060
C0000000020000000060
C000000003FFFFFFFFE0
C000000003FFFFFFFFE0
C0000000020000000000
C0000000020000000000
C0000000020000000000
C0000000070000000000
40000000070000000000
40000000070000000000
60000000050000000000
600000000D8000000000
30000000098000000000
3000000018C000000000
1800000018C000000000
18000000306000000000
0C000000603000000000
06000000401800000100
03000001C01C00000300
01800003800600000E00
00E00006000380001C00
0078001C0001E0007000
001F81F000007E0FC000
0003FF8000000FFF0000
ENDCHAR
STARTCHAR 0154
ENCODING 340
SWIDTH 707 0
DWIDTH 55 0
BBX 41 67 10 0
BITMAP
000000700000
000001C00000
000003800000
000007000000
00000C000000
000038000000
000070000000
0000C0000000
000000000000
000000000000
000000000000
000000000000
000000000000
FFFFFFE00000
C000007C0000
C00000070000
C00000018000
C0000000E000
C00000003000
C00000001800
C00000000800
C00000000C00
C00000000600
C00000000600
C00000000200
C00000000300
C00000000300
C00000000300
C00000000100
C00000000100
C00000000100
C00000000100
C00000000300
C00000000300
C00000000300
C00000000300
C00000000200
C00000000600
C00000000600
C00000000C00
C00000001800
C00000001800
C00000003000
C0000000E000
C00000018000
C000000F0000
C00000F80000
FFFFFFE00000
C00000300000
C00000300000
C00000180000
C000000C0000
C00000060000
C00000060000
C00000030000
C00000018000
C00000018000
C0000000C000
C00000006000
C00000003000
C00000003000
C00000001800
C00000000C00
C00000000C00
C00000000600
C00000000300
C00000000180
ENDCHAR
STARTCHAR 0155
ENCODING 341
SWIDTH 372 0
DWIDTH 29 0
BBX 19 56 9 0
BITMAP
0000E0
000380
000700
000E00
001800
007000
00E000
018000
030000
000000
000000
000000
000000
000000
000000
000000
C01F80
C07800
C1C000
C30000
C60000
CC0000
D80000
D00000
F00000
E00000
E00000
C00000
C00000
C00000
C00000
C00000
C00000
C00000
C00000
C00000
C00000
C00000
C00000
C00000
C00000
C00000
C00000
C00000
C00000
C00000
C00000
C00000
C00000
C00000
C00000
C00000
C00000
C00000
C00000
C00000
ENDCHAR
STARTCHAR 0156
ENCODING 342
SWIDTH 707 0
DWIDTH 55 0
BBX 41 74 10 -20
BITMAP
FFFFFFE00000
C000007C0000
C00000070000
C00000018000
C0000000E000
C00000003000
C00000001800
C00000000800
C00000000C00
C00000000600
C00000000600
C00000000200
C00000000300
C00000000300
C00000000300
C00000000100
C00000000100
C00000000100
C00000000100
C00000000300
C00000000300
C00000000300
C00000000300
C00000000200
C00000000600
C00000000600
C00000000C00
C00000001800
C00000001800
C00000003000
C0000000E000
C00000018000
C000000F0000
C00000F80000
FFFFFFE00000
C00000300000
C00000300000
C00000180000
C000000C0000
C00000060000
C00000060000
C00000030000
C00000018000
C00000018000
C0000000C000
C00000006000
C00000003000
C00000003000
C00000001800
C00000000C00
C00000000C00
C00000000600
C00000000300
C00000000180
000000000000
000000000000
000000000000
000000000000
000000000000
000000000000
000000000000
000000000000
000000000000
000000000000
000070000000
0000F0000000
000070000000
000030000000
000030000000
000030000000
000020000000
000060000000
000060000000
000040000000
ENDCHAR
STARTCHAR 0157
ENCODING 343
SWIDTH 372 0
DWIDTH 29 0
BBX 18 60 8 -20
BITMAP
600FC0
603C00
60E000
618000
630000
660000
6C0000
680000
780000
700000
700000
600000
600000
600000
600000
600000
600000
600000
600000
600000
600000
600000
600000
600000
600000
600000
600000
600000
600000
600000
600000
600000
600000
600000
600000
600000
600000
600000
600000
600000
000000
000000
000000
000000
000000
000000
000000
000000
000000
000000
E00000
F00000
F00000
600000
600000
600000
600000
400000
C00000
C00000
ENDCHAR
STARTCHAR 0158
ENCODING 344
SWIDTH 707 0
DWIDTH 55 0
BBX 41 67 10 0
BITMAP
00E000380000
003000600000
001800C00000
000E03800000
000707000000
00038E000000
0001DC000000
000070000000
000000000000
000000000000
000000000000
000000000000
000000000000
FFFFFFE00000
C000007C0000
C00000070000
C00000018000
C0000000E000
C00000003000
C00000001800
C00000000800
C00000000C00
C00000000600
C00000000600
C00000000200
C00000000300
C00000000300
C00000000300
C00000000100
C00000000100
C00000000100
C00000000100
C00000000300
C00000000300
C00000000300
C00000000300
C00000000200
C00000000600
C00000000600
C00000000C00
C00000001800
C00000001800
C00000003000
C0000000E000
C00000018000
C000000F0000
C00000F80000
FFFFFFE00000
C00000300000
C00000300000
C00000180000
C000000C0000
C00000060000
C00000060000
C00000030000
C00000018000
C00000018000
C0000000C000
C00000006000
C00000003000
C00000003000
C00000001800
C00000000C00
C00000000C00
C00000000600
C00000000300
C00000000180
ENDCHAR
STARTCHAR 0159
ENCODING 345
SWIDTH 372 0
DWIDTH 29 0
BBX 21 56 7 0
BITMAP
C00018
700030
380060
0C01C0
060380
030700
018C00
00F800
007000
000000
000000
000000
000000
000000
000000
000000
3007E0
301E00
307000
30C000
318000
330000
360000
340000
3C0000
380000
380000
300000
300000
300000
300000
300000
300000
300000
300000
300000
300000
300000
300000
300000
300000
300000
300000
300000
300000
300000
300000
300000
300000
300000
300000
300000
300000
300000
300000
300000
ENDCHAR
STARTCHAR 015A
ENCODING 346
SWIDTH 591 0
DWIDTH 46 0
BBX 37 67 5 0
BITMAP
0000003C00
0000007000
000001C000
0000038000
0000070000
00000C0000
0000380000
0000600000
0000000000
0000000000
0000000000
0000000000
0000FC0000
001FFFE000
00F8007C00
01C0000F00
07000001C0
0E00000060
0C00000000
1800000000
3000000000
3000000000
2000000000
6000000000
6000000000
6000000000
6000000000
6000000000
6000000000
6000000000
2000000000
3000000000
1800000000
1800000000
0E00000000
0700000000
01C0000000
0078000000
001F800000
0003F80000
00003F0000
000003E000
0000003C00
0000000F00
0000000380
00000000C0
0000000060
0000000030
0000000010
0000000018
0000000018
0000000018
0000000008
0000000008
0000000008
0000000018
0000000018
0000000018
0000000010
C000000030
E000000060
70000000C0
1C000001C0
0F00000300
03C0001E00
007E03F800
000FFFC000
ENDCHAR
STARTCHAR 015B
ENCODING 347
SWIDTH 462 0
DWIDTH 36 0
BBX 30 56 3 0
BITMAP
00000380
00000700
00000C00
00003800
00007000
0000C000
00038000
00070000
000C0000
00000000
00000000
00000000
00000000
00000000
00000000
00000000
007FFC00
03E00F80
060001E0
0C000030
18000010
30000000
20000000
60000000
60000000
60000000
60000000
60000000
60000000
20000000
30000000
18000000
0C000000
07800000
01F00000
007F8000
0003FC00
00001F00
000001C0
00000070
00000038
00000018
0000000C
0000000C
0000000C
00000004
00000004
0000000C
0000000C
00000008
C0000018
E0000030
38000060
1E0001C0
07F01F00
007FFC00
ENDCHAR
STARTCHAR 015C
ENCODING 348
SWIDTH 591 0
DWIDTH 46 0
BBX 37 67 5 0
BITMAP
00007C0000
0000E60000
0001C30000
0003818000
000600C000
000C007000
0018003800
0030000C00
0000000000
0000000000
0000000000
0000000000
0000FC0000
001FFFE000
00F8007C00
01C0000F00
07000001C0
0E00000060
0C00000000
1800000000
3000000000
3000000000
2000000000
6000000000
6000000000
6000000000
6000000000
6000000000
6000000000
6000000000
2000000000
3000000000
1800000000
1800000000
0E00000000
0700000000
01C0000000
0078000000
001F800000
0003F80000
00003F0000
000003E000
0000003C00
0000000F00
0000000380
00000000C0
0000000060
0000000030
0000000010
0000000018
0000000018
0000000018
0000000008
0000000008
0000000008
0000000018
0000000018
0000000018
0000000010
C000000030
E000000060
70000000C0
1C000001C0
0F00000300
03C0001E00
007E03F800
000FFFC000
ENDCHAR
STARTCHAR 015D
ENCODING 349
SWIDTH 462 0
DWIDTH 36 0
BBX 30 56 3 0
BITMAP
00078000
000FC000
001CE000
00387000
00701800
00C00C00
01800600
03000300
06000180
00000000
00000000
00000000
00000000
00000000
00000000
00000000
007FFC00
03E00F80
060001E0
0C000030
18000010
30000000
20000000
60000000
60000000
60000000
60000000
60000000
60000000
20000000
30000000
18000000
0C000000
07800000
01F00000
007F8000
0003FC00
00001F00
000001C0
00000070
00000038
00000018
0000000C
0000000C
0000000C
00000004
00000004
0000000C
0000000C
00000008
C0000018
E0000030
38000060
1E0001C0
07F01F00
007FFC00
ENDCHAR
STARTCHAR 015E
ENCODING 350
SWIDTH 591 0
DWIDTH 46 0
BBX 37 72 5 -17
BITMAP
0000FC0000
001FFFE000
00F8007C00
01C0000F00
07000001C0
0E00000060
0C00000000
1800000000
3000000000
3000000000
2000000000
6000000000
6000000000
6000000000
6000000000
6000000000
6000000000
6000000000
2000000000
3000000000
1800000000
1800000000
0E00000000
0700000000
01C0000000
0078000000
001F800000
0003F80000
00003F0000
000003E000
0000003C00
0000000F00
0000000380
00000000C0
0000000060
0000000030
0000000010
0000000018
0000000018
0000000018
0000000008
0000000008
0000000008
0000000018
0000000018
0000000018
0000000010
C000000030
E000000060
70000000C0
1C000001C0
0F00000300
03C0001E00
007E03F800
000FFFC000
0000100000
0000300000
0000300000
0000200000
0000300000
00007E0000
0000030000
0000018000
0000008000
000000C000
000000C000
0000008000
0000008000
0004018000
0007070000
0003FE0000
0000200000
ENDCHAR
STARTCHAR 015F
ENCODING 351
SWIDTH 462 0
DWIDTH 36 0
BBX 30 57 3 -17
BITMAP
007FFC00
03E00F80
060001E0
0C000030
18000010
30000000
20000000
60000000
60000000
60000000
60000000
60000000
60000000
20000000
30000000
18000000
0C000000
07800000
01F00000
007F8000
0003FC00
00001F00
000001C0
00000070
00000038
00000018
0000000C
0000000C
0000000C
00000004
00000004
0000000C
0000000C
00000008
C0000018
E0000030
38000060
1E0001C0
07F01F00
007FFC00
00020000
00020000
00060000
00060000
00070000
0007C000
00006000
00003000
00001800
00001800
00001800
00001800
00001800
00003000
00E06000
007FC000
00040000
ENDCHAR
STARTCHAR 0160
ENCODING 352
SWIDTH 591 0
DWIDTH 46 0
BBX 37 67 5 0
BITMAP
0030001C00
0018003000
000E006000
000700C000
0003838000
0000C70000
00006E0000
00003C0000
0000000000
0000000000
0000000000
0000000000
0000FC0000
001FFFE000
00F8007C00
01C0000F00
07000001C0
0E00000060
0C00000000
1800000000
3000000000
3000000000
2000000000
6000000000
6000000000
6000000000
6000000000
6000000000
6000000000
6000000000
2000000000
3000000000
1800000000
1800000000
0E00000000
0700000000
01C0000000
0078000000
001F800000
0003F80000
00003F0000
000003E000
0000003C00
0000000F00
0000000380
00000000C0
0000000060
0000000030
0000000010
0000000018
0000000018
0000000018
0000000008
0000000008
0000000008
0000000018
0000000018
0000000018
0000000010
C000000030
E000000060
70000000C0
1C000001C0
0F00000300
03C0001E00
007E03F800
000FFFC000
ENDCHAR
STARTCHAR 0161
ENCODING 353
SWIDTH 462 0
DWIDTH 36 0
BBX 30 56 3 0
BITMAP
06000180
03000300
01800600
00C00C00
00601800
00387000
001CE000
000FC000
00078000
00000000
00000000
00000000
00000000
00000000
00000000
00000000
007FFC00
03E00F80
060001E0
0C000030
18000010
30000000
20000000
60000000
60000000
60000000
60000000
60000000
60000000
20000000
30000000
18000000
0C000000
07800000
01F00000
007F8000
0003FC00
00001F00
000001C0
00000070
00000038
00000018
0000000C
0000000C
0000000C
00000004
00000004
0000000C
0000000C
00000008
C0000018
E0000030
38000060
1E0001C0
07F01F00
007FFC00
ENDCHAR
STARTCHAR 0162
ENCODING 354
SWIDTH 540 0
DWIDTH 42 0
BBX 42 71 0 -17
BITMAP
FFFFFFFFFFC0
000004000000
000004000000
000004000000
000004000000
000004000000
000004000000
000004000000
000004000000
000004000000
000004000000
000004000000
000004000000
000004000000
000004000000
000004000000
000004000000
000004000000
000004000000
000004000000
000004000000
000004000000
000004000000
000004000000
000004000000
000004000000
000004000000
000004000000
000004000000
000004000000
000004000000
000004000000
000004000000
000004000000
000004000000
000004000000
000004000000
000004000000
000004000000
000004000000
000004000000
000004000000
000004000000
000004000000
000004000000
000004000000
000004000000
000004000000
000004000000
000004000000
000004000000
000004000000
000004000000
000004000000
00000C000000
00000C000000
000008000000
000018000000
00001C000000
00001F800000
000001C00000
000000400000
000000600000
000000200000
000000200000
000000600000
000000600000
000000C00000
000381C00000
0000FF000000
000018000000
ENDCHAR
STARTCHAR 0163
ENCODING 355
SWIDTH 385 0
DWIDTH 30 0
BBX 25 66 2 -17
BITMAP
00800000
00800000
00800000
00800000
00800000
00800000
00800000
00800000
00800000
FFFFFE00
00800000
00800000
00800000
00800000
00800000
00800000
00800000
00800000
00800000
00800000
00800000
00800000
00800000
00800000
00800000
00800000
00800000
00800000
00800000
00800000
00800000
00800000
00800000
00800000
00800000
00800000
00800000
00800000
00800000
00800000
00800000
00800000
00C00000
00C00000
00400000
00600000
00300380
001E0F00
0007FC00
00008000
00018000
00018000
00010000
00018000
0003F000
00001800
00000C00
00000400
00000600
00000600
00000400
00000400
00200C00
00383800
001FF000
00010000
ENDCHAR
STARTCHAR 0164
ENCODING 356
SWIDTH 540 0
DWIDTH 42 0
BBX 42 67 0 0
BITMAP
001C00070000
0006000C0000
000300380000
000180700000
0000E0E00000
000071800000
00003B000000
00001E000000
000000000000
000000000000
000000000000
000000000000
000000000000
FFFFFFFFFFC0
000004000000
000004000000
000004000000
000004000000
000004000000
000004000000
000004000000
000004000000
000004000000
000004000000
000004000000
000004000000
000004000000
000004000000
000004000000
000004000000
000004000000
000004000000
000004000000
000004000000
000004000000
000004000000
000004000000
000004000000
000004000000
000004000000
000004000000
000004000000
000004000000
000004000000
000004000000
000004000000
000004000000
000004000000
000004000000
000004000000
000004000000
000004000000
000004000000
000004000000
000004000000
000004000000
000004000000
000004000000
000004000000
000004000000
000004000000
000004000000
000004000000
000004000000
000004000000
000004000000
000004000000
ENDCHAR
STARTCHAR 0165
ENCODING 357
SWIDTH 385 0
DWIDTH 30 0
BBX 25 59 2 0
BITMAP
00006000
00006000
00006000
00006000
00006000
00006000
00006000
00006000
00006000
00006000
00806000
00804000
00800000
00800000
00800000
00800000
00800000
00800000
00800000
FFFFFE00
00800000
00800000
00800000
00800000
00800000
00800000
00800000
00800000
00800000
00800000
00800000
00800000
00800000
00800000
00800000
00800000
00800000
00800000
00800000
00800000
00800000
00800000
00800000
00800000
00800000
00800000
00800000
00800000
00800000
00800000
00800000
00800000
00C00000
00C00000
00400000
00600000
00300380
001E0F00
0007FC00
ENDCHAR
ENDFONT
